SplineFontDB: 3.0
FontName: AL-FATEMILisaan-ud-Dawat
FullName: AlFatemiPlain
FamilyName: AlFatemiPlain
Weight: Medium
Copyright: All the rights are reserved to Dawat Hadiyah
Version: 
ItalicAngle: 0
UnderlinePosition: -1150
UnderlineWidth: 100
Ascent: 1638
Descent: 410
sfntRevision: 0x00050000
LayerCount: 2
Layer: 0 1 "Back"  1
Layer: 1 1 "Fore"  0
XUID: [1021 261 1824535128 10518240]
FSType: 12
OS2Version: 1
OS2_WeightWidthSlopeOnly: 0
OS2_UseTypoMetrics: 1
CreationTime: 1033018408
ModificationTime: 1407683521
PfmFamily: 81
TTFWeight: 500
TTFWidth: 5
LineGap: 0
VLineGap: 0
Panose: 0 0 0 0 0 0 0 0 0 0
OS2TypoAscent: 2036
OS2TypoAOffset: 0
OS2TypoDescent: -1400
OS2TypoDOffset: 0
OS2TypoLinegap: -100
OS2WinAscent: 2036
OS2WinAOffset: 0
OS2WinDescent: 1400
OS2WinDOffset: 0
HheadAscent: 2036
HheadAOffset: 0
HheadDescent: -1400
HheadDOffset: 0
OS2SubXSize: 1434
OS2SubYSize: 1331
OS2SubXOff: 0
OS2SubYOff: 293
OS2SupXSize: 1434
OS2SupYSize: 1331
OS2SupXOff: 0
OS2SupYOff: 928
OS2StrikeYSize: 102
OS2StrikeYPos: 530
OS2Vendor: 'GLYF'
OS2CodePages: 00000040.00000000
OS2UnicodeRanges: 00006000.00000000.00000000.00000000
Lookup: 1 1 0 "'isol' Isolated Forms in Arabic lookup 0"  {"'isol' Isolated Forms in Arabic lookup 0 subtable"  } ['isol' ('arab' <'dflt' > ) ]
Lookup: 1 1 0 "'init' Initial Forms in Arabic lookup 1"  {"'init' Initial Forms in Arabic lookup 1 subtable"  } ['init' ('arab' <'dflt' > ) ]
Lookup: 1 1 0 "'medi' Medial Forms in Arabic lookup 2"  {"'medi' Medial Forms in Arabic lookup 2 subtable"  } ['medi' ('arab' <'dflt' > ) ]
Lookup: 1 1 0 "'fina' Terminal Forms in Arabic lookup 3"  {"'fina' Terminal Forms in Arabic lookup 3 subtable"  } ['fina' ('arab' <'dflt' > ) ]
Lookup: 4 1 1 "'liga' Standard Ligatures in Arabic lookup 4"  {"'liga' Standard Ligatures in Arabic lookup 4 subtable"  } ['liga' ('arab' <'dflt' > ) ]
Lookup: 4 3 1 "'liga' Standard Ligatures in Arabic lookup 5"  {"'liga' Standard Ligatures in Arabic lookup 5 subtable"  } ['liga' ('arab' <'dflt' > ) ]

StartChar: .notdef
Encoding: 527 -1 0
Width: 1024
Flags: W
LayerCount: 2
Fore
SplineSet
128 0 m 1,0,-1
 128 1450 l 1,1,-1
 896 1450 l 1,2,-1
 896 0 l 1,3,-1
 128 0 l 1,0,-1
256 128 m 1,4,-1
 768 128 l 1,5,-1
 768 1322 l 1,6,-1
 256 1322 l 1,7,-1
 256 128 l 1,4,-1
EndSplineSet
EndChar

StartChar: caron
Encoding: 153 711 4
Width: 682
Flags: W
LayerCount: 2
Fore
SplineSet
588 1493 m 1,0,-1
 367 1124 l 1,1,-1
 309 1124 l 1,2,-1
 92 1493 l 1,3,-1
 92 1528 l 1,4,-1
 346 1272 l 1,5,-1
 588 1528 l 1,6,-1
 588 1493 l 1,0,-1
EndSplineSet
EndChar

StartChar: arabiccomma
Encoding: 154 1548 5
Width: 944
Flags: W
LayerCount: 2
Fore
SplineSet
428 162 m 0,0,1
 428 118 428 118 397.5 88.5 c 128,-1,2
 367 59 367 59 324 59 c 0,3,4
 252 59 252 59 205 127.5 c 128,-1,5
 158 196 158 196 158 299 c 0,6,7
 158 499 158 499 332 631 c 1,8,-1
 356 598 l 1,9,10
 225 458 225 458 225 336 c 0,11,12
 225 267 225 267 252 244 c 1,13,14
 300 268 300 268 326 268 c 0,15,16
 367 268 367 268 397.5 236 c 128,-1,17
 428 204 428 204 428 162 c 0,0,1
EndSplineSet
EndChar

StartChar: arabicquestionmark
Encoding: 156 1567 6
Width: 643
Flags: W
LayerCount: 2
Fore
SplineSet
578 913 m 0,0,1
 578 846 578 846 542 801 c 128,-1,2
 506 756 506 756 455 756 c 0,3,4
 418 756 418 756 392.5 782.5 c 128,-1,5
 367 809 367 809 367 846 c 0,6,7
 367 900 367 900 412 926 c 2,8,-1
 453 950 l 1,9,10
 479 969 479 969 479 1001 c 0,11,12
 479 1041 479 1041 445.5 1067.5 c 128,-1,13
 412 1094 412 1094 362 1094 c 0,14,15
 298 1094 298 1094 256.5 1053 c 128,-1,16
 215 1012 215 1012 215 950 c 0,17,18
 215 893 215 893 244 846 c 1,19,-1
 307 719 l 2,20,21
 385 562 385 562 385 424 c 0,22,23
 385 395 385 395 373 311 c 1,24,-1
 342 311 l 1,25,26
 343 335 343 335 346 360 c 0,27,28
 348 381 348 381 348 387 c 0,29,30
 348 471 348 471 306 509 c 2,31,-1
 209 596 l 2,32,33
 80 712 80 712 80 858 c 0,34,35
 80 973 80 973 158.5 1054 c 128,-1,36
 237 1135 237 1135 348 1135 c 0,37,38
 446 1135 446 1135 512 1071 c 128,-1,39
 578 1007 578 1007 578 913 c 0,0,1
434 141 m 256,40,41
 434 104 434 104 409.5 78.5 c 128,-1,42
 385 53 385 53 348 53 c 256,43,44
 311 53 311 53 283.5 79 c 128,-1,45
 256 105 256 105 256 141 c 0,46,47
 256 178 256 178 281.5 204.5 c 128,-1,48
 307 231 307 231 344 231 c 256,49,50
 381 231 381 231 407.5 204.5 c 128,-1,51
 434 178 434 178 434 141 c 256,40,41
EndSplineSet
EndChar

StartChar: hamza
Encoding: 157 1569 7
Width: 569
Flags: WO
AnchorPoint: "belowsingle" 317.5 -252.1 basechar 0
AnchorPoint: "abovesingle" 253.5 739.9 basechar 0
LayerCount: 2
Fore
SplineSet
132 369 m 1,1,-1
 130 366 l 1,2,-1
 128 364 l 1,3,-1
 127 360 l 1,4,-1
 122 352 l 1,5,-1
 119 344 l 1,6,-1
 117 342 l 1,7,-1
 116 339 l 1,8,-1
 115 337 l 1,9,-1
 114 334 l 1,10,-1
 113 332 l 2,11,12
 109 325 109 325 108 319 c 1,13,14
 40 137 40 137 213 38 c 1,15,16
 206 33 206 33 201 31 c 1,17,18
 200 29 200 29 198 29 c 1,19,20
 193 24 193 24 189 22 c 2,21,-1
 187 21 l 1,22,-1
 185 19 l 1,23,-1
 182 18 l 1,24,25
 173 8 173 8 164 4 c 1,26,-1
 161 1 l 1,27,-1
 158 -1 l 1,28,-1
 156 -4 l 1,29,-1
 152 -6 l 1,30,-1
 150 -9 l 1,31,-1
 147 -11 l 1,32,-1
 144 -13 l 1,33,-1
 141 -17 l 1,34,-1
 139 -19 l 2,35,36
 135 -23 135 -23 131 -25 c 1,37,38
 124 -34 124 -34 117 -39 c 1,39,-1
 115 -43 l 1,40,-1
 102 -56 l 1,41,42
 98 -62 98 -62 93 -66 c 1,43,-1
 90 -71 l 1,44,-1
 88 -72 l 1,45,46
 85 -77 85 -77 82 -80 c 2,47,-1
 79 -84 l 1,48,-1
 77 -87 l 1,49,-1
 75 -89 l 1,50,-1
 73 -93 l 1,51,-1
 70 -95 l 1,52,-1
 68 -98 l 1,53,-1
 67 -101 l 1,54,-1
 65 -102 l 1,55,56
 62 -108 62 -108 59 -112 c 2,57,-1
 58 -114 l 1,58,-1
 56 -117 l 1,59,-1
 43 -136 l 1,60,-1
 42 -139 l 1,61,-1
 40 -142 l 2,62,63
 35 -150 35 -150 32 -156 c 2,64,-1
 30 -159 l 1,65,-1
 28 -161 l 1,66,-1
 27 -165 l 1,67,-1
 25 -168 l 2,68,69
 22 -174 22 -174 20 -178 c 1,70,-1
 18 -179 l 1,71,-1
 17 -181 l 2,72,73
 14 -189 14 -189 12 -193 c 1,74,75
 12 -201 12 -201 14 -206 c 1,76,77
 32 -204 32 -204 45 -193 c 1,78,-1
 46 -191 l 1,79,-1
 49 -189 l 1,80,-1
 65 -175 l 1,81,-1
 69 -172 l 1,82,-1
 72 -169 l 1,83,-1
 75 -166 l 1,84,-1
 79 -164 l 1,85,-1
 82 -161 l 1,86,-1
 85 -158 l 1,87,-1
 87 -156 l 1,88,-1
 90 -155 l 1,89,-1
 92 -152 l 1,90,-1
 94 -151 l 1,91,-1
 96 -149 l 1,92,-1
 98 -147 l 1,93,-1
 101 -146 l 1,94,95
 112 -134 112 -134 122 -129 c 1,96,97
 124 -126 124 -126 126 -125 c 2,98,-1
 130 -122 l 1,99,-1
 133 -119 l 1,100,-1
 137 -117 l 1,101,102
 141 -112 141 -112 146 -110 c 1,103,-1
 149 -107 l 1,104,-1
 151 -105 l 1,105,-1
 155 -103 l 1,106,107
 156 -101 156 -101 158 -101 c 1,108,109
 161 -98 161 -98 164 -96 c 0,110,111
 165 -95 165 -95 166 -95 c 2,112,-1
 167 -93 l 1,113,-1
 169 -92 l 1,114,-1
 175 -88 l 1,115,116
 181 -81 181 -81 187 -79 c 1,117,-1
 190 -76 l 1,118,-1
 194 -74 l 1,119,-1
 197 -71 l 1,120,-1
 200 -68 l 1,121,-1
 204 -65 l 1,122,-1
 207 -63 l 2,123,124
 213 -59 213 -59 217 -57 c 1,125,126
 218 -55 218 -55 220 -55 c 1,127,-1
 222 -52 l 1,128,-1
 224 -51 l 2,129,130
 229 -48 229 -48 232 -45 c 1,131,-1
 235 -44 l 1,132,133
 236 -42 236 -42 237 -42 c 2,134,-1
 239 -40 l 1,135,-1
 260 -27 l 1,136,-1
 263 -24 l 1,137,138
 272 -17 272 -17 279 -14 c 1,139,140
 286 -7 286 -7 293 -5 c 1,141,142
 296 -2 296 -2 299 0 c 2,143,-1
 302 2 l 1,144,-1
 305 3 l 1,145,146
 311 9 311 9 321 13 c 1,147,-1
 324 16 l 1,148,-1
 328 18 l 1,149,-1
 332 20 l 1,150,151
 333 22 333 22 335 22 c 1,152,-1
 338 25 l 1,153,-1
 342 26 l 1,154,155
 343 28 343 28 344 28 c 2,156,-1
 346 30 l 1,157,-1
 349 31 l 1,158,-1
 351 33 l 1,159,-1
 353 34 l 1,160,-1
 360 37 l 1,161,162
 366 43 366 43 373 45 c 1,163,-1
 377 48 l 1,164,-1
 382 50 l 1,165,-1
 386 53 l 2,166,167
 394 58 394 58 400 60 c 1,168,-1
 402 62 l 1,169,170
 408 65 408 65 412 68 c 1,171,-1
 415 69 l 1,172,-1
 418 70 l 1,173,174
 428 77 428 77 437 80 c 1,175,-1
 441 83 l 1,176,-1
 443 84 l 1,177,-1
 450 87 l 1,178,179
 457 92 457 92 464 94 c 1,180,181
 471 99 471 99 477 100 c 1,182,-1
 480 102 l 1,183,-1
 483 104 l 1,184,-1
 488 106 l 1,185,-1
 491 108 l 1,186,-1
 495 109 l 1,187,-1
 506 115 l 1,188,-1
 510 116 l 1,189,-1
 513 118 l 1,190,-1
 517 119 l 2,191,192
 519 120 519 120 520 120 c 2,193,-1
 522 122 l 1,194,-1
 545 131 l 1,195,-1
 546 133 l 2,196,197
 550 140 550 140 554 144 c 2,198,-1
 557 148 l 2,199,200
 562 156 562 156 566 161 c 2,201,-1
 570 167 l 1,202,-1
 572 169 l 1,203,-1
 573 172 l 1,204,-1
 575 174 l 1,205,-1
 579 179 l 1,206,207
 583 187 583 187 587 192 c 0,208,209
 589 196 589 196 592 199 c 1,210,-1
 593 202 l 1,211,-1
 595 205 l 2,212,213
 596 207 596 207 597 207 c 0,214,215
 599 214 599 214 603 218 c 1,216,-1
 606 224 l 1,217,-1
 607 226 l 1,218,-1
 609 227 l 1,219,220
 612 237 612 237 618 243 c 1,221,-1
 619 247 l 1,222,-1
 621 249 l 1,223,-1
 622 252 l 1,224,-1
 624 255 l 1,225,-1
 625 258 l 1,226,-1
 629 264 l 1,227,-1
 630 267 l 1,228,-1
 639 283 l 1,229,230
 638 284 638 284 636 284 c 0,231,232
 623 278 623 278 613 276 c 1,233,-1
 609 274 l 1,234,-1
 603 272 l 2,235,236
 600 270 600 270 598 270 c 2,237,-1
 594 268 l 1,238,-1
 591 266 l 1,239,-1
 588 265 l 1,240,-1
 586 264 l 1,241,-1
 580 262 l 1,242,-1
 577 261 l 2,243,244
 575 260 575 260 574 260 c 0,245,246
 569 256 569 256 565 256 c 1,247,248
 555 249 555 249 546 247 c 1,249,-1
 541 244 l 1,250,-1
 536 242 l 1,251,-1
 531 239 l 1,252,-1
 525 237 l 1,253,254
 521 234 521 234 517 233 c 1,255,256
 514 231 514 231 510 230 c 1,257,-1
 508 228 l 1,258,-1
 486 217 l 1,259,-1
 484 216 l 1,260,-1
 481 215 l 1,261,262
 475 210 475 210 470 208 c 2,263,-1
 465 206 l 1,264,-1
 463 204 l 1,265,-1
 461 203 l 1,266,-1
 454 200 l 2,267,268
 453 199 453 199 452 199 c 0,269,270
 451 198 451 198 450 198 c 0,271,272
 446 194 446 194 441 192 c 2,273,-1
 436 189 l 1,274,-1
 423 183 l 1,275,276
 422 181 422 181 421 181 c 2,277,-1
 414 177 l 1,278,-1
 412 176 l 2,279,280
 407 173 407 173 404 171 c 2,281,-1
 401 169 l 1,282,-1
 398 168 l 1,283,-1
 395 166 l 1,284,-1
 366 148 l 1,285,286
 357 151 357 151 350 155 c 2,287,-1
 348 156 l 1,288,-1
 343 160 l 1,289,-1
 340 162 l 1,290,291
 334 164 334 164 330 167 c 0,292,293
 321 172 321 172 315 177 c 1,294,-1
 312 178 l 1,295,-1
 310 180 l 1,296,-1
 307 181 l 1,297,-1
 304 183 l 1,298,-1
 299 187 l 1,299,300
 290 191 290 191 285 197 c 1,301,302
 275 202 275 202 270 208 c 1,303,304
 261 213 261 213 256 219 c 1,305,306
 244 226 244 226 237 235 c 1,307,-1
 234 237 l 1,308,-1
 231 239 l 1,309,-1
 229 242 l 1,310,311
 224 245 224 245 221 248 c 2,312,-1
 218 251 l 1,313,-1
 212 258 l 1,314,315
 198 270 198 270 191 280 c 1,316,-1
 189 282 l 2,317,318
 186 286 186 286 184 289 c 2,319,-1
 179 294 l 1,320,-1
 177 296 l 1,321,-1
 173 303 l 1,322,323
 163 313 163 313 159 323 c 1,324,-1
 164 325 l 1,325,326
 168 328 168 328 172 329 c 1,327,328
 181 337 181 337 190 339 c 1,329,-1
 191 341 l 1,330,-1
 194 342 l 1,331,-1
 201 345 l 1,332,333
 206 349 206 349 211 350 c 1,334,335
 306 401 306 401 401 397 c 1,336,-1
 404 396 l 1,337,-1
 408 396 l 1,338,-1
 410 395 l 1,339,340
 423 394 423 394 431 392 c 0,341,342
 437 390 437 390 442 389 c 1,343,-1
 444 388 l 1,344,345
 457 384 457 384 465 380 c 1,346,347
 503 501 503 501 391 533 c 1,348,-1
 387 533 l 1,349,-1
 384 534 l 1,350,351
 378 534 378 534 374 535 c 1,352,-1
 371 535 l 1,353,-1
 366 535 l 1,354,-1
 363 535 l 1,355,-1
 359 535 l 1,356,-1
 356 535 l 1,357,-1
 336 535 l 1,358,0
 181 506 181 506 132 369 c 1,1,-1
EndSplineSet
Substitution2: "'isol' Isolated Forms in Arabic lookup 0 subtable" hamzaisolated
EndChar

StartChar: alefwithmaddaabove
Encoding: 158 1570 8
Width: 319
Flags: W
LayerCount: 2
Fore
SplineSet
415 1846 m 1,0,1
 330 1753 330 1753 204 1753 c 0,2,3
 171 1753 171 1753 106.5 1771 c 128,-1,4
 42 1789 42 1789 8 1789 c 0,5,6
 -22 1789 -22 1789 -62 1768 c 1,7,-1
 -76 1779 l 1,8,9
 -22 1871 -22 1871 31 1871 c 0,10,11
 73 1871 73 1871 155 1849 c 128,-1,12
 237 1827 237 1827 279 1827 c 0,13,14
 322 1827 322 1827 403 1858 c 1,15,-1
 415 1846 l 1,0,1
140 1418 m 1,16,-1
 138 1416 l 1,17,-1
 128 1402 l 1,18,-1
 124 1397 l 1,19,-1
 122 1395 l 2,20,21
 121 1393 121 1393 120 1393 c 2,22,-1
 119 1390 l 1,23,-1
 117 1387 l 1,24,-1
 115 1386 l 1,25,-1
 114 1383 l 1,26,27
 107 1376 107 1376 104 1370 c 1,28,-1
 100 1366 l 1,29,-1
 97 1361 l 1,30,-1
 94 1357 l 1,31,-1
 91 1353 l 1,32,-1
 88 1349 l 1,33,-1
 85 1346 l 1,34,35
 82 1339 82 1339 78 1336 c 1,36,-1
 76 1332 l 1,37,-1
 68 1323 l 1,38,-1
 66 1319 l 1,39,-1
 64 1316 l 1,40,-1
 61 1314 l 1,41,42
 58 1308 58 1308 55 1304 c 2,43,-1
 50 1299 l 1,44,-1
 49 1296 l 1,45,-1
 47 1295 l 1,46,-1
 46 1292 l 1,47,48
 37 1283 37 1283 33 1273 c 1,49,-1
 36 1231 l 1,50,51
 38 1223 38 1223 37 1218 c 1,52,53
 38 1216 38 1216 38 1215 c 0,54,55
 38 1204 38 1204 40 1196 c 1,56,-1
 40 1189 l 1,57,58
 43 1176 43 1176 42 1167 c 1,59,60
 43 1163 43 1163 43 1160 c 2,61,-1
 46 1127 l 1,62,-1
 47 1123 l 1,63,-1
 47 1118 l 1,64,65
 49 1112 49 1112 48 1107 c 1,66,67
 49 1106 49 1106 49 1104 c 0,68,69
 49 1093 49 1093 51 1085 c 1,70,71
 51 1080 51 1080 52 1077 c 2,72,-1
 53 1058 l 1,73,-1
 54 1056 l 1,74,-1
 55 1038 l 1,75,-1
 56 1031 l 1,76,-1
 57 1019 l 1,77,-1
 58 1015 l 1,78,-1
 58 1007 l 1,79,80
 61 996 61 996 60 988 c 1,81,-1
 61 985 l 1,82,-1
 61 977 l 1,83,84
 64 966 64 966 63 958 c 1,85,-1
 66 933 l 1,86,-1
 66 928 l 1,87,-1
 67 926 l 1,88,-1
 67 920 l 1,89,-1
 72 870 l 2,90,91
 73 862 73 862 73 856 c 1,92,93
 74 852 74 852 74 848 c 1,94,-1
 75 846 l 1,95,-1
 75 843 l 1,96,-1
 79 803 l 1,97,-1
 82 770 l 1,98,-1
 83 763 l 1,99,-1
 83 760 l 2,100,101
 83 749 83 749 85 741 c 1,102,-1
 86 725 l 2,103,104
 87 719 87 719 87 711 c 1,105,-1
 88 709 l 1,106,-1
 88 699 l 1,107,108
 89 698 89 698 89 697 c 2,109,-1
 90 682 l 1,110,-1
 94 643 l 1,111,-1
 94 637 l 1,112,-1
 95 626 l 1,113,-1
 96 622 l 1,114,-1
 96 615 l 1,115,-1
 97 610 l 1,116,-1
 98 599 l 2,117,118
 98 591 98 591 99 585 c 2,119,-1
 100 576 l 1,120,-1
 100 567 l 1,121,-1
 101 563 l 1,122,-1
 101 556 l 1,123,-1
 102 554 l 1,124,-1
 103 531 l 1,125,-1
 104 528 l 1,126,-1
 105 508 l 1,127,-1
 106 505 l 1,128,129
 106 499 106 499 107 494 c 2,130,-1
 109 458 l 1,131,132
 111 444 111 444 111 435 c 2,133,-1
 116 366 l 2,134,135
 117 355 117 355 117 348 c 2,136,-1
 121 284 l 2,137,138
 122 282 122 282 122 281 c 2,139,-1
 124 243 l 2,140,141
 124 237 124 237 125 232 c 1,142,-1
 125 217 l 1,143,144
 127 205 127 205 126 197 c 1,145,-1
 127 195 l 1,146,-1
 127 192 l 1,147,148
 126 181 126 181 128 174 c 1,149,-1
 128 168 l 2,150,151
 128 159 128 159 129 152 c 1,152,-1
 129 132 l 1,153,154
 130 128 130 128 130 125 c 2,155,-1
 131 83 l 1,156,157
 133 69 133 69 132 60 c 1,158,-1
 132 54 l 1,159,160
 133 48 133 48 133 43 c 2,161,-1
 133 18 l 1,162,163
 135 4 135 4 134 -5 c 1,164,165
 141 -2 141 -2 144 3 c 1,166,-1
 145 6 l 1,167,-1
 148 9 l 1,168,-1
 149 12 l 1,169,-1
 152 14 l 1,170,-1
 153 17 l 1,171,-1
 155 19 l 1,172,173
 161 30 161 30 166 36 c 1,174,-1
 167 40 l 1,175,-1
 170 43 l 1,176,-1
 171 45 l 2,177,178
 177 58 177 58 182 66 c 1,179,180
 185 77 185 77 190 84 c 1,181,182
 190 87 190 87 191 88 c 2,183,-1
 193 92 l 1,184,185
 197 106 197 106 201 114 c 1,186,187
 201 117 201 117 202 118 c 0,188,189
 204 125 204 125 206 130 c 1,190,191
 206 133 206 133 207 134 c 2,192,-1
 208 139 l 1,193,-1
 209 144 l 1,194,-1
 210 147 l 1,195,-1
 211 150 l 1,196,-1
 212 153 l 1,197,-1
 212 156 l 1,198,-1
 214 161 l 1,199,-1
 215 169 l 1,200,-1
 219 185 l 1,201,-1
 223 216 l 1,202,-1
 224 219 l 1,203,-1
 226 239 l 1,204,-1
 226 246 l 1,205,206
 228 252 228 252 227 256 c 1,207,-1
 228 261 l 1,208,209
 228 269 228 269 229 275 c 1,210,-1
 229 280 l 1,211,-1
 229 284 l 1,212,-1
 229 302 l 1,213,-1
 229 306 l 1,214,-1
 229 310 l 1,215,-1
 229 314 l 1,216,-1
 229 331 l 1,217,-1
 229 334 l 1,218,-1
 229 346 l 2,219,220
 229 354 229 354 228 359 c 1,221,-1
 228 363 l 1,222,-1
 228 370 l 1,223,224
 227 373 227 373 227 376 c 2,225,-1
 227 380 l 1,226,-1
 225 403 l 1,227,-1
 224 414 l 1,228,-1
 223 425 l 1,229,-1
 223 430 l 1,230,-1
 223 433 l 1,231,232
 222 437 222 437 222 441 c 2,233,-1
 220 461 l 1,234,-1
 218 486 l 1,235,-1
 217 505 l 1,236,-1
 215 522 l 1,237,-1
 215 527 l 1,238,-1
 215 530 l 1,239,-1
 215 534 l 1,240,241
 214 538 214 538 214 541 c 0,242,243
 213 552 213 552 213 559 c 1,244,245
 212 560 212 560 212 561 c 2,246,-1
 211 579 l 1,247,-1
 211 582 l 1,248,249
 209 590 209 590 210 595 c 1,250,-1
 209 602 l 1,251,252
 209 613 209 613 207 621 c 1,253,-1
 207 628 l 1,254,-1
 206 634 l 1,255,-1
 206 645 l 1,256,-1
 204 662 l 1,257,-1
 204 666 l 1,258,-1
 204 670 l 1,259,-1
 203 674 l 1,260,-1
 203 677 l 1,261,-1
 201 699 l 1,262,-1
 201 707 l 1,263,-1
 200 711 l 1,264,-1
 200 714 l 1,265,-1
 200 718 l 1,266,-1
 199 723 l 1,267,-1
 199 727 l 1,268,-1
 199 732 l 1,269,-1
 198 736 l 1,270,-1
 198 740 l 1,271,-1
 196 762 l 1,272,-1
 196 770 l 1,273,-1
 195 778 l 2,274,275
 195 783 195 783 194 786 c 1,276,-1
 194 789 l 1,277,-1
 194 796 l 1,278,-1
 193 802 l 1,279,-1
 193 809 l 1,280,281
 191 820 191 820 191 827 c 0,282,283
 191 832 191 832 190 835 c 1,284,-1
 190 839 l 2,285,286
 190 845 190 845 189 850 c 1,287,-1
 189 854 l 1,288,-1
 189 857 l 1,289,-1
 188 860 l 1,290,-1
 188 863 l 1,291,-1
 188 867 l 1,292,-1
 186 892 l 2,293,294
 186 897 186 897 185 900 c 1,295,-1
 185 908 l 1,296,-1
 184 916 l 2,297,298
 184 921 184 921 183 924 c 1,299,-1
 183 929 l 1,300,-1
 182 935 l 1,301,-1
 182 948 l 1,302,-1
 181 952 l 1,303,-1
 181 957 l 1,304,-1
 179 974 l 2,305,306
 179 980 179 980 178 985 c 1,307,-1
 178 990 l 1,308,-1
 176 1021 l 1,309,-1
 175 1026 l 1,310,-1
 175 1029 l 1,311,-1
 175 1035 l 1,312,-1
 174 1038 l 1,313,314
 174 1044 174 1044 173 1049 c 1,315,-1
 173 1052 l 1,316,-1
 172 1072 l 1,317,318
 170 1086 170 1086 170 1094 c 2,319,-1
 170 1098 l 1,320,-1
 169 1102 l 1,321,-1
 169 1107 l 1,322,323
 168 1113 168 1113 168 1117 c 2,324,-1
 168 1121 l 1,325,-1
 166 1138 l 1,326,-1
 166 1143 l 1,327,-1
 166 1148 l 1,328,-1
 164 1162 l 1,329,-1
 164 1169 l 1,330,-1
 164 1173 l 1,331,-1
 163 1177 l 1,332,-1
 163 1180 l 1,333,-1
 163 1184 l 1,334,335
 161 1200 161 1200 161 1209 c 1,336,-1
 160 1213 l 1,337,-1
 160 1224 l 1,338,339
 157 1237 157 1237 158 1246 c 1,340,-1
 158 1249 l 1,341,342
 157 1250 157 1250 157 1252 c 2,343,-1
 157 1255 l 1,344,-1
 155 1275 l 1,345,-1
 154 1292 l 1,346,-1
 154 1296 l 1,347,-1
 152 1313 l 2,348,349
 152 1321 152 1321 151 1326 c 1,350,-1
 151 1334 l 1,351,-1
 150 1339 l 1,352,-1
 150 1343 l 1,353,-1
 149 1360 l 1,354,-1
 148 1364 l 1,355,-1
 148 1374 l 1,356,-1
 147 1377 l 1,357,358
 147 1383 147 1383 146 1388 c 1,359,-1
 146 1392 l 1,360,-1
 146 1399 l 1,361,362
 144 1410 144 1410 144 1417 c 1,363,364
 143 1420 143 1420 141 1420 c 1,365,-1
 140 1418 l 1,16,-1
EndSplineSet
Substitution2: "'fina' Terminal Forms in Arabic lookup 3 subtable" alefwithmaddaabovefinal
Substitution2: "'isol' Isolated Forms in Arabic lookup 0 subtable" alefwithmaddaaboveisolated
EndChar

StartChar: alefwithhamzaabove
Encoding: 159 1571 9
Width: 354
Flags: W
LayerCount: 2
Fore
SplineSet
155 1418 m 1,0,-1
 153 1416 l 1,1,-1
 143 1402 l 1,2,-1
 139 1397 l 1,3,-1
 137 1395 l 2,4,5
 136 1393 136 1393 135 1393 c 2,6,-1
 134 1390 l 1,7,-1
 132 1387 l 1,8,-1
 130 1386 l 1,9,-1
 129 1383 l 1,10,11
 122 1376 122 1376 119 1370 c 1,12,-1
 115 1366 l 1,13,-1
 112 1361 l 1,14,-1
 109 1357 l 1,15,-1
 106 1353 l 1,16,-1
 103 1349 l 1,17,-1
 100 1346 l 1,18,19
 97 1339 97 1339 93 1336 c 1,20,-1
 91 1332 l 1,21,-1
 83 1323 l 1,22,-1
 81 1319 l 1,23,-1
 79 1316 l 1,24,-1
 76 1314 l 1,25,26
 73 1308 73 1308 70 1304 c 2,27,-1
 65 1299 l 1,28,-1
 64 1296 l 1,29,-1
 62 1295 l 1,30,-1
 61 1292 l 1,31,32
 52 1283 52 1283 48 1273 c 1,33,-1
 51 1231 l 1,34,35
 53 1223 53 1223 52 1218 c 1,36,37
 53 1216 53 1216 53 1215 c 0,38,39
 53 1204 53 1204 55 1196 c 1,40,-1
 55 1189 l 1,41,42
 58 1176 58 1176 57 1167 c 1,43,44
 58 1163 58 1163 58 1160 c 2,45,-1
 61 1127 l 1,46,-1
 62 1123 l 1,47,-1
 62 1118 l 1,48,49
 64 1112 64 1112 63 1107 c 1,50,51
 64 1106 64 1106 64 1104 c 0,52,53
 64 1093 64 1093 66 1085 c 1,54,55
 66 1080 66 1080 67 1077 c 2,56,-1
 68 1058 l 1,57,-1
 69 1056 l 1,58,-1
 70 1038 l 1,59,-1
 71 1031 l 1,60,-1
 72 1019 l 1,61,-1
 73 1015 l 1,62,-1
 73 1007 l 1,63,64
 76 996 76 996 75 988 c 1,65,-1
 76 985 l 1,66,-1
 76 977 l 1,67,68
 79 966 79 966 78 958 c 1,69,-1
 81 933 l 1,70,-1
 81 928 l 1,71,-1
 82 926 l 1,72,-1
 82 920 l 1,73,-1
 87 870 l 2,74,75
 88 862 88 862 88 856 c 1,76,77
 89 852 89 852 89 848 c 1,78,-1
 90 846 l 1,79,-1
 90 843 l 1,80,-1
 94 803 l 1,81,-1
 97 770 l 1,82,-1
 98 763 l 1,83,-1
 98 760 l 2,84,85
 98 749 98 749 100 741 c 1,86,-1
 101 725 l 2,87,88
 102 719 102 719 102 711 c 1,89,-1
 103 709 l 1,90,-1
 103 699 l 1,91,92
 104 698 104 698 104 697 c 2,93,-1
 105 682 l 1,94,-1
 109 643 l 1,95,-1
 109 637 l 1,96,-1
 110 626 l 1,97,-1
 111 622 l 1,98,-1
 111 615 l 1,99,-1
 112 610 l 1,100,-1
 113 599 l 2,101,102
 113 591 113 591 114 585 c 2,103,-1
 115 576 l 1,104,-1
 115 567 l 1,105,-1
 116 563 l 1,106,-1
 116 556 l 1,107,-1
 117 554 l 1,108,-1
 118 531 l 1,109,-1
 119 528 l 1,110,-1
 120 508 l 1,111,-1
 121 505 l 1,112,113
 121 499 121 499 122 494 c 2,114,-1
 124 458 l 1,115,116
 126 444 126 444 126 435 c 2,117,-1
 131 366 l 2,118,119
 132 355 132 355 132 348 c 2,120,-1
 136 284 l 2,121,122
 137 282 137 282 137 281 c 2,123,-1
 139 243 l 2,124,125
 139 237 139 237 140 232 c 1,126,-1
 140 217 l 1,127,128
 142 205 142 205 141 197 c 1,129,-1
 142 195 l 1,130,-1
 142 192 l 1,131,132
 141 181 141 181 143 174 c 1,133,-1
 143 168 l 2,134,135
 143 159 143 159 144 152 c 1,136,-1
 144 132 l 1,137,138
 145 128 145 128 145 125 c 2,139,-1
 146 83 l 1,140,141
 148 69 148 69 147 60 c 1,142,-1
 147 54 l 1,143,144
 148 48 148 48 148 43 c 2,145,-1
 148 18 l 1,146,147
 150 4 150 4 149 -5 c 1,148,149
 156 -2 156 -2 159 3 c 1,150,-1
 160 6 l 1,151,-1
 163 9 l 1,152,-1
 164 12 l 1,153,-1
 167 14 l 1,154,-1
 168 17 l 1,155,-1
 170 19 l 1,156,157
 176 30 176 30 181 36 c 1,158,-1
 182 40 l 1,159,-1
 185 43 l 1,160,-1
 186 45 l 2,161,162
 192 58 192 58 197 66 c 1,163,164
 200 77 200 77 205 84 c 1,165,166
 205 87 205 87 206 88 c 2,167,-1
 208 92 l 1,168,169
 212 106 212 106 216 114 c 1,170,171
 216 117 216 117 217 118 c 0,172,173
 219 125 219 125 221 130 c 1,174,175
 221 133 221 133 222 134 c 2,176,-1
 223 139 l 1,177,-1
 224 144 l 1,178,-1
 225 147 l 1,179,-1
 226 150 l 1,180,-1
 227 153 l 1,181,-1
 227 156 l 1,182,-1
 229 161 l 1,183,-1
 230 169 l 1,184,-1
 234 185 l 1,185,-1
 238 216 l 1,186,-1
 239 219 l 1,187,-1
 241 239 l 1,188,-1
 241 246 l 1,189,190
 243 252 243 252 242 256 c 1,191,-1
 243 261 l 1,192,193
 243 269 243 269 244 275 c 1,194,-1
 244 280 l 1,195,-1
 244 284 l 1,196,-1
 244 302 l 1,197,-1
 244 306 l 1,198,-1
 244 310 l 1,199,-1
 244 314 l 1,200,-1
 244 331 l 1,201,-1
 244 334 l 1,202,-1
 244 346 l 2,203,204
 244 354 244 354 243 359 c 1,205,-1
 243 363 l 1,206,-1
 243 370 l 1,207,208
 242 373 242 373 242 376 c 2,209,-1
 242 380 l 1,210,-1
 240 403 l 1,211,-1
 239 414 l 1,212,-1
 238 425 l 1,213,-1
 238 430 l 1,214,-1
 238 433 l 1,215,216
 237 437 237 437 237 441 c 2,217,-1
 235 461 l 1,218,-1
 233 486 l 1,219,-1
 232 505 l 1,220,-1
 230 522 l 1,221,-1
 230 527 l 1,222,-1
 230 530 l 1,223,-1
 230 534 l 1,224,225
 229 538 229 538 229 541 c 0,226,227
 228 552 228 552 228 559 c 1,228,229
 227 560 227 560 227 561 c 2,230,-1
 226 579 l 1,231,-1
 226 582 l 1,232,233
 224 590 224 590 225 595 c 1,234,-1
 224 602 l 1,235,236
 224 613 224 613 222 621 c 1,237,-1
 222 628 l 1,238,-1
 221 634 l 1,239,-1
 221 645 l 1,240,-1
 219 662 l 1,241,-1
 219 666 l 1,242,-1
 219 670 l 1,243,-1
 218 674 l 1,244,-1
 218 677 l 1,245,-1
 216 699 l 1,246,-1
 216 707 l 1,247,-1
 215 711 l 1,248,-1
 215 714 l 1,249,-1
 215 718 l 1,250,-1
 214 723 l 1,251,-1
 214 727 l 1,252,-1
 214 732 l 1,253,-1
 213 736 l 1,254,-1
 213 740 l 1,255,-1
 211 762 l 1,256,-1
 211 770 l 1,257,-1
 210 778 l 2,258,259
 210 783 210 783 209 786 c 1,260,-1
 209 789 l 1,261,-1
 209 796 l 1,262,-1
 208 802 l 1,263,-1
 208 809 l 1,264,265
 206 820 206 820 206 827 c 0,266,267
 206 832 206 832 205 835 c 1,268,-1
 205 839 l 2,269,270
 205 845 205 845 204 850 c 1,271,-1
 204 854 l 1,272,-1
 204 857 l 1,273,-1
 203 860 l 1,274,-1
 203 863 l 1,275,-1
 203 867 l 1,276,-1
 201 892 l 2,277,278
 201 897 201 897 200 900 c 1,279,-1
 200 908 l 1,280,-1
 199 916 l 2,281,282
 199 921 199 921 198 924 c 1,283,-1
 198 929 l 1,284,-1
 197 935 l 1,285,-1
 197 948 l 1,286,-1
 196 952 l 1,287,-1
 196 957 l 1,288,-1
 194 974 l 2,289,290
 194 980 194 980 193 985 c 1,291,-1
 193 990 l 1,292,-1
 191 1021 l 1,293,-1
 190 1026 l 1,294,-1
 190 1029 l 1,295,-1
 190 1035 l 1,296,-1
 189 1038 l 1,297,298
 189 1044 189 1044 188 1049 c 1,299,-1
 188 1052 l 1,300,-1
 187 1072 l 1,301,302
 185 1086 185 1086 185 1094 c 2,303,-1
 185 1098 l 1,304,-1
 184 1102 l 1,305,-1
 184 1107 l 1,306,307
 183 1113 183 1113 183 1117 c 2,308,-1
 183 1121 l 1,309,-1
 181 1138 l 1,310,-1
 181 1143 l 1,311,-1
 181 1148 l 1,312,-1
 179 1162 l 1,313,-1
 179 1169 l 1,314,-1
 179 1173 l 1,315,-1
 178 1177 l 1,316,-1
 178 1180 l 1,317,-1
 178 1184 l 1,318,319
 176 1200 176 1200 176 1209 c 1,320,-1
 175 1213 l 1,321,-1
 175 1224 l 1,322,323
 172 1237 172 1237 173 1246 c 1,324,-1
 173 1249 l 1,325,326
 172 1250 172 1250 172 1252 c 2,327,-1
 172 1255 l 1,328,-1
 170 1275 l 1,329,-1
 169 1292 l 1,330,-1
 169 1296 l 1,331,-1
 167 1313 l 2,332,333
 167 1321 167 1321 166 1326 c 1,334,-1
 166 1334 l 1,335,-1
 165 1339 l 1,336,-1
 165 1343 l 1,337,-1
 164 1360 l 1,338,-1
 163 1364 l 1,339,-1
 163 1374 l 1,340,-1
 162 1377 l 1,341,342
 162 1383 162 1383 161 1388 c 1,343,-1
 161 1392 l 1,344,-1
 161 1399 l 1,345,346
 159 1410 159 1410 159 1417 c 1,347,348
 158 1420 158 1420 156 1420 c 1,349,-1
 155 1418 l 1,0,-1
78 1887 m 1,351,352
 43 1803 43 1803 119 1758 c 1,353,354
 113 1754 113 1754 91.5 1738 c 128,-1,355
 70 1722 70 1722 53 1702 c 128,-1,356
 36 1682 36 1682 34 1663 c 1,357,-1
 34 1652 l 1,358,359
 42 1654 42 1654 74 1677 c 128,-1,360
 106 1700 106 1700 134 1717 c 128,-1,361
 162 1734 162 1734 208.5 1765 c 128,-1,362
 255 1796 255 1796 266 1798 c 1,363,-1
 268 1803 l 1,364,-1
 307 1864 l 1,365,366
 308 1877 308 1877 256 1848 c 128,-1,367
 204 1819 204 1819 188 1807 c 1,368,-1
 185 1808 l 1,369,-1
 183 1809 l 2,370,371
 154 1824 154 1824 138.5 1836.5 c 128,-1,372
 123 1849 123 1849 113.5 1861 c 128,-1,373
 104 1873 104 1873 99 1880 c 1,374,375
 163 1927 163 1927 231 1907 c 1,376,377
 246 1956 246 1956 202 1974 c 1,378,-1
 197 1974 l 1,379,380
 181 1976 181 1976 170 1975 c 1,381,350
 98 1955 98 1955 78 1887 c 1,351,352
EndSplineSet
Substitution2: "'fina' Terminal Forms in Arabic lookup 3 subtable" alefwithhamzaabovefinal
Substitution2: "'isol' Isolated Forms in Arabic lookup 0 subtable" alefwithhamzaaboveisolated
EndChar

StartChar: wawwithhamzaabove
Encoding: 160 1572 10
Width: 641
Flags: W
AnchorPoint: "abovesingle" 276 1616.63 basechar 0
AnchorPoint: "belowsingle" 308 -591.367 basechar 0
LayerCount: 2
Fore
SplineSet
424 554 m 1,0,-1
 421 554 l 1,1,-1
 412 550 l 1,2,-1
 409 549 l 1,3,4
 405 546 405 546 401 544 c 0,5,6
 394 539 394 539 389 537 c 1,7,-1
 388 535 l 1,8,-1
 382 531 l 1,9,-1
 381 529 l 1,10,-1
 375 525 l 1,11,-1
 374 523 l 1,12,-1
 372 522 l 1,13,14
 367 515 367 515 362 512 c 1,15,-1
 360 508 l 1,16,-1
 358 507 l 1,17,18
 352 498 352 498 346 493 c 1,19,-1
 344 489 l 1,20,-1
 341 486 l 1,21,-1
 340 483 l 1,22,23
 336 479 336 479 335 476 c 1,24,-1
 332 473 l 1,25,-1
 329 468 l 1,26,-1
 327 465 l 2,27,28
 323 458 323 458 320 455 c 1,29,-1
 319 452 l 1,30,-1
 317 450 l 1,31,-1
 316 447 l 1,32,-1
 314 444 l 1,33,34
 308 433 308 433 303 427 c 1,35,36
 302 422 302 422 300 419 c 2,37,-1
 299 417 l 1,38,-1
 290 392 l 1,39,-1
 287 384 l 1,40,-1
 282 370 l 1,41,-1
 281 367 l 1,42,-1
 280 364 l 1,43,-1
 280 361 l 1,44,-1
 278 354 l 1,45,-1
 277 352 l 1,46,-1
 275 346 l 1,47,48
 274 339 274 339 272 334 c 1,49,-1
 272 330 l 1,50,51
 270 324 270 324 270 320 c 1,52,-1
 269 318 l 1,53,-1
 267 301 l 2,54,55
 266 292 266 292 266 285 c 0,56,57
 266 253 266 253 277 228 c 1,58,59
 283 222 283 222 285 216 c 1,60,-1
 289 213 l 1,61,-1
 294 207 l 1,62,63
 302 201 302 201 306 197 c 1,64,65
 312 195 312 195 315 192 c 1,66,-1
 319 191 l 1,67,-1
 321 189 l 1,68,-1
 326 188 l 1,69,70
 340 182 340 182 348 180 c 1,71,-1
 351 180 l 1,72,-1
 355 179 l 1,73,-1
 358 179 l 1,74,-1
 362 178 l 1,75,-1
 380 175 l 1,76,-1
 384 175 l 1,77,-1
 394 175 l 1,78,79
 399 173 399 173 403 174 c 1,80,-1
 408 174 l 1,81,-1
 413 174 l 1,82,-1
 427 174 l 1,83,-1
 434 174 l 1,84,85
 444 176 444 176 451 175 c 1,86,87
 461 177 461 177 468 177 c 2,88,-1
 485 179 l 1,89,-1
 489 179 l 1,90,-1
 492 179 l 1,91,92
 493 180 493 180 495 180 c 2,93,-1
 498 180 l 1,94,-1
 500 181 l 1,95,-1
 518 183 l 1,96,97
 519 175 519 175 519 169 c 2,98,-1
 520 163 l 1,99,-1
 520 131 l 1,100,-1
 519 115 l 1,101,-1
 518 102 l 1,102,-1
 517 99 l 1,103,-1
 516 88 l 1,104,-1
 515 84 l 1,105,-1
 514 77 l 1,106,-1
 513 75 l 1,107,-1
 510 59 l 1,108,109
 284 -208 284 -208 -50 -189 c 1,110,-1
 -53 -189 l 1,111,-1
 -71 -189 l 1,112,-1
 -76 -188 l 1,113,-1
 -80 -188 l 1,114,-1
 -83 -188 l 1,115,-1
 -87 -188 l 1,116,117
 -97 -187 -97 -187 -104 -187 c 1,118,-1
 -106 -186 l 1,119,-1
 -116 -186 l 1,120,121
 -121 -184 -121 -184 -125 -185 c 1,122,-1
 -131 -184 l 1,123,-1
 -135 -184 l 1,124,-1
 -137 -183 l 1,125,-1
 -140 -183 l 1,126,-1
 -147 -182 l 1,127,-1
 -158 -181 l 1,128,-1
 -175 -179 l 1,129,-1
 -178 -178 l 1,130,-1
 -181 -178 l 1,131,-1
 -183 -177 l 1,132,-1
 -190 -177 l 1,133,-1
 -201 -175 l 1,134,-1
 -207 -174 l 1,135,-1
 -218 -172 l 1,136,-1
 -225 -170 l 1,137,138
 -240 -164 -240 -164 -253 -164 c 1,139,140
 -252 -171 -252 -171 -248 -177 c 1,141,142
 -94 -322 -94 -322 96 -323 c 1,143,-1
 107 -323 l 1,144,-1
 111 -323 l 1,145,-1
 123 -323 l 1,146,-1
 128 -323 l 1,147,-1
 130 -322 l 1,148,-1
 149 -321 l 1,149,-1
 171 -317 l 1,150,-1
 175 -316 l 1,151,-1
 180 -316 l 1,152,153
 181 -315 181 -315 183 -315 c 2,154,-1
 185 -314 l 1,155,-1
 194 -312 l 1,156,-1
 199 -311 l 1,157,-1
 202 -311 l 1,158,159
 210 -308 210 -308 216 -307 c 1,160,161
 224 -304 224 -304 230 -303 c 1,162,163
 379 -247 379 -247 465 -130 c 1,164,-1
 468 -128 l 1,165,-1
 469 -125 l 1,166,-1
 472 -121 l 1,167,-1
 475 -119 l 1,168,-1
 476 -116 l 1,169,170
 481 -111 481 -111 483 -107 c 0,171,172
 491 -95 491 -95 497 -88 c 1,173,-1
 498 -86 l 1,174,-1
 499 -83 l 1,175,-1
 501 -81 l 1,176,177
 503 -77 503 -77 506 -74 c 1,178,179
 508 -67 508 -67 512 -63 c 1,180,181
 514 -58 514 -58 516 -55 c 2,182,-1
 517 -52 l 2,183,184
 519 -47 519 -47 521 -44 c 2,185,-1
 522 -41 l 1,186,-1
 532 -23 l 1,187,-1
 541 -1 l 1,188,-1
 546 8 l 1,189,-1
 547 12 l 1,190,-1
 548 15 l 1,191,-1
 550 19 l 1,192,-1
 552 22 l 1,193,-1
 554 29 l 1,194,-1
 555 32 l 1,195,-1
 567 60 l 1,196,197
 568 67 568 67 571 73 c 1,198,-1
 572 77 l 1,199,-1
 573 80 l 1,200,-1
 575 84 l 1,201,-1
 577 91 l 2,202,203
 580 102 580 102 583 109 c 1,204,-1
 583 112 l 1,205,-1
 585 120 l 2,206,207
 587 126 587 126 588 131 c 2,208,-1
 589 134 l 1,209,-1
 593 151 l 1,210,-1
 594 154 l 1,211,-1
 594 158 l 1,212,-1
 597 169 l 1,213,-1
 597 173 l 1,214,-1
 598 176 l 1,215,-1
 598 179 l 1,216,-1
 599 181 l 1,217,218
 600 192 600 192 602 199 c 1,219,-1
 602 205 l 1,220,-1
 602 208 l 1,221,222
 603 212 603 212 603 216 c 2,223,-1
 605 232 l 1,224,-1
 605 246 l 1,225,-1
 605 250 l 1,226,-1
 605 261 l 1,227,-1
 605 266 l 1,228,-1
 605 270 l 1,229,-1
 605 273 l 1,230,-1
 605 276 l 1,231,-1
 605 293 l 1,232,-1
 605 296 l 1,233,234
 603 303 603 303 604 308 c 1,235,-1
 603 312 l 1,236,-1
 603 316 l 1,237,-1
 602 319 l 1,238,-1
 602 322 l 1,239,-1
 601 325 l 1,240,-1
 601 328 l 1,241,-1
 601 331 l 1,242,243
 598 340 598 340 598 348 c 1,244,-1
 597 352 l 2,245,246
 596 354 596 354 596 355 c 2,247,-1
 589 384 l 1,248,249
 586 390 586 390 585 396 c 0,250,251
 584 398 584 398 584 399 c 0,252,253
 576 417 576 417 573 428 c 1,254,255
 569 434 569 434 567 439 c 2,256,-1
 566 443 l 1,257,-1
 564 447 l 2,258,259
 561 451 561 451 560 455 c 1,260,261
 556 461 556 461 554 466 c 2,262,-1
 552 470 l 1,263,-1
 550 472 l 1,264,-1
 549 475 l 1,265,-1
 547 477 l 1,266,-1
 546 480 l 1,267,-1
 542 487 l 1,268,269
 535 494 535 494 533 501 c 1,270,271
 528 505 528 505 526 510 c 1,272,-1
 524 513 l 1,273,-1
 522 516 l 1,274,-1
 519 518 l 1,275,-1
 517 521 l 1,276,277
 512 524 512 524 510 528 c 1,278,279
 503 533 503 533 499 538 c 1,280,281
 467 560 467 560 432 557 c 1,282,-1
 424 554 l 1,0,-1
170 1191 m 1,284,285
 119 1066 119 1066 231 1000 c 1,286,287
 222 993 222 993 190 970 c 128,-1,288
 158 947 158 947 133 917 c 128,-1,289
 108 887 108 887 105 859 c 1,290,-1
 105 843 l 1,291,292
 117 845 117 845 164 879.5 c 128,-1,293
 211 914 211 914 252.5 939 c 128,-1,294
 294 964 294 964 363 1009.5 c 128,-1,295
 432 1055 432 1055 448 1059 c 1,296,-1
 451 1066 l 1,297,-1
 509 1156 l 1,298,299
 510 1175 510 1175 433 1132.5 c 128,-1,300
 356 1090 356 1090 332 1072 c 1,301,-1
 329 1073 l 1,302,-1
 325 1075 l 2,303,304
 283 1097 283 1097 260 1115.5 c 128,-1,305
 237 1134 237 1134 222.5 1151.5 c 128,-1,306
 208 1169 208 1169 201 1180 c 1,307,308
 295 1249 295 1249 397 1219 c 1,309,310
 419 1292 419 1292 354 1318 c 1,311,-1
 347 1318 l 1,312,313
 322 1322 322 1322 307 1320 c 1,314,283
 200 1290 200 1290 170 1191 c 1,284,285
EndSplineSet
Substitution2: "'fina' Terminal Forms in Arabic lookup 3 subtable" wawwithhamzaabovefinal
Substitution2: "'isol' Isolated Forms in Arabic lookup 0 subtable" wawwithhamzaaboveisolated
EndChar

StartChar: alefwithhamzabelow
Encoding: 161 1573 11
Width: 352
Flags: W
LayerCount: 2
Fore
SplineSet
103 1418 m 1,0,-1
 101 1416 l 1,1,-1
 91 1402 l 1,2,-1
 87 1397 l 1,3,-1
 85 1395 l 2,4,5
 84 1393 84 1393 83 1393 c 2,6,-1
 82 1390 l 1,7,-1
 80 1387 l 1,8,-1
 78 1386 l 1,9,-1
 77 1383 l 1,10,11
 70 1376 70 1376 67 1370 c 1,12,-1
 63 1366 l 1,13,-1
 60 1361 l 1,14,-1
 57 1357 l 1,15,-1
 54 1353 l 1,16,-1
 51 1349 l 1,17,-1
 48 1346 l 1,18,19
 45 1339 45 1339 41 1336 c 1,20,-1
 39 1332 l 1,21,-1
 31 1323 l 1,22,-1
 29 1319 l 1,23,-1
 27 1316 l 1,24,-1
 24 1314 l 1,25,26
 21 1308 21 1308 18 1304 c 2,27,-1
 13 1299 l 1,28,-1
 12 1296 l 1,29,-1
 10 1295 l 1,30,-1
 9 1292 l 1,31,32
 0 1283 0 1283 -4 1273 c 1,33,-1
 -1 1231 l 1,34,35
 1 1223 1 1223 0 1218 c 1,36,37
 1 1216 1 1216 1 1215 c 0,38,39
 1 1204 1 1204 3 1196 c 1,40,-1
 3 1189 l 1,41,42
 6 1176 6 1176 5 1167 c 1,43,44
 6 1163 6 1163 6 1160 c 2,45,-1
 9 1127 l 1,46,-1
 10 1123 l 1,47,-1
 10 1118 l 1,48,49
 12 1112 12 1112 11 1107 c 1,50,51
 12 1106 12 1106 12 1104 c 0,52,53
 12 1093 12 1093 14 1085 c 1,54,55
 14 1080 14 1080 15 1077 c 2,56,-1
 16 1058 l 1,57,-1
 17 1056 l 1,58,-1
 18 1038 l 1,59,-1
 19 1031 l 1,60,-1
 20 1019 l 1,61,-1
 21 1015 l 1,62,-1
 21 1007 l 1,63,64
 24 996 24 996 23 988 c 1,65,-1
 24 985 l 1,66,-1
 24 977 l 1,67,68
 27 966 27 966 26 958 c 1,69,-1
 29 933 l 1,70,-1
 29 928 l 1,71,-1
 30 926 l 1,72,-1
 30 920 l 1,73,-1
 35 870 l 2,74,75
 36 862 36 862 36 856 c 1,76,77
 37 852 37 852 37 848 c 1,78,-1
 38 846 l 1,79,-1
 38 843 l 1,80,-1
 42 803 l 1,81,-1
 45 770 l 1,82,-1
 46 763 l 1,83,-1
 46 760 l 2,84,85
 46 749 46 749 48 741 c 1,86,-1
 49 725 l 2,87,88
 50 719 50 719 50 711 c 1,89,-1
 51 709 l 1,90,-1
 51 699 l 1,91,92
 52 698 52 698 52 697 c 2,93,-1
 53 682 l 1,94,-1
 57 643 l 1,95,-1
 57 637 l 1,96,-1
 58 626 l 1,97,-1
 59 622 l 1,98,-1
 59 615 l 1,99,-1
 60 610 l 1,100,-1
 61 599 l 2,101,102
 61 591 61 591 62 585 c 2,103,-1
 63 576 l 1,104,-1
 63 567 l 1,105,-1
 64 563 l 1,106,-1
 64 556 l 1,107,-1
 65 554 l 1,108,-1
 66 531 l 1,109,-1
 67 528 l 1,110,-1
 68 508 l 1,111,-1
 69 505 l 1,112,113
 69 499 69 499 70 494 c 2,114,-1
 72 458 l 1,115,116
 74 444 74 444 74 435 c 2,117,-1
 79 366 l 2,118,119
 80 355 80 355 80 348 c 2,120,-1
 84 284 l 2,121,122
 85 282 85 282 85 281 c 2,123,-1
 87 243 l 2,124,125
 87 237 87 237 88 232 c 1,126,-1
 88 217 l 1,127,128
 90 205 90 205 89 197 c 1,129,-1
 90 195 l 1,130,-1
 90 192 l 1,131,132
 89 181 89 181 91 174 c 1,133,-1
 91 168 l 2,134,135
 91 159 91 159 92 152 c 1,136,-1
 92 132 l 1,137,138
 93 128 93 128 93 125 c 2,139,-1
 94 83 l 1,140,141
 96 69 96 69 95 60 c 1,142,-1
 95 54 l 1,143,144
 96 48 96 48 96 43 c 2,145,-1
 96 18 l 1,146,147
 98 4 98 4 97 -5 c 1,148,149
 104 -2 104 -2 107 3 c 1,150,-1
 108 6 l 1,151,-1
 111 9 l 1,152,-1
 112 12 l 1,153,-1
 115 14 l 1,154,-1
 116 17 l 1,155,-1
 118 19 l 1,156,157
 124 30 124 30 129 36 c 1,158,-1
 130 40 l 1,159,-1
 133 43 l 1,160,-1
 134 45 l 2,161,162
 140 58 140 58 145 66 c 1,163,164
 148 77 148 77 153 84 c 1,165,166
 153 87 153 87 154 88 c 2,167,-1
 156 92 l 1,168,169
 160 106 160 106 164 114 c 1,170,171
 164 117 164 117 165 118 c 0,172,173
 167 125 167 125 169 130 c 1,174,175
 169 133 169 133 170 134 c 2,176,-1
 171 139 l 1,177,-1
 172 144 l 1,178,-1
 173 147 l 1,179,-1
 174 150 l 1,180,-1
 175 153 l 1,181,-1
 175 156 l 1,182,-1
 177 161 l 1,183,-1
 178 169 l 1,184,-1
 182 185 l 1,185,-1
 186 216 l 1,186,-1
 187 219 l 1,187,-1
 189 239 l 1,188,-1
 189 246 l 1,189,190
 191 252 191 252 190 256 c 1,191,-1
 191 261 l 1,192,193
 191 269 191 269 192 275 c 1,194,-1
 192 280 l 1,195,-1
 192 284 l 1,196,-1
 192 302 l 1,197,-1
 192 306 l 1,198,-1
 192 310 l 1,199,-1
 192 314 l 1,200,-1
 192 331 l 1,201,-1
 192 334 l 1,202,-1
 192 346 l 2,203,204
 192 354 192 354 191 359 c 1,205,-1
 191 363 l 1,206,-1
 191 370 l 1,207,208
 190 373 190 373 190 376 c 2,209,-1
 190 380 l 1,210,-1
 188 403 l 1,211,-1
 187 414 l 1,212,-1
 186 425 l 1,213,-1
 186 430 l 1,214,-1
 186 433 l 1,215,216
 185 437 185 437 185 441 c 2,217,-1
 183 461 l 1,218,-1
 181 486 l 1,219,-1
 180 505 l 1,220,-1
 178 522 l 1,221,-1
 178 527 l 1,222,-1
 178 530 l 1,223,-1
 178 534 l 1,224,225
 177 538 177 538 177 541 c 0,226,227
 176 552 176 552 176 559 c 1,228,229
 175 560 175 560 175 561 c 2,230,-1
 174 579 l 1,231,-1
 174 582 l 1,232,233
 172 590 172 590 173 595 c 1,234,-1
 172 602 l 1,235,236
 172 613 172 613 170 621 c 1,237,-1
 170 628 l 1,238,-1
 169 634 l 1,239,-1
 169 645 l 1,240,-1
 167 662 l 1,241,-1
 167 666 l 1,242,-1
 167 670 l 1,243,-1
 166 674 l 1,244,-1
 166 677 l 1,245,-1
 164 699 l 1,246,-1
 164 707 l 1,247,-1
 163 711 l 1,248,-1
 163 714 l 1,249,-1
 163 718 l 1,250,-1
 162 723 l 1,251,-1
 162 727 l 1,252,-1
 162 732 l 1,253,-1
 161 736 l 1,254,-1
 161 740 l 1,255,-1
 159 762 l 1,256,-1
 159 770 l 1,257,-1
 158 778 l 2,258,259
 158 783 158 783 157 786 c 1,260,-1
 157 789 l 1,261,-1
 157 796 l 1,262,-1
 156 802 l 1,263,-1
 156 809 l 1,264,265
 154 820 154 820 154 827 c 0,266,267
 154 832 154 832 153 835 c 1,268,-1
 153 839 l 2,269,270
 153 845 153 845 152 850 c 1,271,-1
 152 854 l 1,272,-1
 152 857 l 1,273,-1
 151 860 l 1,274,-1
 151 863 l 1,275,-1
 151 867 l 1,276,-1
 149 892 l 2,277,278
 149 897 149 897 148 900 c 1,279,-1
 148 908 l 1,280,-1
 147 916 l 2,281,282
 147 921 147 921 146 924 c 1,283,-1
 146 929 l 1,284,-1
 145 935 l 1,285,-1
 145 948 l 1,286,-1
 144 952 l 1,287,-1
 144 957 l 1,288,-1
 142 974 l 2,289,290
 142 980 142 980 141 985 c 1,291,-1
 141 990 l 1,292,-1
 139 1021 l 1,293,-1
 138 1026 l 1,294,-1
 138 1029 l 1,295,-1
 138 1035 l 1,296,-1
 137 1038 l 1,297,298
 137 1044 137 1044 136 1049 c 1,299,-1
 136 1052 l 1,300,-1
 135 1072 l 1,301,302
 133 1086 133 1086 133 1094 c 2,303,-1
 133 1098 l 1,304,-1
 132 1102 l 1,305,-1
 132 1107 l 1,306,307
 131 1113 131 1113 131 1117 c 2,308,-1
 131 1121 l 1,309,-1
 129 1138 l 1,310,-1
 129 1143 l 1,311,-1
 129 1148 l 1,312,-1
 127 1162 l 1,313,-1
 127 1169 l 1,314,-1
 127 1173 l 1,315,-1
 126 1177 l 1,316,-1
 126 1180 l 1,317,-1
 126 1184 l 1,318,319
 124 1200 124 1200 124 1209 c 1,320,-1
 123 1213 l 1,321,-1
 123 1224 l 1,322,323
 120 1237 120 1237 121 1246 c 1,324,-1
 121 1249 l 1,325,326
 120 1250 120 1250 120 1252 c 2,327,-1
 120 1255 l 1,328,-1
 118 1275 l 1,329,-1
 117 1292 l 1,330,-1
 117 1296 l 1,331,-1
 115 1313 l 2,332,333
 115 1321 115 1321 114 1326 c 1,334,-1
 114 1334 l 1,335,-1
 113 1339 l 1,336,-1
 113 1343 l 1,337,-1
 112 1360 l 1,338,-1
 111 1364 l 1,339,-1
 111 1374 l 1,340,-1
 110 1377 l 1,341,342
 110 1383 110 1383 109 1388 c 1,343,-1
 109 1392 l 1,344,-1
 109 1399 l 1,345,346
 107 1410 107 1410 107 1417 c 1,347,348
 106 1420 106 1420 104 1420 c 1,349,-1
 103 1418 l 1,0,-1
45 -213 m 1,351,352
 10 -297 10 -297 86 -342 c 1,353,354
 80 -346 80 -346 58.5 -362 c 128,-1,355
 37 -378 37 -378 20 -398 c 128,-1,356
 3 -418 3 -418 1 -437 c 1,357,-1
 1 -448 l 1,358,359
 9 -446 9 -446 41 -423 c 128,-1,360
 73 -400 73 -400 101 -383 c 128,-1,361
 129 -366 129 -366 175.5 -335 c 128,-1,362
 222 -304 222 -304 233 -302 c 1,363,-1
 235 -297 l 1,364,-1
 274 -236 l 1,365,366
 275 -223 275 -223 223 -252 c 128,-1,367
 171 -281 171 -281 155 -293 c 1,368,-1
 152 -292 l 1,369,-1
 150 -291 l 2,370,371
 121 -276 121 -276 105.5 -263.5 c 128,-1,372
 90 -251 90 -251 80.5 -239 c 128,-1,373
 71 -227 71 -227 66 -220 c 1,374,375
 130 -173 130 -173 198 -193 c 1,376,377
 213 -144 213 -144 169 -126 c 1,378,-1
 164 -126 l 1,379,380
 148 -124 148 -124 138 -125 c 1,381,350
 65 -145 65 -145 45 -213 c 1,351,352
EndSplineSet
Substitution2: "'fina' Terminal Forms in Arabic lookup 3 subtable" alefwithhamzabelowfinal
Substitution2: "'isol' Isolated Forms in Arabic lookup 0 subtable" alefwithhamzabelowisolated
EndChar

StartChar: yehwithhamzaabove
Encoding: 162 1574 12
Width: 1494
Flags: W
AnchorPoint: "belowsingle" 564.197 -529.066 basechar 0
AnchorPoint: "abovesingle" 708.197 1790.93 basechar 0
LayerCount: 2
Fore
SplineSet
508 1218 m 1,1,2
 457 1093 457 1093 569 1027 c 1,3,4
 560 1020 560 1020 528 997 c 128,-1,5
 496 974 496 974 471 944 c 128,-1,6
 446 914 446 914 443 886 c 1,7,-1
 443 870 l 1,8,9
 455 872 455 872 502 906.5 c 128,-1,10
 549 941 549 941 590.5 966 c 128,-1,11
 632 991 632 991 701 1036.5 c 128,-1,12
 770 1082 770 1082 786 1086 c 1,13,-1
 789 1093 l 1,14,-1
 847 1183 l 1,15,16
 848 1202 848 1202 771 1159.5 c 128,-1,17
 694 1117 694 1117 670 1099 c 1,18,-1
 667 1100 l 1,19,-1
 663 1102 l 2,20,21
 621 1124 621 1124 598 1142.5 c 128,-1,22
 575 1161 575 1161 560.5 1178.5 c 128,-1,23
 546 1196 546 1196 539 1207 c 1,24,25
 633 1276 633 1276 735 1246 c 1,26,27
 757 1319 757 1319 692 1345 c 1,28,-1
 685 1345 l 1,29,30
 660 1349 660 1349 645 1347 c 1,31,0
 538 1317 538 1317 508 1218 c 1,1,2
1366 882 m 2,33,-1
 1362 882 l 1,34,35
 1352 880 1352 880 1345 880 c 1,36,-1
 1332 877 l 1,37,-1
 1329 877 l 1,38,-1
 1325 876 l 1,39,-1
 1322 876 l 1,40,-1
 1319 875 l 1,41,-1
 1316 875 l 1,42,-1
 1308 873 l 2,43,44
 1301 871 1301 871 1296 871 c 1,45,-1
 1291 869 l 1,46,-1
 1286 868 l 1,47,-1
 1281 866 l 1,48,-1
 1278 866 l 1,49,50
 1272 863 1272 863 1267 863 c 1,51,-1
 1263 862 l 1,52,-1
 1246 856 l 1,53,-1
 1240 854 l 1,54,-1
 1236 853 l 1,55,-1
 1232 852 l 1,56,-1
 1229 851 l 2,57,58
 1223 848 1223 848 1219 848 c 1,59,-1
 1217 846 l 1,60,-1
 1214 846 l 1,61,62
 1210 843 1210 843 1206 843 c 1,63,64
 1198 838 1198 838 1190 837 c 1,65,-1
 1184 834 l 1,66,-1
 1178 832 l 1,67,68
 1173 828 1173 828 1167 827 c 1,69,-1
 1162 824 l 1,70,-1
 1157 823 l 1,71,-1
 1153 821 l 1,72,-1
 1149 818 l 1,73,-1
 1145 817 l 1,74,75
 1137 812 1137 812 1130 810 c 1,76,-1
 1128 808 l 1,77,-1
 1124 807 l 1,78,79
 1120 804 1120 804 1116 802 c 2,80,-1
 1111 800 l 1,81,-1
 1108 799 l 1,82,83
 1100 793 1100 793 1093 791 c 1,84,85
 1087 786 1087 786 1080 784 c 1,86,87
 1071 777 1071 777 1063 774 c 1,88,-1
 1058 770 l 1,89,-1
 1053 768 l 1,90,-1
 1040 759 l 1,91,-1
 1035 757 l 1,92,-1
 1031 754 l 1,93,-1
 1027 752 l 1,94,-1
 1024 749 l 1,95,96
 1017 744 1017 744 1012 742 c 1,97,-1
 1008 738 l 1,98,-1
 1003 736 l 1,99,-1
 1000 733 l 1,100,-1
 996 731 l 1,101,102
 989 725 989 725 983 722 c 1,103,-1
 981 719 l 1,104,-1
 979 718 l 1,105,-1
 977 716 l 1,106,-1
 968 711 l 1,107,-1
 967 709 l 1,108,-1
 955 701 l 1,109,110
 949 694 949 694 943 691 c 0,111,112
 942 690 942 690 941 690 c 0,113,114
 936 684 936 684 931 680 c 0,115,116
 924 676 924 676 920 671 c 1,117,118
 912 665 912 665 908 660 c 1,119,-1
 904 658 l 1,120,-1
 901 655 l 2,121,122
 896 649 896 649 891 645 c 2,123,-1
 888 643 l 1,124,-1
 884 638 l 1,125,-1
 878 633 l 1,126,127
 874 628 874 628 870 625 c 2,128,-1
 867 622 l 1,129,130
 864 617 864 617 861 615 c 2,131,-1
 858 612 l 1,132,-1
 856 609 l 1,133,-1
 850 604 l 1,134,135
 845 597 845 597 840 593 c 1,136,137
 837 588 837 588 833 584 c 1,138,-1
 832 582 l 1,139,-1
 830 580 l 1,140,-1
 819 567 l 1,141,-1
 818 564 l 1,142,-1
 815 562 l 1,143,-1
 814 560 l 1,144,145
 805 546 805 546 798 538 c 1,146,147
 795 530 795 530 791 526 c 1,148,-1
 789 522 l 2,149,150
 785 515 785 515 782 512 c 1,151,152
 780 506 780 506 778 502 c 2,153,-1
 772 493 l 1,154,-1
 771 489 l 1,155,-1
 768 484 l 1,156,157
 767 479 767 479 765 476 c 2,158,-1
 758 460 l 1,159,-1
 756 453 l 1,160,-1
 755 450 l 1,161,-1
 754 445 l 1,162,-1
 750 431 l 1,163,-1
 750 425 l 1,164,-1
 748 417 l 1,165,166
 748 411 748 411 747 407 c 2,167,-1
 746 390 l 1,168,-1
 747 368 l 1,169,170
 757 321 757 321 787 290 c 1,171,-1
 790 288 l 1,172,-1
 793 286 l 1,173,-1
 795 283 l 1,174,-1
 798 281 l 1,175,176
 809 275 809 275 815 269 c 1,177,-1
 819 268 l 1,178,-1
 827 262 l 1,179,180
 839 258 839 258 845 253 c 1,181,-1
 850 252 l 1,182,-1
 853 250 l 1,183,-1
 867 245 l 1,184,-1
 872 243 l 1,185,-1
 875 242 l 1,186,187
 880 239 880 239 884 238 c 2,188,-1
 887 237 l 1,189,-1
 890 236 l 1,190,-1
 898 234 l 1,191,-1
 901 233 l 1,192,-1
 914 228 l 1,193,-1
 917 227 l 1,194,-1
 921 227 l 1,195,-1
 924 226 l 1,196,-1
 931 223 l 1,197,198
 942 221 942 221 949 218 c 1,199,-1
 960 216 l 1,200,-1
 963 215 l 1,201,-1
 965 214 l 1,202,-1
 979 210 l 2,203,204
 986 209 986 209 990 207 c 0,205,206
 998 205 998 205 1002 203 c 1,207,-1
 1005 203 l 1,208,-1
 1021 198 l 1,209,-1
 1025 196 l 1,210,211
 1028 196 1028 196 1029 195 c 2,212,-1
 1037 193 l 1,213,-1
 1040 191 l 1,214,-1
 1042 190 l 1,215,-1
 1045 190 l 1,216,217
 1054 185 1054 185 1060 184 c 1,218,219
 1065 181 1065 181 1069 180 c 1,220,-1
 1071 178 l 1,221,-1
 1087 171 l 1,222,-1
 1096 164 l 1,223,224
 1109 158 1109 158 1116 148 c 1,225,-1
 1113 147 l 1,226,227
 1101 139 1101 139 1092 136 c 1,228,-1
 1089 134 l 1,229,-1
 1085 132 l 2,230,231
 1081 129 1081 129 1077 127 c 0,232,233
 1070 124 1070 124 1066 121 c 2,234,-1
 1060 118 l 1,235,-1
 1056 117 l 1,236,-1
 1053 115 l 1,237,238
 1042 109 1042 109 1034 106 c 1,239,-1
 1032 104 l 1,240,-1
 1028 103 l 1,241,-1
 1026 101 l 1,242,243
 1020 99 1020 99 1016 97 c 2,244,-1
 1014 96 l 1,245,-1
 1011 95 l 1,246,247
 1003 90 1003 90 996 88 c 1,248,-1
 993 86 l 1,249,-1
 989 85 l 1,250,-1
 987 83 l 1,251,-1
 984 83 l 1,252,253
 975 77 975 77 967 75 c 2,254,-1
 964 74 l 1,255,256
 953 68 953 68 944 66 c 1,257,-1
 941 64 l 1,258,-1
 937 63 l 1,259,-1
 934 61 l 1,260,261
 926 58 926 58 921 57 c 1,262,263
 913 52 913 52 906 51 c 1,264,-1
 903 49 l 1,265,-1
 900 49 l 1,266,267
 891 44 891 44 883 43 c 1,268,269
 877 40 877 40 872 39 c 1,270,-1
 868 37 l 1,271,-1
 863 36 l 1,272,273
 856 32 856 32 850 31 c 2,274,-1
 844 30 l 1,275,-1
 841 28 l 1,276,-1
 838 28 l 1,277,-1
 835 27 l 1,278,-1
 831 26 l 2,279,280
 830 25 830 25 829 25 c 2,281,-1
 826 24 l 1,282,-1
 824 23 l 1,283,-1
 821 23 l 1,284,285
 820 22 820 22 819 22 c 2,286,-1
 796 16 l 1,287,-1
 794 15 l 1,288,-1
 791 15 l 1,289,290
 787 13 787 13 783 12 c 2,291,-1
 766 8 l 1,292,-1
 749 4 l 1,293,-1
 744 3 l 1,294,-1
 727 0 l 1,295,-1
 722 -1 l 1,296,-1
 717 -2 l 1,297,-1
 713 -3 l 1,298,-1
 708 -4 l 1,299,-1
 691 -6 l 1,300,-1
 687 -7 l 1,301,-1
 682 -8 l 1,302,-1
 678 -9 l 1,303,-1
 673 -9 l 1,304,-1
 669 -10 l 1,305,-1
 663 -10 l 1,306,307
 654 -13 654 -13 646 -12 c 1,308,309
 644 -13 644 -13 643 -13 c 0,310,311
 632 -13 632 -13 624 -15 c 1,312,-1
 618 -15 l 1,313,-1
 613 -15 l 1,314,-1
 591 -17 l 1,315,-1
 587 -17 l 1,316,-1
 582 -17 l 1,317,-1
 576 -17 l 1,318,-1
 571 -17 l 1,319,-1
 567 -17 l 1,320,-1
 549 -17 l 1,321,-1
 545 -17 l 1,322,-1
 541 -17 l 1,323,-1
 537 -17 l 1,324,-1
 534 -17 l 1,325,-1
 527 -17 l 1,326,-1
 524 -17 l 1,327,328
 513 -15 513 -15 505 -16 c 1,329,-1
 501 -15 l 1,330,-1
 493 -15 l 1,331,332
 484 -13 484 -13 477 -13 c 2,333,-1
 474 -13 l 1,334,335
 466 -11 466 -11 459 -11 c 1,336,-1
 445 -8 l 2,337,338
 438 -7 438 -7 432 -6 c 2,339,-1
 425 -5 l 1,340,-1
 418 -3 l 1,341,-1
 413 -2 l 1,342,-1
 402 0 l 2,343,344
 396 2 396 2 391 3 c 1,345,-1
 389 4 l 1,346,347
 382 6 382 6 377 8 c 2,348,-1
 355 14 l 1,349,-1
 352 16 l 1,350,-1
 349 17 l 1,351,-1
 346 18 l 2,352,353
 341 19 341 19 337 22 c 1,354,-1
 334 22 l 1,355,-1
 323 28 l 1,356,-1
 320 29 l 1,357,-1
 318 30 l 1,358,359
 308 33 308 33 303 37 c 1,360,-1
 300 38 l 1,361,362
 295 41 295 41 292 42 c 1,363,-1
 290 44 l 1,364,365
 279 49 279 49 272 55 c 1,366,-1
 269 56 l 1,367,-1
 267 58 l 1,368,-1
 264 59 l 1,369,-1
 262 60 l 1,370,-1
 253 68 l 1,371,372
 247 70 247 70 244 73 c 2,373,-1
 242 75 l 2,374,375
 238 78 238 78 236 81 c 1,376,377
 229 85 229 85 225 89 c 1,378,-1
 223 92 l 1,379,380
 217 97 217 97 213 101 c 0,381,382
 204 109 204 109 200 116 c 1,383,-1
 198 117 l 1,384,-1
 196 119 l 1,385,-1
 195 122 l 1,386,-1
 193 123 l 1,387,-1
 191 125 l 1,388,-1
 190 128 l 1,389,390
 181 137 181 137 177 146 c 1,391,392
 171 153 171 153 168 158 c 2,393,-1
 167 160 l 1,394,-1
 166 162 l 1,395,-1
 165 164 l 1,396,-1
 156 183 l 1,397,-1
 152 190 l 1,398,-1
 151 193 l 1,399,-1
 150 196 l 1,400,-1
 149 199 l 1,401,-1
 148 202 l 1,402,-1
 144 211 l 1,403,-1
 143 215 l 1,404,-1
 138 232 l 1,405,-1
 137 236 l 1,406,-1
 137 239 l 1,407,408
 135 245 135 245 135 250 c 1,409,-1
 134 254 l 1,410,-1
 134 257 l 1,411,412
 132 265 132 265 132 271 c 2,413,-1
 130 286 l 1,414,-1
 130 290 l 1,415,-1
 130 293 l 1,416,-1
 130 297 l 1,417,-1
 130 300 l 1,418,-1
 130 303 l 1,419,-1
 130 320 l 1,420,-1
 130 323 l 1,421,422
 132 329 132 329 131 335 c 1,423,-1
 132 342 l 1,424,-1
 133 346 l 1,425,-1
 133 353 l 1,426,-1
 134 359 l 1,427,-1
 135 362 l 1,428,-1
 135 365 l 1,429,430
 137 371 137 371 137 376 c 1,431,432
 139 382 139 382 139 386 c 1,433,-1
 140 389 l 2,434,435
 142 394 142 394 142 398 c 1,436,-1
 143 401 l 1,437,-1
 147 413 l 1,438,-1
 148 416 l 2,439,440
 151 427 151 427 154 435 c 1,441,442
 155 441 155 441 158 445 c 1,443,-1
 158 448 l 1,444,-1
 159 450 l 1,445,-1
 162 457 l 1,446,-1
 163 459 l 1,447,-1
 164 461 l 1,448,449
 167 472 167 472 172 479 c 1,450,-1
 173 482 l 1,451,-1
 174 485 l 1,452,-1
 176 488 l 1,453,454
 178 493 178 493 180 496 c 2,455,-1
 181 498 l 1,456,457
 188 516 188 516 196 526 c 1,458,-1
 197 530 l 1,459,-1
 199 532 l 1,460,-1
 200 536 l 1,461,-1
 205 548 l 1,462,463
 206 555 206 555 208 559 c 1,464,465
 212 582 212 582 193 582 c 1,466,-1
 187 578 l 1,467,468
 183 574 183 574 180 573 c 1,469,-1
 176 567 l 1,470,-1
 174 566 l 1,471,-1
 168 558 l 2,472,473
 164 553 164 553 162 551 c 0,474,475
 42 349 42 349 62 142 c 1,476,-1
 63 138 l 1,477,-1
 65 125 l 1,478,-1
 66 119 l 1,479,-1
 70 103 l 1,480,-1
 71 100 l 1,481,-1
 72 92 l 1,482,-1
 74 84 l 1,483,484
 77 79 77 79 77 74 c 1,485,486
 81 66 81 66 82 59 c 1,487,-1
 84 55 l 2,488,489
 87 49 87 49 88 44 c 1,490,-1
 90 40 l 1,491,-1
 91 37 l 1,492,-1
 99 21 l 1,493,-1
 101 17 l 1,494,-1
 102 13 l 1,495,496
 107 6 107 6 109 0 c 1,497,-1
 112 -3 l 1,498,-1
 113 -7 l 1,499,500
 120 -14 120 -14 122 -21 c 1,501,502
 129 -29 129 -29 132 -36 c 1,503,-1
 135 -38 l 1,504,-1
 136 -41 l 1,505,506
 138 -42 138 -42 138 -43 c 2,507,-1
 146 -53 l 1,508,-1
 148 -56 l 1,509,-1
 151 -58 l 1,510,-1
 152 -61 l 1,511,-1
 155 -63 l 1,512,-1
 157 -66 l 1,513,-1
 160 -68 l 1,514,-1
 161 -71 l 1,515,-1
 164 -73 l 1,516,-1
 166 -75 l 1,517,-1
 174 -84 l 1,518,-1
 180 -88 l 1,519,-1
 181 -90 l 1,520,521
 183 -91 183 -91 183 -92 c 2,522,-1
 196 -102 l 1,523,-1
 198 -105 l 1,524,-1
 200 -106 l 1,525,-1
 202 -108 l 1,526,527
 211 -114 211 -114 216 -119 c 1,528,-1
 219 -121 l 1,529,530
 226 -124 226 -124 229 -128 c 1,531,-1
 233 -130 l 1,532,-1
 245 -137 l 1,533,-1
 249 -139 l 1,534,-1
 252 -142 l 1,535,-1
 258 -145 l 1,536,-1
 263 -147 l 1,537,-1
 266 -149 l 1,538,-1
 271 -151 l 1,539,-1
 275 -154 l 1,540,541
 285 -157 285 -157 290 -161 c 1,542,-1
 297 -164 l 1,543,544
 311 -168 311 -168 319 -173 c 1,545,-1
 337 -178 l 1,546,-1
 347 -182 l 1,547,548
 350 -182 350 -182 351 -183 c 2,549,-1
 354 -184 l 1,550,-1
 357 -184 l 1,551,-1
 365 -186 l 1,552,-1
 369 -187 l 1,553,-1
 371 -188 l 1,554,-1
 387 -192 l 1,555,-1
 391 -192 l 1,556,-1
 395 -193 l 1,557,-1
 408 -196 l 1,558,-1
 411 -196 l 1,559,560
 420 -198 420 -198 427 -198 c 1,561,562
 433 -200 433 -200 438 -200 c 2,563,-1
 441 -200 l 1,564,-1
 444 -200 l 1,565,-1
 447 -201 l 1,566,-1
 451 -201 l 1,567,-1
 468 -203 l 1,568,-1
 476 -203 l 1,569,-1
 479 -203 l 1,570,-1
 492 -203 l 1,571,-1
 506 -203 l 1,572,-1
 520 -203 l 1,573,-1
 551 -203 l 1,574,-1
 555 -202 l 1,575,-1
 565 -202 l 1,576,-1
 568 -201 l 1,577,-1
 571 -201 l 2,578,579
 581 -201 581 -201 588 -199 c 1,580,-1
 596 -199 l 1,581,582
 600 -198 600 -198 603 -198 c 2,583,-1
 608 -197 l 1,584,-1
 612 -196 l 1,585,-1
 618 -196 l 1,586,587
 631 -193 631 -193 640 -192 c 1,588,-1
 644 -191 l 1,589,-1
 648 -191 l 1,590,-1
 652 -190 l 1,591,-1
 657 -189 l 1,592,-1
 665 -187 l 1,593,-1
 677 -185 l 2,594,595
 678 -184 678 -184 679 -184 c 2,596,-1
 682 -184 l 1,597,598
 691 -180 691 -180 699 -180 c 1,599,-1
 704 -178 l 1,600,-1
 721 -174 l 1,601,602
 727 -171 727 -171 732 -171 c 1,603,604
 738 -169 738 -169 742 -168 c 2,605,-1
 746 -167 l 1,606,607
 759 -161 759 -161 769 -160 c 1,608,609
 773 -157 773 -157 777 -157 c 1,610,611
 790 -152 790 -152 798 -150 c 1,612,613
 801 -148 801 -148 803 -148 c 2,614,-1
 806 -147 l 1,615,-1
 822 -140 l 1,616,-1
 828 -139 l 1,617,-1
 832 -137 l 1,618,-1
 840 -133 l 1,619,-1
 844 -132 l 1,620,621
 850 -129 850 -129 854 -128 c 2,622,-1
 857 -127 l 1,623,-1
 864 -123 l 1,624,-1
 867 -122 l 1,625,-1
 880 -117 l 1,626,-1
 885 -114 l 1,627,-1
 890 -112 l 1,628,-1
 892 -111 l 2,629,630
 900 -108 900 -108 904 -105 c 1,631,632
 914 -102 914 -102 919 -98 c 1,633,-1
 923 -97 l 1,634,635
 929 -93 929 -93 934 -91 c 2,636,-1
 936 -90 l 1,637,-1
 940 -88 l 1,638,-1
 943 -87 l 2,639,640
 944 -86 944 -86 945 -86 c 2,641,-1
 947 -84 l 1,642,-1
 949 -83 l 1,643,-1
 952 -82 l 1,644,-1
 964 -76 l 1,645,-1
 966 -74 l 1,646,-1
 970 -73 l 1,647,-1
 972 -71 l 1,648,-1
 975 -70 l 1,649,-1
 991 -61 l 1,650,-1
 1004 -54 l 1,651,-1
 1006 -52 l 1,652,653
 1015 -48 1015 -48 1020 -44 c 2,654,-1
 1025 -41 l 1,655,-1
 1029 -39 l 1,656,-1
 1033 -37 l 1,657,658
 1039 -32 1039 -32 1045 -30 c 1,659,660
 1049 -26 1049 -26 1053 -24 c 2,661,-1
 1056 -22 l 1,662,-1
 1059 -21 l 1,663,-1
 1061 -19 l 1,664,-1
 1071 -14 l 1,665,666
 1078 -7 1078 -7 1085 -5 c 1,667,-1
 1089 -1 l 1,668,-1
 1094 2 l 2,669,670
 1101 7 1101 7 1106 9 c 1,671,672
 1107 11 1107 11 1109 11 c 1,673,-1
 1112 14 l 1,674,-1
 1116 16 l 1,675,676
 1120 20 1120 20 1123 22 c 2,677,-1
 1126 23 l 1,678,-1
 1128 25 l 1,679,-1
 1130 26 l 1,680,-1
 1132 28 l 1,681,-1
 1139 32 l 1,682,683
 1146 38 1146 38 1152 41 c 1,684,685
 1222 137 1222 137 1221 237 c 0,686,687
 1220 238 1220 238 1220 240 c 2,688,-1
 1220 243 l 1,689,-1
 1219 246 l 1,690,-1
 1218 254 l 1,691,-1
 1216 262 l 1,692,693
 1212 272 1212 272 1211 278 c 1,694,-1
 1209 280 l 1,695,-1
 1204 292 l 1,696,-1
 1202 294 l 1,697,-1
 1201 297 l 1,698,699
 1199 298 1199 298 1199 299 c 0,700,701
 1195 303 1195 303 1194 307 c 1,702,703
 1186 315 1186 315 1182 321 c 1,704,-1
 1180 322 l 1,705,-1
 1174 326 l 1,706,-1
 1172 328 l 1,707,708
 1166 331 1166 331 1163 335 c 1,709,710
 1153 339 1153 339 1148 344 c 1,711,712
 1143 345 1143 345 1140 347 c 2,713,-1
 1124 356 l 1,714,-1
 1121 357 l 1,715,-1
 1119 358 l 1,716,717
 1103 363 1103 363 1094 368 c 1,718,-1
 1091 368 l 1,719,-1
 1088 369 l 1,720,-1
 1083 371 l 2,721,722
 1078 373 1078 373 1075 374 c 0,723,724
 1059 378 1059 378 1050 382 c 1,725,-1
 1047 382 l 1,726,-1
 1039 384 l 2,727,728
 1033 386 1033 386 1029 387 c 2,729,-1
 1024 388 l 1,730,-1
 1021 389 l 1,731,-1
 1013 391 l 1,732,-1
 1011 392 l 1,733,734
 1006 393 1006 393 1002 395 c 1,735,-1
 998 395 l 1,736,-1
 995 396 l 1,737,-1
 987 399 l 1,738,739
 981 399 981 399 977 401 c 2,740,-1
 975 402 l 1,741,-1
 972 402 l 1,742,-1
 964 404 l 1,743,-1
 961 405 l 1,744,-1
 944 411 l 1,745,-1
 941 411 l 1,746,-1
 938 412 l 1,747,-1
 935 413 l 1,748,-1
 932 414 l 1,749,-1
 929 415 l 2,750,751
 911 420 911 420 900 426 c 1,752,753
 895 427 895 427 890 430 c 2,754,-1
 888 431 l 1,755,756
 877 434 877 434 870 439 c 1,757,758
 864 441 864 441 861 444 c 1,759,760
 843 451 843 451 832 464 c 1,761,-1
 838 468 l 1,762,-1
 843 472 l 1,763,-1
 846 475 l 2,764,765
 856 484 856 484 863 489 c 0,766,767
 869 494 869 494 874 497 c 1,768,769
 882 505 882 505 889 509 c 1,770,-1
 893 512 l 1,771,-1
 897 515 l 1,772,-1
 901 518 l 1,773,-1
 905 521 l 1,774,-1
 909 524 l 1,775,-1
 911 526 l 1,776,-1
 914 527 l 1,777,778
 923 535 923 535 931 539 c 1,779,-1
 934 542 l 1,780,-1
 946 550 l 1,781,-1
 954 556 l 1,782,-1
 958 558 l 1,783,-1
 961 560 l 1,784,-1
 964 561 l 1,785,786
 968 565 968 565 971 567 c 2,787,-1
 974 569 l 1,788,-1
 977 570 l 1,789,790
 981 573 981 573 985 575 c 0,791,792
 986 576 986 576 987 576 c 0,793,794
 994 582 994 582 1002 585 c 1,795,796
 1006 589 1006 589 1010 591 c 2,797,-1
 1013 593 l 1,798,-1
 1023 598 l 1,799,-1
 1026 600 l 1,800,-1
 1028 601 l 1,801,-1
 1042 609 l 2,802,803
 1052 615 1052 615 1059 618 c 1,804,805
 1065 622 1065 622 1069 624 c 2,806,-1
 1088 633 l 1,807,-1
 1090 635 l 1,808,809
 1100 639 1100 639 1106 643 c 1,810,-1
 1111 644 l 1,811,812
 1115 647 1115 647 1119 649 c 2,813,-1
 1123 650 l 2,814,815
 1124 651 1124 651 1126 651 c 1,816,817
 1127 652 1127 652 1128 652 c 2,818,-1
 1134 656 l 1,819,-1
 1137 656 l 1,820,821
 1145 662 1145 662 1153 663 c 1,822,-1
 1157 665 l 1,823,-1
 1160 666 l 1,824,825
 1171 672 1171 672 1180 674 c 0,826,827
 1182 675 1182 675 1183 675 c 0,828,829
 1192 680 1192 680 1199 682 c 0,830,831
 1205 684 1205 684 1210 686 c 1,832,-1
 1213 686 l 1,833,-1
 1220 689 l 1,834,-1
 1223 690 l 1,835,-1
 1226 691 l 1,836,-1
 1229 692 l 1,837,-1
 1232 693 l 1,838,-1
 1235 693 l 1,839,840
 1236 694 1236 694 1237 694 c 2,841,-1
 1253 699 l 1,842,-1
 1258 700 l 1,843,-1
 1261 700 l 1,844,845
 1267 703 1267 703 1272 703 c 1,846,-1
 1289 707 l 1,847,-1
 1296 708 l 1,848,-1
 1318 711 l 1,849,850
 1358 714 1358 714 1388 701 c 1,851,852
 1409 685 1409 685 1405 661 c 1,853,854
 1408 653 1408 653 1409 649 c 1,855,856
 1415 646 1415 646 1420 647 c 1,857,858
 1423 652 1423 652 1427 654 c 1,859,-1
 1428 656 l 2,860,861
 1433 665 1433 665 1435 672 c 1,862,863
 1487 752 1487 752 1475 834 c 0,864,865
 1474 836 1474 836 1474 837 c 0,866,867
 1448 894 1448 894 1372 883 c 0,868,32
 1369 882 1369 882 1366 882 c 2,33,-1
EndSplineSet
Substitution2: "'fina' Terminal Forms in Arabic lookup 3 subtable" yehwithhamzaabovefinal
Substitution2: "'medi' Medial Forms in Arabic lookup 2 subtable" yehwithhamzaabovemedial
Substitution2: "'init' Initial Forms in Arabic lookup 1 subtable" yehwithhamzaaboveinitial
Substitution2: "'isol' Isolated Forms in Arabic lookup 0 subtable" yehwithhamzaaboveisolated
EndChar

StartChar: arabicalef
Encoding: 163 1575 13
Width: 319
Flags: W
AnchorPoint: "belowsingle" 161 -102.5 basechar 0
AnchorPoint: "abovesingle" 98 1556.5 basechar 0
LayerCount: 2
Fore
SplineSet
167 1418 m 1,0,-1
 165 1416 l 1,1,-1
 155 1402 l 1,2,-1
 151 1397 l 1,3,-1
 149 1395 l 2,4,5
 148 1393 148 1393 147 1393 c 2,6,-1
 146 1390 l 1,7,-1
 144 1387 l 1,8,-1
 142 1386 l 1,9,-1
 141 1383 l 1,10,11
 134 1376 134 1376 131 1370 c 1,12,-1
 127 1366 l 1,13,-1
 124 1361 l 1,14,-1
 121 1357 l 1,15,-1
 118 1353 l 1,16,-1
 115 1349 l 1,17,-1
 112 1346 l 1,18,19
 109 1339 109 1339 105 1336 c 1,20,-1
 103 1332 l 1,21,-1
 95 1323 l 1,22,-1
 93 1319 l 1,23,-1
 91 1316 l 1,24,-1
 88 1314 l 1,25,26
 85 1308 85 1308 82 1304 c 2,27,-1
 77 1299 l 1,28,-1
 76 1296 l 1,29,-1
 74 1295 l 1,30,-1
 73 1292 l 1,31,32
 64 1283 64 1283 60 1273 c 1,33,-1
 63 1231 l 1,34,35
 65 1223 65 1223 64 1218 c 1,36,37
 65 1216 65 1216 65 1215 c 0,38,39
 65 1204 65 1204 67 1196 c 1,40,-1
 67 1189 l 1,41,42
 70 1176 70 1176 69 1167 c 1,43,44
 70 1163 70 1163 70 1160 c 2,45,-1
 73 1127 l 1,46,-1
 74 1123 l 1,47,-1
 74 1118 l 1,48,49
 76 1112 76 1112 75 1107 c 1,50,51
 76 1106 76 1106 76 1104 c 0,52,53
 76 1093 76 1093 78 1085 c 1,54,55
 78 1080 78 1080 79 1077 c 2,56,-1
 80 1058 l 1,57,-1
 81 1056 l 1,58,-1
 82 1038 l 1,59,-1
 83 1031 l 1,60,-1
 84 1019 l 1,61,-1
 85 1015 l 1,62,-1
 85 1007 l 1,63,64
 88 996 88 996 87 988 c 1,65,-1
 88 985 l 1,66,-1
 88 977 l 1,67,68
 91 966 91 966 90 958 c 1,69,-1
 93 933 l 1,70,-1
 93 928 l 1,71,-1
 94 926 l 1,72,-1
 94 920 l 1,73,-1
 99 870 l 2,74,75
 100 862 100 862 100 856 c 1,76,77
 101 852 101 852 101 848 c 1,78,-1
 102 846 l 1,79,-1
 102 843 l 1,80,-1
 106 803 l 1,81,-1
 109 770 l 1,82,-1
 110 763 l 1,83,-1
 110 760 l 2,84,85
 110 749 110 749 112 741 c 1,86,-1
 113 725 l 2,87,88
 114 719 114 719 114 711 c 1,89,-1
 115 709 l 1,90,-1
 115 699 l 1,91,92
 116 698 116 698 116 697 c 2,93,-1
 117 682 l 1,94,-1
 121 643 l 1,95,-1
 121 637 l 1,96,-1
 122 626 l 1,97,-1
 123 622 l 1,98,-1
 123 615 l 1,99,-1
 124 610 l 1,100,-1
 125 599 l 2,101,102
 125 591 125 591 126 585 c 2,103,-1
 127 576 l 1,104,-1
 127 567 l 1,105,-1
 128 563 l 1,106,-1
 128 556 l 1,107,-1
 129 554 l 1,108,-1
 130 531 l 1,109,-1
 131 528 l 1,110,-1
 132 508 l 1,111,-1
 133 505 l 1,112,113
 133 499 133 499 134 494 c 2,114,-1
 136 458 l 1,115,116
 138 444 138 444 138 435 c 2,117,-1
 143 366 l 2,118,119
 144 355 144 355 144 348 c 2,120,-1
 148 284 l 2,121,122
 149 282 149 282 149 281 c 2,123,-1
 151 243 l 2,124,125
 151 237 151 237 152 232 c 1,126,-1
 152 217 l 1,127,128
 154 205 154 205 153 197 c 1,129,-1
 154 195 l 1,130,-1
 154 192 l 1,131,132
 153 181 153 181 155 174 c 1,133,-1
 155 168 l 2,134,135
 155 159 155 159 156 152 c 1,136,-1
 156 132 l 1,137,138
 157 128 157 128 157 125 c 2,139,-1
 158 83 l 1,140,141
 160 69 160 69 159 60 c 1,142,-1
 159 54 l 1,143,144
 160 48 160 48 160 43 c 2,145,-1
 160 18 l 1,146,147
 162 4 162 4 161 -5 c 1,148,149
 168 -2 168 -2 171 3 c 1,150,-1
 172 6 l 1,151,-1
 175 9 l 1,152,-1
 176 12 l 1,153,-1
 179 14 l 1,154,-1
 180 17 l 1,155,-1
 182 19 l 1,156,157
 188 30 188 30 193 36 c 1,158,-1
 194 40 l 1,159,-1
 197 43 l 1,160,-1
 198 45 l 2,161,162
 204 58 204 58 209 66 c 1,163,164
 212 77 212 77 217 84 c 1,165,166
 217 87 217 87 218 88 c 2,167,-1
 220 92 l 1,168,169
 224 106 224 106 228 114 c 1,170,171
 228 117 228 117 229 118 c 0,172,173
 231 125 231 125 233 130 c 1,174,175
 233 133 233 133 234 134 c 2,176,-1
 235 139 l 1,177,-1
 236 144 l 1,178,-1
 237 147 l 1,179,-1
 238 150 l 1,180,-1
 239 153 l 1,181,-1
 239 156 l 1,182,-1
 241 161 l 1,183,-1
 242 169 l 1,184,-1
 246 185 l 1,185,-1
 250 216 l 1,186,-1
 251 219 l 1,187,-1
 253 239 l 1,188,-1
 253 246 l 1,189,190
 255 252 255 252 254 256 c 1,191,-1
 255 261 l 1,192,193
 255 269 255 269 256 275 c 1,194,-1
 256 280 l 1,195,-1
 256 284 l 1,196,-1
 256 302 l 1,197,-1
 256 306 l 1,198,-1
 256 310 l 1,199,-1
 256 314 l 1,200,-1
 256 331 l 1,201,-1
 256 334 l 1,202,-1
 256 346 l 2,203,204
 256 354 256 354 255 359 c 1,205,-1
 255 363 l 1,206,-1
 255 370 l 1,207,208
 254 373 254 373 254 376 c 2,209,-1
 254 380 l 1,210,-1
 252 403 l 1,211,-1
 251 414 l 1,212,-1
 250 425 l 1,213,-1
 250 430 l 1,214,-1
 250 433 l 1,215,216
 249 437 249 437 249 441 c 2,217,-1
 247 461 l 1,218,-1
 245 486 l 1,219,-1
 244 505 l 1,220,-1
 242 522 l 1,221,-1
 242 527 l 1,222,-1
 242 530 l 1,223,-1
 242 534 l 1,224,225
 241 538 241 538 241 541 c 0,226,227
 240 552 240 552 240 559 c 1,228,229
 239 560 239 560 239 561 c 2,230,-1
 238 579 l 1,231,-1
 238 582 l 1,232,233
 236 590 236 590 237 595 c 1,234,-1
 236 602 l 1,235,236
 236 613 236 613 234 621 c 1,237,-1
 234 628 l 1,238,-1
 233 634 l 1,239,-1
 233 645 l 1,240,-1
 231 662 l 1,241,-1
 231 666 l 1,242,-1
 231 670 l 1,243,-1
 230 674 l 1,244,-1
 230 677 l 1,245,-1
 228 699 l 1,246,-1
 228 707 l 1,247,-1
 227 711 l 1,248,-1
 227 714 l 1,249,-1
 227 718 l 1,250,-1
 226 723 l 1,251,-1
 226 727 l 1,252,-1
 226 732 l 1,253,-1
 225 736 l 1,254,-1
 225 740 l 1,255,-1
 223 762 l 1,256,-1
 223 770 l 1,257,-1
 222 778 l 2,258,259
 222 783 222 783 221 786 c 1,260,-1
 221 789 l 1,261,-1
 221 796 l 1,262,-1
 220 802 l 1,263,-1
 220 809 l 1,264,265
 218 820 218 820 218 827 c 0,266,267
 218 832 218 832 217 835 c 1,268,-1
 217 839 l 2,269,270
 217 845 217 845 216 850 c 1,271,-1
 216 854 l 1,272,-1
 216 857 l 1,273,-1
 215 860 l 1,274,-1
 215 863 l 1,275,-1
 215 867 l 1,276,-1
 213 892 l 2,277,278
 213 897 213 897 212 900 c 1,279,-1
 212 908 l 1,280,-1
 211 916 l 2,281,282
 211 921 211 921 210 924 c 1,283,-1
 210 929 l 1,284,-1
 209 935 l 1,285,-1
 209 948 l 1,286,-1
 208 952 l 1,287,-1
 208 957 l 1,288,-1
 206 974 l 2,289,290
 206 980 206 980 205 985 c 1,291,-1
 205 990 l 1,292,-1
 203 1021 l 1,293,-1
 202 1026 l 1,294,-1
 202 1029 l 1,295,-1
 202 1035 l 1,296,-1
 201 1038 l 1,297,298
 201 1044 201 1044 200 1049 c 1,299,-1
 200 1052 l 1,300,-1
 199 1072 l 1,301,302
 197 1086 197 1086 197 1094 c 2,303,-1
 197 1098 l 1,304,-1
 196 1102 l 1,305,-1
 196 1107 l 1,306,307
 195 1113 195 1113 195 1117 c 2,308,-1
 195 1121 l 1,309,-1
 193 1138 l 1,310,-1
 193 1143 l 1,311,-1
 193 1148 l 1,312,-1
 191 1162 l 1,313,-1
 191 1169 l 1,314,-1
 191 1173 l 1,315,-1
 190 1177 l 1,316,-1
 190 1180 l 1,317,-1
 190 1184 l 1,318,319
 188 1200 188 1200 188 1209 c 1,320,-1
 187 1213 l 1,321,-1
 187 1224 l 1,322,323
 184 1237 184 1237 185 1246 c 1,324,-1
 185 1249 l 1,325,326
 184 1250 184 1250 184 1252 c 2,327,-1
 184 1255 l 1,328,-1
 182 1275 l 1,329,-1
 181 1292 l 1,330,-1
 181 1296 l 1,331,-1
 179 1313 l 2,332,333
 179 1321 179 1321 178 1326 c 1,334,-1
 178 1334 l 1,335,-1
 177 1339 l 1,336,-1
 177 1343 l 1,337,-1
 176 1360 l 1,338,-1
 175 1364 l 1,339,-1
 175 1374 l 1,340,-1
 174 1377 l 1,341,342
 174 1383 174 1383 173 1388 c 1,343,-1
 173 1392 l 1,344,-1
 173 1399 l 1,345,346
 171 1410 171 1410 171 1417 c 1,347,348
 170 1420 170 1420 168 1420 c 1,349,-1
 167 1418 l 1,0,-1
EndSplineSet
Substitution2: "'fina' Terminal Forms in Arabic lookup 3 subtable" aleffinal
Substitution2: "'isol' Isolated Forms in Arabic lookup 0 subtable" alefisolated
EndChar

StartChar: beh
Encoding: 164 1576 14
Width: 1399
Flags: W
AnchorPoint: "belowsingle" 664.833 -646.1 basechar 0
AnchorPoint: "abovesingle" 646.833 1078.9 basechar 0
LayerCount: 2
Fore
SplineSet
1248 720 m 1,0,-1
 1246 716 l 2,1,2
 1245 714 1245 714 1244 714 c 2,3,-1
 1243 711 l 1,4,-1
 1239 705 l 1,5,-1
 1235 698 l 1,6,7
 1231 687 1231 687 1225 680 c 1,8,-1
 1223 674 l 1,9,-1
 1221 670 l 1,10,-1
 1218 665 l 1,11,12
 1215 657 1215 657 1211 652 c 1,13,-1
 1209 647 l 1,14,-1
 1207 642 l 1,15,-1
 1204 637 l 1,16,-1
 1202 631 l 1,17,-1
 1201 629 l 1,18,-1
 1199 625 l 1,19,-1
 1196 618 l 1,20,-1
 1195 615 l 1,21,-1
 1188 600 l 1,22,-1
 1187 597 l 1,23,-1
 1186 594 l 1,24,-1
 1185 590 l 1,25,-1
 1183 587 l 1,26,-1
 1174 562 l 1,27,28
 1258 434 1258 434 1262 298 c 1,29,-1
 1257 295 l 1,30,-1
 1251 292 l 1,31,-1
 1248 290 l 1,32,-1
 1238 286 l 1,33,-1
 1236 284 l 1,34,-1
 1233 283 l 1,35,-1
 1231 282 l 2,36,37
 1226 279 1226 279 1222 278 c 1,38,-1
 1213 273 l 1,39,-1
 1208 271 l 1,40,-1
 1205 270 l 1,41,42
 1200 267 1200 267 1196 266 c 1,43,-1
 1194 264 l 1,44,-1
 1190 263 l 1,45,-1
 1187 261 l 1,46,-1
 1184 260 l 1,47,-1
 1182 259 l 1,48,-1
 1179 258 l 1,49,-1
 1167 252 l 1,50,-1
 1163 251 l 1,51,-1
 1159 249 l 1,52,-1
 1155 247 l 1,53,-1
 1151 246 l 1,54,-1
 1148 244 l 1,55,-1
 1135 239 l 1,56,-1
 1131 238 l 1,57,-1
 1129 236 l 1,58,-1
 1126 236 l 1,59,-1
 1111 229 l 1,60,-1
 1108 229 l 1,61,-1
 1101 226 l 2,62,63
 1096 223 1096 223 1092 223 c 1,64,-1
 1090 221 l 1,65,-1
 1087 221 l 1,66,67
 1085 220 1085 220 1084 220 c 0,68,69
 1077 216 1077 216 1072 215 c 2,70,-1
 1050 208 l 1,71,-1
 1028 200 l 1,72,73
 1018 198 1018 198 1011 195 c 1,74,-1
 1008 195 l 1,75,-1
 1005 193 l 1,76,-1
 1002 193 l 1,77,-1
 995 190 l 1,78,-1
 992 190 l 1,79,-1
 984 188 l 1,80,81
 977 185 977 185 972 184 c 2,82,-1
 968 183 l 1,83,-1
 964 182 l 1,84,-1
 960 181 l 1,85,-1
 956 180 l 1,86,-1
 953 179 l 1,87,-1
 950 178 l 1,88,-1
 946 178 l 1,89,-1
 938 176 l 1,90,91
 929 172 929 172 921 172 c 1,92,-1
 917 170 l 1,93,-1
 912 170 l 1,94,-1
 908 168 l 1,95,-1
 903 168 l 1,96,-1
 899 166 l 1,97,-1
 884 164 l 1,98,-1
 880 163 l 1,99,-1
 874 162 l 1,100,101
 866 159 866 159 859 159 c 1,102,-1
 846 156 l 1,103,-1
 842 156 l 1,104,-1
 840 155 l 1,105,-1
 837 155 l 1,106,-1
 834 155 l 1,107,108
 824 152 824 152 817 152 c 2,109,-1
 803 150 l 1,110,-1
 799 149 l 1,111,-1
 794 149 l 1,112,113
 788 148 788 148 783 148 c 1,114,115
 779 146 779 146 775 147 c 1,116,-1
 773 146 l 1,117,-1
 754 145 l 1,118,119
 748 143 748 143 743 144 c 1,120,-1
 740 143 l 1,121,-1
 733 143 l 1,122,-1
 730 143 l 1,123,124
 719 141 719 141 711 142 c 1,125,-1
 707 141 l 1,126,-1
 702 141 l 1,127,-1
 697 141 l 1,128,-1
 694 141 l 1,129,-1
 687 141 l 1,130,-1
 681 140 l 1,131,-1
 668 140 l 1,132,-1
 637 140 l 2,133,134
 629 140 629 140 623 141 c 1,135,-1
 620 141 l 1,136,-1
 617 141 l 2,137,138
 607 141 607 141 600 142 c 1,139,140
 592 141 592 141 585 143 c 1,141,142
 578 143 578 143 573 144 c 1,143,-1
 569 144 l 1,144,-1
 566 144 l 1,145,-1
 564 145 l 1,146,-1
 546 146 l 1,147,-1
 538 148 l 1,148,-1
 530 148 l 1,149,-1
 523 150 l 1,150,151
 512 150 512 150 505 153 c 1,152,-1
 502 153 l 1,153,-1
 499 153 l 1,154,-1
 496 154 l 1,155,-1
 483 157 l 1,156,-1
 480 157 l 1,157,158
 474 159 474 159 470 159 c 1,159,160
 465 161 465 161 461 161 c 1,161,-1
 449 165 l 1,162,-1
 446 165 l 1,163,-1
 444 166 l 1,164,165
 435 168 435 168 430 170 c 2,166,-1
 426 171 l 2,167,168
 419 173 419 173 414 175 c 2,169,-1
 410 176 l 1,170,-1
 406 178 l 1,171,172
 392 181 392 181 382 187 c 1,173,174
 379 187 379 187 378 188 c 2,175,-1
 368 192 l 1,176,-1
 365 193 l 1,177,-1
 360 195 l 1,178,-1
 357 197 l 1,179,-1
 354 198 l 1,180,-1
 352 200 l 1,181,-1
 330 210 l 1,182,-1
 329 212 l 1,183,184
 321 215 321 215 316 219 c 1,185,-1
 313 220 l 1,186,-1
 307 225 l 1,187,-1
 300 229 l 2,188,189
 298 230 298 230 298 231 c 2,190,-1
 296 232 l 2,191,192
 279 241 279 241 270 252 c 1,193,-1
 267 254 l 2,194,195
 265 255 265 255 265 256 c 2,196,-1
 262 258 l 1,197,-1
 260 259 l 1,198,-1
 258 261 l 1,199,-1
 256 263 l 1,200,-1
 254 265 l 1,201,-1
 252 267 l 1,202,-1
 251 269 l 1,203,204
 249 270 249 270 249 271 c 2,205,-1
 237 282 l 1,206,207
 146 396 146 396 174 528 c 1,208,209
 174 534 174 534 176 539 c 1,210,-1
 176 543 l 1,211,-1
 177 547 l 1,212,-1
 178 551 l 1,213,-1
 179 555 l 1,214,-1
 180 557 l 1,215,-1
 182 569 l 2,216,217
 184 575 184 575 185 579 c 2,218,-1
 186 583 l 1,219,-1
 188 587 l 1,220,221
 188 590 188 590 189 591 c 2,222,-1
 190 594 l 2,223,224
 191 598 191 598 193 601 c 1,225,-1
 193 604 l 1,226,-1
 194 607 l 1,227,-1
 200 623 l 2,228,229
 207 644 207 644 194 647 c 1,230,-1
 192 645 l 1,231,-1
 177 632 l 1,232,-1
 175 628 l 1,233,-1
 172 625 l 1,234,-1
 170 621 l 1,235,-1
 167 618 l 1,236,-1
 165 614 l 1,237,-1
 163 612 l 1,238,-1
 161 609 l 1,239,-1
 159 606 l 2,240,241
 157 602 157 602 154 599 c 1,242,243
 150 589 150 589 146 584 c 1,244,-1
 145 579 l 1,245,-1
 139 568 l 1,246,-1
 134 554 l 1,247,-1
 132 550 l 2,248,249
 129 542 129 542 126 537 c 1,250,-1
 125 532 l 1,251,-1
 123 527 l 1,252,-1
 122 524 l 1,253,-1
 121 520 l 1,254,255
 116 510 116 510 115 503 c 1,256,-1
 113 499 l 1,257,-1
 112 493 l 1,258,-1
 110 488 l 1,259,-1
 109 484 l 1,260,-1
 108 480 l 1,261,-1
 107 477 l 1,262,-1
 106 474 l 1,263,-1
 105 470 l 1,264,-1
 103 463 l 1,265,-1
 102 461 l 1,266,267
 101 452 101 452 98 445 c 1,268,269
 97 435 97 435 95 428 c 2,270,-1
 94 425 l 1,271,-1
 94 421 l 1,272,-1
 92 411 l 1,273,-1
 92 407 l 1,274,275
 90 401 90 401 90 392 c 1,276,-1
 89 390 l 1,277,-1
 88 374 l 1,278,-1
 88 371 l 1,279,280
 86 365 86 365 87 360 c 1,281,-1
 87 308 l 1,282,283
 89 301 89 301 88 296 c 1,284,285
 89 292 89 292 89 288 c 0,286,287
 91 280 91 280 91 274 c 1,288,289
 92 272 92 272 92 271 c 2,290,-1
 93 264 l 1,291,292
 96 256 96 256 96 250 c 1,293,-1
 98 246 l 1,294,-1
 99 238 l 1,295,-1
 105 222 l 1,296,-1
 106 218 l 2,297,298
 108 212 108 212 109 208 c 1,299,300
 113 202 113 202 114 197 c 2,301,-1
 115 194 l 1,302,-1
 117 192 l 1,303,-1
 118 189 l 1,304,-1
 119 187 l 1,305,-1
 120 185 l 1,306,-1
 122 179 l 1,307,308
 127 173 127 173 128 168 c 1,309,310
 130 167 130 167 130 166 c 0,311,312
 134 160 134 160 136 155 c 1,313,314
 141 150 141 150 143 146 c 2,315,-1
 144 143 l 1,316,-1
 146 142 l 1,317,-1
 147 139 l 1,318,319
 157 129 157 129 161 121 c 1,320,-1
 164 118 l 2,321,322
 169 114 169 114 172 109 c 1,323,-1
 177 105 l 1,324,-1
 180 101 l 1,325,-1
 183 99 l 1,326,-1
 186 96 l 1,327,-1
 194 88 l 2,328,329
 196 87 196 87 196 86 c 2,330,-1
 198 85 l 1,331,-1
 200 84 l 1,332,-1
 202 82 l 1,333,-1
 203 80 l 1,334,335
 212 75 212 75 217 69 c 1,336,-1
 222 67 l 1,337,-1
 224 64 l 1,338,-1
 228 62 l 2,339,340
 235 58 235 58 238 55 c 1,341,-1
 241 54 l 1,342,-1
 243 53 l 1,343,-1
 245 51 l 1,344,-1
 248 49 l 1,345,-1
 255 45 l 1,346,-1
 257 44 l 1,347,-1
 259 43 l 1,348,-1
 261 42 l 2,349,350
 268 39 268 39 273 36 c 1,351,-1
 276 35 l 1,352,-1
 278 34 l 2,353,354
 282 33 282 33 285 31 c 1,355,356
 296 28 296 28 303 24 c 1,357,-1
 309 23 l 1,358,-1
 313 21 l 1,359,-1
 316 20 l 1,360,-1
 319 19 l 1,361,-1
 323 18 l 1,362,-1
 326 16 l 1,363,364
 329 16 329 16 330 15 c 0,365,366
 346 11 346 11 355 7 c 1,367,-1
 360 6 l 1,368,-1
 366 4 l 1,369,-1
 371 3 l 2,370,371
 379 2 379 2 384 0 c 2,372,-1
 398 -3 l 1,373,-1
 401 -4 l 1,374,-1
 412 -6 l 1,375,-1
 428 -10 l 1,376,-1
 431 -10 l 1,377,-1
 452 -14 l 1,378,379
 458 -14 458 -14 463 -16 c 1,380,-1
 467 -16 l 1,381,-1
 470 -16 l 1,382,-1
 472 -17 l 1,383,384
 480 -17 480 -17 486 -19 c 1,385,-1
 493 -20 l 1,386,-1
 496 -20 l 1,387,-1
 499 -20 l 1,388,-1
 515 -22 l 1,389,-1
 522 -22 l 1,390,-1
 528 -23 l 1,391,-1
 531 -23 l 1,392,-1
 533 -24 l 1,393,-1
 545 -24 l 1,394,-1
 551 -25 l 1,395,-1
 556 -25 l 1,396,-1
 559 -25 l 1,397,-1
 562 -25 l 1,398,399
 567 -26 567 -26 570 -26 c 2,400,-1
 576 -26 l 1,401,-1
 580 -26 l 1,402,-1
 583 -26 l 1,403,-1
 603 -26 l 1,404,-1
 608 -26 l 1,405,-1
 613 -26 l 1,406,-1
 618 -26 l 1,407,-1
 621 -26 l 1,408,-1
 634 -26 l 1,409,-1
 648 -26 l 1,410,-1
 653 -26 l 1,411,-1
 657 -26 l 1,412,-1
 662 -26 l 1,413,414
 675 -25 675 -25 684 -25 c 1,415,-1
 688 -24 l 1,416,-1
 699 -24 l 1,417,-1
 703 -23 l 1,418,-1
 706 -23 l 1,419,-1
 728 -21 l 1,420,-1
 734 -20 l 1,421,422
 743 -20 743 -20 750 -18 c 1,423,-1
 756 -18 l 1,424,-1
 762 -17 l 1,425,-1
 767 -16 l 1,426,-1
 773 -15 l 1,427,-1
 777 -15 l 1,428,-1
 783 -14 l 1,429,-1
 788 -13 l 1,430,-1
 791 -13 l 1,431,-1
 797 -12 l 1,432,-1
 801 -11 l 1,433,-1
 807 -10 l 1,434,-1
 811 -9 l 1,435,-1
 825 -7 l 1,436,-1
 833 -5 l 1,437,-1
 835 -4 l 1,438,-1
 838 -4 l 1,439,440
 847 -1 847 -1 854 -1 c 1,441,-1
 858 1 l 1,442,-1
 874 4 l 1,443,444
 882 7 882 7 887 7 c 1,445,446
 893 10 893 10 897 10 c 2,447,-1
 901 11 l 1,448,-1
 903 12 l 1,449,-1
 911 14 l 1,450,-1
 919 17 l 1,451,-1
 936 21 l 1,452,453
 944 25 944 25 950 26 c 1,454,455
 956 29 956 29 961 29 c 1,456,457
 970 34 970 34 978 35 c 1,458,-1
 981 37 l 1,459,-1
 984 38 l 1,460,-1
 994 41 l 1,461,462
 1005 47 1005 47 1014 49 c 1,463,464
 1020 52 1020 52 1024 54 c 2,465,-1
 1026 55 l 1,466,-1
 1029 55 l 1,467,468
 1035 59 1035 59 1041 61 c 2,469,-1
 1043 62 l 1,470,-1
 1065 71 l 1,471,472
 1072 76 1072 76 1077 78 c 2,473,-1
 1089 83 l 1,474,-1
 1093 86 l 1,475,-1
 1097 87 l 1,476,-1
 1101 90 l 2,477,478
 1106 93 1106 93 1110 94 c 1,479,-1
 1112 96 l 1,480,-1
 1116 97 l 1,481,-1
 1118 99 l 1,482,-1
 1121 100 l 1,483,484
 1127 105 1127 105 1133 107 c 1,485,-1
 1137 110 l 1,486,-1
 1142 112 l 1,487,488
 1150 118 1150 118 1156 121 c 2,489,-1
 1159 122 l 1,490,491
 1168 130 1168 130 1176 133 c 1,492,-1
 1179 136 l 1,493,-1
 1190 142 l 1,494,495
 1194 146 1194 146 1198 148 c 1,496,-1
 1200 150 l 1,497,-1
 1204 152 l 1,498,-1
 1210 156 l 1,499,500
 1221 166 1221 166 1228 170 c 1,501,502
 1233 178 1233 178 1237 183 c 2,503,-1
 1247 195 l 1,504,-1
 1249 198 l 1,505,-1
 1251 201 l 1,506,-1
 1252 204 l 1,507,-1
 1254 206 l 1,508,-1
 1255 208 l 1,509,-1
 1257 209 l 1,510,511
 1262 219 1262 219 1266 224 c 1,512,-1
 1268 228 l 1,513,-1
 1274 236 l 1,514,-1
 1276 240 l 1,515,-1
 1277 243 l 1,516,517
 1282 251 1282 251 1285 258 c 1,518,-1
 1287 260 l 1,519,-1
 1292 271 l 1,520,-1
 1293 274 l 1,521,522
 1300 285 1300 285 1302 294 c 1,523,-1
 1307 303 l 1,524,-1
 1308 308 l 1,525,-1
 1309 312 l 1,526,527
 1312 318 1312 318 1313 323 c 1,528,-1
 1315 326 l 1,529,-1
 1316 332 l 1,530,-1
 1317 336 l 1,531,-1
 1319 339 l 1,532,-1
 1319 343 l 1,533,-1
 1321 346 l 1,534,-1
 1321 349 l 1,535,-1
 1322 351 l 1,536,-1
 1324 360 l 1,537,-1
 1324 363 l 1,538,539
 1327 371 1327 371 1327 377 c 1,540,-1
 1330 390 l 1,541,-1
 1330 395 l 1,542,-1
 1331 398 l 1,543,-1
 1331 401 l 1,544,-1
 1333 421 l 1,545,-1
 1333 434 l 1,546,-1
 1333 438 l 1,547,-1
 1333 442 l 1,548,-1
 1333 446 l 1,549,-1
 1333 463 l 1,550,-1
 1333 466 l 1,551,-1
 1333 478 l 1,552,-1
 1332 483 l 1,553,-1
 1332 489 l 1,554,555
 1331 492 1331 492 1331 494 c 2,556,-1
 1330 500 l 1,557,-1
 1330 505 l 1,558,559
 1329 508 1329 508 1329 510 c 2,560,-1
 1328 513 l 1,561,-1
 1328 516 l 1,562,-1
 1327 518 l 1,563,-1
 1327 521 l 1,564,-1
 1325 534 l 2,565,566
 1324 536 1324 536 1324 537 c 2,567,-1
 1319 560 l 2,568,569
 1318 562 1318 562 1318 563 c 2,570,-1
 1316 567 l 1,571,-1
 1316 570 l 1,572,-1
 1315 574 l 1,573,574
 1311 581 1311 581 1310 587 c 2,575,-1
 1308 596 l 1,576,577
 1300 612 1300 612 1298 623 c 1,578,-1
 1295 628 l 1,579,-1
 1294 630 l 1,580,-1
 1290 642 l 1,581,582
 1286 647 1286 647 1285 653 c 1,583,-1
 1282 658 l 1,584,-1
 1280 663 l 1,585,586
 1275 671 1275 671 1273 678 c 1,587,-1
 1270 681 l 1,588,-1
 1266 690 l 1,589,-1
 1265 693 l 1,590,591
 1260 699 1260 699 1258 706 c 1,592,593
 1253 712 1253 712 1251 718 c 1,594,-1
 1250 719 l 1,595,-1
 1248 720 l 1,0,-1
660 -315 m 1,596,597
 650 -328 650 -328 552 -424 c 1,598,599
 606 -502 606 -502 669 -541 c 1,600,601
 780 -428 780 -428 785 -425 c 1,602,-1
 783 -422 l 1,603,604
 724 -374 724 -374 699.5 -346 c 128,-1,605
 675 -318 675 -318 660 -315 c 1,596,597
EndSplineSet
Substitution2: "'fina' Terminal Forms in Arabic lookup 3 subtable" behfinal
Substitution2: "'medi' Medial Forms in Arabic lookup 2 subtable" behmedial
Substitution2: "'init' Initial Forms in Arabic lookup 1 subtable" behinitial
Substitution2: "'isol' Isolated Forms in Arabic lookup 0 subtable" behisolated
EndChar

StartChar: tehmarbuta
Encoding: 165 1577 15
Width: 629
Flags: W
AnchorPoint: "abovesingle" 324 1497 basechar 0
AnchorPoint: "belowsingle" 282 -195 basechar 0
LayerCount: 2
Fore
SplineSet
210 586 m 1,1,-1
 208 583 l 1,2,-1
 206 580 l 1,3,-1
 204 577 l 1,4,-1
 202 575 l 1,5,-1
 201 572 l 1,6,-1
 199 569 l 1,7,-1
 197 568 l 1,8,9
 196 564 196 564 194 561 c 2,10,-1
 190 555 l 1,11,-1
 189 553 l 1,12,-1
 187 552 l 1,13,-1
 180 539 l 1,14,-1
 177 536 l 1,15,16
 172 524 172 524 166 518 c 1,17,18
 163 510 163 510 160 506 c 0,19,20
 156 500 156 500 154 495 c 1,21,-1
 151 492 l 1,22,-1
 149 488 l 1,23,-1
 147 484 l 1,24,-1
 145 480 l 1,25,-1
 143 476 l 1,26,-1
 136 465 l 1,27,-1
 126 444 l 1,28,-1
 124 440 l 1,29,-1
 122 437 l 1,30,-1
 120 435 l 1,31,-1
 119 432 l 1,32,-1
 118 429 l 1,33,-1
 117 427 l 1,34,-1
 116 424 l 1,35,36
 111 415 111 415 108 408 c 2,37,-1
 102 397 l 1,38,-1
 100 392 l 1,39,-1
 99 389 l 1,40,-1
 98 387 l 1,41,-1
 97 384 l 1,42,-1
 90 368 l 1,43,-1
 88 363 l 1,44,-1
 85 353 l 1,45,-1
 84 351 l 2,46,47
 82 346 82 346 81 343 c 2,48,-1
 80 340 l 1,49,-1
 73 322 l 1,50,-1
 70 308 l 1,51,-1
 66 297 l 1,52,-1
 65 292 l 1,53,-1
 63 283 l 1,54,-1
 62 279 l 1,55,-1
 61 276 l 1,56,-1
 60 271 l 1,57,58
 60 260 60 260 57 253 c 1,59,-1
 57 247 l 1,60,-1
 56 243 l 1,61,-1
 56 236 l 1,62,63
 55 232 55 232 55 228 c 2,64,-1
 55 185 l 1,65,66
 84 12 84 12 258 13 c 1,67,-1
 289 14 l 1,68,-1
 292 15 l 1,69,-1
 295 15 l 1,70,-1
 298 15 l 1,71,72
 304 17 304 17 310 17 c 1,73,74
 483 61 483 61 547 211 c 1,75,-1
 549 214 l 1,76,-1
 549 217 l 1,77,78
 553 224 553 224 555 232 c 1,79,80
 560 243 560 243 561 250 c 2,81,-1
 562 254 l 1,82,-1
 564 258 l 1,83,-1
 565 262 l 1,84,-1
 565 266 l 1,85,-1
 567 270 l 1,86,-1
 567 274 l 1,87,-1
 568 278 l 1,88,-1
 569 281 l 1,89,-1
 569 284 l 1,90,91
 571 292 571 292 572 297 c 1,92,-1
 572 301 l 1,93,-1
 573 303 l 1,94,95
 573 311 573 311 575 317 c 1,96,-1
 575 320 l 1,97,-1
 575 323 l 1,98,-1
 575 336 l 1,99,-1
 575 340 l 1,100,101
 573 348 573 348 573 354 c 2,102,-1
 572 360 l 1,103,-1
 571 364 l 1,104,-1
 571 367 l 1,105,-1
 569 375 l 1,106,-1
 567 387 l 1,107,-1
 566 389 l 1,108,-1
 566 392 l 1,109,110
 562 401 562 401 562 409 c 1,111,-1
 560 413 l 1,112,-1
 559 416 l 1,113,-1
 557 426 l 1,114,-1
 551 443 l 1,115,-1
 550 445 l 1,116,-1
 550 448 l 1,117,118
 545 457 545 457 544 465 c 1,119,-1
 542 468 l 1,120,-1
 541 472 l 2,121,122
 540 473 540 473 540 474 c 2,123,-1
 537 481 l 1,124,-1
 536 484 l 1,125,126
 531 493 531 493 529 500 c 1,127,-1
 526 504 l 1,128,-1
 522 514 l 2,129,130
 521 515 521 515 521 516 c 2,131,-1
 519 518 l 1,132,133
 515 528 515 528 511 533 c 1,134,-1
 504 546 l 1,135,-1
 495 559 l 1,136,-1
 494 563 l 1,137,138
 489 568 489 568 487 572 c 0,139,140
 484 577 484 577 482 581 c 1,141,-1
 480 582 l 1,142,-1
 478 585 l 1,143,-1
 477 587 l 1,144,145
 469 596 469 596 466 603 c 1,146,-1
 463 605 l 1,147,-1
 456 614 l 1,148,-1
 455 617 l 1,149,-1
 452 620 l 1,150,-1
 448 624 l 1,151,-1
 446 627 l 1,152,-1
 444 630 l 1,153,-1
 441 632 l 1,154,-1
 439 635 l 1,155,-1
 438 637 l 1,156,-1
 432 642 l 1,157,-1
 419 658 l 1,158,-1
 415 661 l 1,159,-1
 406 671 l 1,160,-1
 402 674 l 1,161,-1
 393 684 l 1,162,-1
 391 685 l 1,163,-1
 379 696 l 1,164,-1
 378 698 l 1,165,166
 374 700 374 700 372 703 c 1,167,168
 364 709 364 709 360 714 c 1,169,-1
 356 717 l 2,170,171
 354 718 354 718 354 719 c 0,172,173
 345 725 345 725 340 730 c 2,174,-1
 335 734 l 1,175,-1
 332 737 l 1,176,177
 327 740 327 740 324 743 c 2,178,-1
 294 765 l 1,179,-1
 292 765 l 1,180,-1
 294 765 l 1,181,-1
 292 765 l 1,182,0
 212 687 212 687 210 586 c 1,1,-1
305 538 m 1,183,-1
 308 536 l 1,184,-1
 317 529 l 1,185,-1
 318 527 l 1,186,187
 328 520 328 520 333 514 c 2,188,-1
 336 511 l 1,189,-1
 338 510 l 1,190,-1
 339 508 l 1,191,192
 346 503 346 503 349 498 c 1,193,-1
 352 496 l 1,194,-1
 354 493 l 1,195,196
 356 492 356 492 356 491 c 0,197,198
 364 485 364 485 367 479 c 1,199,-1
 369 478 l 1,200,-1
 371 476 l 1,201,-1
 372 474 l 1,202,203
 379 469 379 469 382 463 c 1,204,205
 389 458 389 458 392 451 c 1,206,-1
 394 450 l 1,207,-1
 395 448 l 1,208,209
 402 441 402 441 405 435 c 1,210,-1
 407 434 l 1,211,212
 411 429 411 429 413 425 c 1,213,-1
 415 424 l 1,214,-1
 417 421 l 2,215,216
 423 413 423 413 426 407 c 1,217,-1
 431 402 l 1,218,-1
 432 400 l 1,219,-1
 433 397 l 1,220,221
 438 392 438 392 440 386 c 1,222,-1
 442 385 l 1,223,224
 446 377 446 377 450 372 c 1,225,-1
 451 369 l 1,226,-1
 452 366 l 1,227,228
 460 357 460 357 462 348 c 1,229,230
 468 339 468 339 470 331 c 1,231,232
 474 326 474 326 475 320 c 1,233,234
 480 312 480 312 481 305 c 1,235,-1
 483 302 l 1,236,-1
 483 299 l 1,237,238
 484 298 484 298 484 296 c 1,239,-1
 486 294 l 1,240,-1
 487 290 l 1,241,-1
 487 287 l 1,242,243
 490 283 490 283 490 279 c 1,244,-1
 491 276 l 1,245,-1
 497 251 l 1,246,247
 493 248 493 248 490 246 c 0,248,249
 483 239 483 239 476 236 c 1,250,251
 468 228 468 228 459 225 c 1,252,253
 458 223 458 223 457 223 c 2,254,-1
 455 221 l 1,255,-1
 451 220 l 1,256,257
 450 218 450 218 449 218 c 2,258,-1
 446 217 l 1,259,-1
 444 215 l 1,260,-1
 433 209 l 1,261,-1
 429 208 l 1,262,-1
 427 206 l 1,263,-1
 423 205 l 1,264,-1
 416 202 l 1,265,-1
 414 200 l 1,266,-1
 393 193 l 1,267,268
 318 166 318 166 251 190 c 1,269,270
 184 220 184 220 175 288 c 1,271,-1
 175 291 l 1,272,-1
 174 311 l 1,273,274
 210 451 210 451 302 540 c 1,275,-1
 305 538 l 1,183,-1
441 1307 m 1,276,277
 431 1294 431 1294 333 1198 c 1,278,279
 387 1120 387 1120 450 1081 c 1,280,-1
 564 1200 l 1,281,282
 505 1249 505 1249 480.5 1276.5 c 128,-1,283
 456 1304 456 1304 441 1307 c 1,276,277
208 1307 m 1,284,285
 198 1294 198 1294 100 1198 c 1,286,287
 154 1120 154 1120 217 1081 c 1,288,-1
 333 1197 l 1,289,-1
 331 1200 l 1,290,291
 272 1248 272 1248 247.5 1276 c 128,-1,292
 223 1304 223 1304 208 1307 c 1,284,285
EndSplineSet
Substitution2: "'fina' Terminal Forms in Arabic lookup 3 subtable" tehmarbutafinal
Substitution2: "'isol' Isolated Forms in Arabic lookup 0 subtable" tehmarbutaisolated
EndChar

StartChar: teh
Encoding: 166 1578 16
Width: 1441
Flags: W
AnchorPoint: "belowsingle" 684 -210 basechar 0
AnchorPoint: "abovesingle" 667.833 1434.1 basechar 0
LayerCount: 2
Fore
SplineSet
1248 725 m 1,0,-1
 1246 721 l 2,1,2
 1245 719 1245 719 1244 719 c 2,3,-1
 1243 716 l 1,4,-1
 1239 710 l 1,5,-1
 1235 703 l 1,6,7
 1231 692 1231 692 1225 685 c 1,8,-1
 1223 679 l 1,9,-1
 1221 675 l 1,10,-1
 1218 670 l 1,11,12
 1215 662 1215 662 1211 657 c 1,13,-1
 1209 652 l 1,14,-1
 1207 647 l 1,15,-1
 1204 642 l 1,16,-1
 1202 636 l 1,17,-1
 1201 634 l 1,18,-1
 1199 630 l 1,19,-1
 1196 623 l 1,20,-1
 1195 620 l 1,21,-1
 1188 605 l 1,22,-1
 1187 602 l 1,23,-1
 1186 599 l 1,24,-1
 1185 595 l 1,25,-1
 1183 592 l 1,26,-1
 1174 567 l 1,27,28
 1258 439 1258 439 1262 303 c 1,29,-1
 1257 300 l 1,30,-1
 1251 297 l 1,31,-1
 1248 295 l 1,32,-1
 1238 291 l 1,33,-1
 1236 289 l 1,34,-1
 1233 288 l 1,35,-1
 1231 287 l 2,36,37
 1226 284 1226 284 1222 283 c 1,38,-1
 1213 278 l 1,39,-1
 1208 276 l 1,40,-1
 1205 275 l 1,41,42
 1200 272 1200 272 1196 271 c 1,43,-1
 1194 269 l 1,44,-1
 1190 268 l 1,45,-1
 1187 266 l 1,46,-1
 1184 265 l 1,47,-1
 1182 264 l 1,48,-1
 1179 263 l 1,49,-1
 1167 257 l 1,50,-1
 1163 256 l 1,51,-1
 1159 254 l 1,52,-1
 1155 252 l 1,53,-1
 1151 251 l 1,54,-1
 1148 249 l 1,55,-1
 1135 244 l 1,56,-1
 1131 243 l 1,57,-1
 1129 241 l 1,58,-1
 1126 241 l 1,59,-1
 1111 234 l 1,60,-1
 1108 234 l 1,61,-1
 1101 231 l 2,62,63
 1096 228 1096 228 1092 228 c 1,64,-1
 1090 226 l 1,65,-1
 1087 226 l 1,66,67
 1085 225 1085 225 1084 225 c 0,68,69
 1077 221 1077 221 1072 220 c 2,70,-1
 1050 213 l 1,71,-1
 1028 205 l 1,72,73
 1018 203 1018 203 1011 200 c 1,74,-1
 1008 200 l 1,75,-1
 1005 198 l 1,76,-1
 1002 198 l 1,77,-1
 995 195 l 1,78,-1
 992 195 l 1,79,-1
 984 193 l 1,80,81
 977 190 977 190 972 189 c 2,82,-1
 968 188 l 1,83,-1
 964 187 l 1,84,-1
 960 186 l 1,85,-1
 956 185 l 1,86,-1
 953 184 l 1,87,-1
 950 183 l 1,88,-1
 946 183 l 1,89,-1
 938 181 l 1,90,91
 929 177 929 177 921 177 c 1,92,-1
 917 175 l 1,93,-1
 912 175 l 1,94,-1
 908 173 l 1,95,-1
 903 173 l 1,96,-1
 899 171 l 1,97,-1
 884 169 l 1,98,-1
 880 168 l 1,99,-1
 874 167 l 1,100,101
 866 164 866 164 859 164 c 1,102,-1
 846 161 l 1,103,-1
 842 161 l 1,104,-1
 840 160 l 1,105,-1
 837 160 l 1,106,-1
 834 160 l 1,107,108
 824 157 824 157 817 157 c 2,109,-1
 803 155 l 1,110,-1
 799 154 l 1,111,-1
 794 154 l 1,112,113
 788 153 788 153 783 153 c 1,114,115
 779 151 779 151 775 152 c 1,116,-1
 773 151 l 1,117,-1
 754 150 l 1,118,119
 748 148 748 148 743 149 c 1,120,-1
 740 148 l 1,121,-1
 733 148 l 1,122,-1
 730 148 l 1,123,124
 719 146 719 146 711 147 c 1,125,-1
 707 146 l 1,126,-1
 702 146 l 1,127,-1
 697 146 l 1,128,-1
 694 146 l 1,129,-1
 687 146 l 1,130,-1
 681 145 l 1,131,-1
 668 145 l 1,132,-1
 637 145 l 2,133,134
 629 145 629 145 623 146 c 1,135,-1
 620 146 l 1,136,-1
 617 146 l 2,137,138
 607 146 607 146 600 147 c 1,139,140
 592 146 592 146 585 148 c 1,141,142
 578 148 578 148 573 149 c 1,143,-1
 569 149 l 1,144,-1
 566 149 l 1,145,-1
 564 150 l 1,146,-1
 546 151 l 1,147,-1
 538 153 l 1,148,-1
 530 153 l 1,149,-1
 523 155 l 1,150,151
 512 155 512 155 505 158 c 1,152,-1
 502 158 l 1,153,-1
 499 158 l 1,154,-1
 496 159 l 1,155,-1
 483 162 l 1,156,-1
 480 162 l 1,157,158
 474 164 474 164 470 164 c 1,159,160
 465 166 465 166 461 166 c 1,161,-1
 449 170 l 1,162,-1
 446 170 l 1,163,-1
 444 171 l 1,164,165
 435 173 435 173 430 175 c 2,166,-1
 426 176 l 2,167,168
 419 178 419 178 414 180 c 2,169,-1
 410 181 l 1,170,-1
 406 183 l 1,171,172
 392 186 392 186 382 192 c 1,173,174
 379 192 379 192 378 193 c 2,175,-1
 368 197 l 1,176,-1
 365 198 l 1,177,-1
 360 200 l 1,178,-1
 357 202 l 1,179,-1
 354 203 l 1,180,-1
 352 205 l 1,181,-1
 330 215 l 1,182,-1
 329 217 l 1,183,184
 321 220 321 220 316 224 c 1,185,-1
 313 225 l 1,186,-1
 307 230 l 1,187,-1
 300 234 l 2,188,189
 298 235 298 235 298 236 c 2,190,-1
 296 237 l 2,191,192
 279 246 279 246 270 257 c 1,193,-1
 267 259 l 2,194,195
 265 260 265 260 265 261 c 2,196,-1
 262 263 l 1,197,-1
 260 264 l 1,198,-1
 258 266 l 1,199,-1
 256 268 l 1,200,-1
 254 270 l 1,201,-1
 252 272 l 1,202,-1
 251 274 l 1,203,204
 249 275 249 275 249 276 c 2,205,-1
 237 287 l 1,206,207
 146 401 146 401 174 533 c 1,208,209
 174 539 174 539 176 544 c 1,210,-1
 176 548 l 1,211,-1
 177 552 l 1,212,-1
 178 556 l 1,213,-1
 179 560 l 1,214,-1
 180 562 l 1,215,-1
 182 574 l 2,216,217
 184 580 184 580 185 584 c 2,218,-1
 186 588 l 1,219,-1
 188 592 l 1,220,221
 188 595 188 595 189 596 c 2,222,-1
 190 599 l 2,223,224
 191 603 191 603 193 606 c 1,225,-1
 193 609 l 1,226,-1
 194 612 l 1,227,-1
 200 628 l 2,228,229
 207 649 207 649 194 652 c 1,230,-1
 192 650 l 1,231,-1
 177 637 l 1,232,-1
 175 633 l 1,233,-1
 172 630 l 1,234,-1
 170 626 l 1,235,-1
 167 623 l 1,236,-1
 165 619 l 1,237,-1
 163 617 l 1,238,-1
 161 614 l 1,239,-1
 159 611 l 2,240,241
 157 607 157 607 154 604 c 1,242,243
 150 594 150 594 146 589 c 1,244,-1
 145 584 l 1,245,-1
 139 573 l 1,246,-1
 134 559 l 1,247,-1
 132 555 l 2,248,249
 129 547 129 547 126 542 c 1,250,-1
 125 537 l 1,251,-1
 123 532 l 1,252,-1
 122 529 l 1,253,-1
 121 525 l 1,254,255
 116 515 116 515 115 508 c 1,256,-1
 113 504 l 1,257,-1
 112 498 l 1,258,-1
 110 493 l 1,259,-1
 109 489 l 1,260,-1
 108 485 l 1,261,-1
 107 482 l 1,262,-1
 106 479 l 1,263,-1
 105 475 l 1,264,-1
 103 468 l 1,265,-1
 102 466 l 1,266,267
 101 457 101 457 98 450 c 1,268,269
 97 440 97 440 95 433 c 2,270,-1
 94 430 l 1,271,-1
 94 426 l 1,272,-1
 92 416 l 1,273,-1
 92 412 l 1,274,275
 90 406 90 406 90 397 c 1,276,-1
 89 395 l 1,277,-1
 88 379 l 1,278,-1
 88 376 l 1,279,280
 86 370 86 370 87 365 c 1,281,-1
 87 313 l 1,282,283
 89 306 89 306 88 301 c 1,284,285
 89 297 89 297 89 293 c 0,286,287
 91 285 91 285 91 279 c 1,288,289
 92 277 92 277 92 276 c 2,290,-1
 93 269 l 1,291,292
 96 261 96 261 96 255 c 1,293,-1
 98 251 l 1,294,-1
 99 243 l 1,295,-1
 105 227 l 1,296,-1
 106 223 l 2,297,298
 108 217 108 217 109 213 c 1,299,300
 113 207 113 207 114 202 c 2,301,-1
 115 199 l 1,302,-1
 117 197 l 1,303,-1
 118 194 l 1,304,-1
 119 192 l 1,305,-1
 120 190 l 1,306,-1
 122 184 l 1,307,308
 127 178 127 178 128 173 c 1,309,310
 130 172 130 172 130 171 c 0,311,312
 134 165 134 165 136 160 c 1,313,314
 141 155 141 155 143 151 c 2,315,-1
 144 148 l 1,316,-1
 146 147 l 1,317,-1
 147 144 l 1,318,319
 157 134 157 134 161 126 c 1,320,-1
 164 123 l 2,321,322
 169 119 169 119 172 114 c 1,323,-1
 177 110 l 1,324,-1
 180 106 l 1,325,-1
 183 104 l 1,326,-1
 186 101 l 1,327,-1
 194 93 l 2,328,329
 196 92 196 92 196 91 c 2,330,-1
 198 90 l 1,331,-1
 200 89 l 1,332,-1
 202 87 l 1,333,-1
 203 85 l 1,334,335
 212 80 212 80 217 74 c 1,336,-1
 222 72 l 1,337,-1
 224 69 l 1,338,-1
 228 67 l 2,339,340
 235 63 235 63 238 60 c 1,341,-1
 241 59 l 1,342,-1
 243 58 l 1,343,-1
 245 56 l 1,344,-1
 248 54 l 1,345,-1
 255 50 l 1,346,-1
 257 49 l 1,347,-1
 259 48 l 1,348,-1
 261 47 l 2,349,350
 268 44 268 44 273 41 c 1,351,-1
 276 40 l 1,352,-1
 278 39 l 2,353,354
 282 38 282 38 285 36 c 1,355,356
 296 33 296 33 303 29 c 1,357,-1
 309 28 l 1,358,-1
 313 26 l 1,359,-1
 316 25 l 1,360,-1
 319 24 l 1,361,-1
 323 23 l 1,362,-1
 326 21 l 1,363,364
 329 21 329 21 330 20 c 0,365,366
 346 16 346 16 355 12 c 1,367,-1
 360 11 l 1,368,-1
 366 9 l 1,369,-1
 371 8 l 2,370,371
 379 7 379 7 384 5 c 2,372,-1
 398 2 l 1,373,-1
 401 1 l 1,374,-1
 412 -1 l 1,375,-1
 428 -5 l 1,376,-1
 431 -5 l 1,377,-1
 452 -9 l 1,378,379
 458 -9 458 -9 463 -11 c 1,380,-1
 467 -11 l 1,381,-1
 470 -11 l 1,382,-1
 472 -12 l 1,383,384
 480 -12 480 -12 486 -14 c 1,385,-1
 493 -15 l 1,386,-1
 496 -15 l 1,387,-1
 499 -15 l 1,388,-1
 515 -17 l 1,389,-1
 522 -17 l 1,390,-1
 528 -18 l 1,391,-1
 531 -18 l 1,392,-1
 533 -19 l 1,393,-1
 545 -19 l 1,394,-1
 551 -20 l 1,395,-1
 556 -20 l 1,396,-1
 559 -20 l 1,397,-1
 562 -20 l 1,398,399
 567 -21 567 -21 570 -21 c 2,400,-1
 576 -21 l 1,401,-1
 580 -21 l 1,402,-1
 583 -21 l 1,403,-1
 603 -21 l 1,404,-1
 608 -21 l 1,405,-1
 613 -21 l 1,406,-1
 618 -21 l 1,407,-1
 621 -21 l 1,408,-1
 634 -21 l 1,409,-1
 648 -21 l 1,410,-1
 653 -21 l 1,411,-1
 657 -21 l 1,412,-1
 662 -21 l 1,413,414
 675 -20 675 -20 684 -20 c 1,415,-1
 688 -19 l 1,416,-1
 699 -19 l 1,417,-1
 703 -18 l 1,418,-1
 706 -18 l 1,419,-1
 728 -16 l 1,420,-1
 734 -15 l 1,421,422
 743 -15 743 -15 750 -13 c 1,423,-1
 756 -13 l 1,424,-1
 762 -12 l 1,425,-1
 767 -11 l 1,426,-1
 773 -10 l 1,427,-1
 777 -10 l 1,428,-1
 783 -9 l 1,429,-1
 788 -8 l 1,430,-1
 791 -8 l 1,431,-1
 797 -7 l 1,432,-1
 801 -6 l 1,433,-1
 807 -5 l 1,434,-1
 811 -4 l 1,435,-1
 825 -2 l 1,436,-1
 833 0 l 1,437,-1
 835 1 l 1,438,-1
 838 1 l 1,439,440
 847 4 847 4 854 4 c 1,441,-1
 858 6 l 1,442,-1
 874 9 l 1,443,444
 882 12 882 12 887 12 c 1,445,446
 893 15 893 15 897 15 c 2,447,-1
 901 16 l 1,448,-1
 903 17 l 1,449,-1
 911 19 l 1,450,-1
 919 22 l 1,451,-1
 936 26 l 1,452,453
 944 30 944 30 950 31 c 1,454,455
 956 34 956 34 961 34 c 1,456,457
 970 39 970 39 978 40 c 1,458,-1
 981 42 l 1,459,-1
 984 43 l 1,460,-1
 994 46 l 1,461,462
 1005 52 1005 52 1014 54 c 1,463,464
 1020 57 1020 57 1024 59 c 2,465,-1
 1026 60 l 1,466,-1
 1029 60 l 1,467,468
 1035 64 1035 64 1041 66 c 2,469,-1
 1043 67 l 1,470,-1
 1065 76 l 1,471,472
 1072 81 1072 81 1077 83 c 2,473,-1
 1089 88 l 1,474,-1
 1093 91 l 1,475,-1
 1097 92 l 1,476,-1
 1101 95 l 2,477,478
 1106 98 1106 98 1110 99 c 1,479,-1
 1112 101 l 1,480,-1
 1116 102 l 1,481,-1
 1118 104 l 1,482,-1
 1121 105 l 1,483,484
 1127 110 1127 110 1133 112 c 1,485,-1
 1137 115 l 1,486,-1
 1142 117 l 1,487,488
 1150 123 1150 123 1156 126 c 2,489,-1
 1159 127 l 1,490,491
 1168 135 1168 135 1176 138 c 1,492,-1
 1179 141 l 1,493,-1
 1190 147 l 1,494,495
 1194 151 1194 151 1198 153 c 1,496,-1
 1200 155 l 1,497,-1
 1204 157 l 1,498,-1
 1210 161 l 1,499,500
 1221 171 1221 171 1228 175 c 1,501,502
 1233 183 1233 183 1237 188 c 2,503,-1
 1247 200 l 1,504,-1
 1249 203 l 1,505,-1
 1251 206 l 1,506,-1
 1252 209 l 1,507,-1
 1254 211 l 1,508,-1
 1255 213 l 1,509,-1
 1257 214 l 1,510,511
 1262 224 1262 224 1266 229 c 1,512,-1
 1268 233 l 1,513,-1
 1274 241 l 1,514,-1
 1276 245 l 1,515,-1
 1277 248 l 1,516,517
 1282 256 1282 256 1285 263 c 1,518,-1
 1287 265 l 1,519,-1
 1292 276 l 1,520,-1
 1293 279 l 1,521,522
 1300 290 1300 290 1302 299 c 1,523,-1
 1307 308 l 1,524,-1
 1308 313 l 1,525,-1
 1309 317 l 1,526,527
 1312 323 1312 323 1313 328 c 1,528,-1
 1315 331 l 1,529,-1
 1316 337 l 1,530,-1
 1317 341 l 1,531,-1
 1319 344 l 1,532,-1
 1319 348 l 1,533,-1
 1321 351 l 1,534,-1
 1321 354 l 1,535,-1
 1322 356 l 1,536,-1
 1324 365 l 1,537,-1
 1324 368 l 1,538,539
 1327 376 1327 376 1327 382 c 1,540,-1
 1330 395 l 1,541,-1
 1330 400 l 1,542,-1
 1331 403 l 1,543,-1
 1331 406 l 1,544,-1
 1333 426 l 1,545,-1
 1333 439 l 1,546,-1
 1333 443 l 1,547,-1
 1333 447 l 1,548,-1
 1333 451 l 1,549,-1
 1333 468 l 1,550,-1
 1333 471 l 1,551,-1
 1333 483 l 1,552,-1
 1332 488 l 1,553,-1
 1332 494 l 1,554,555
 1331 497 1331 497 1331 499 c 2,556,-1
 1330 505 l 1,557,-1
 1330 510 l 1,558,559
 1329 513 1329 513 1329 515 c 2,560,-1
 1328 518 l 1,561,-1
 1328 521 l 1,562,-1
 1327 523 l 1,563,-1
 1327 526 l 1,564,-1
 1325 539 l 2,565,566
 1324 541 1324 541 1324 542 c 2,567,-1
 1319 565 l 2,568,569
 1318 567 1318 567 1318 568 c 2,570,-1
 1316 572 l 1,571,-1
 1316 575 l 1,572,-1
 1315 579 l 1,573,574
 1311 586 1311 586 1310 592 c 2,575,-1
 1308 601 l 1,576,577
 1300 617 1300 617 1298 628 c 1,578,-1
 1295 633 l 1,579,-1
 1294 635 l 1,580,-1
 1290 647 l 1,581,582
 1286 652 1286 652 1285 658 c 1,583,-1
 1282 663 l 1,584,-1
 1280 668 l 1,585,586
 1275 676 1275 676 1273 683 c 1,587,-1
 1270 686 l 1,588,-1
 1266 695 l 1,589,-1
 1265 698 l 1,590,591
 1260 704 1260 704 1258 711 c 1,592,593
 1253 717 1253 717 1251 723 c 1,594,-1
 1250 724 l 1,595,-1
 1248 725 l 1,0,-1
809 1088 m 1,596,597
 799 1075 799 1075 701 979 c 1,598,599
 755 901 755 901 818 862 c 1,600,-1
 932 981 l 1,601,602
 873 1030 873 1030 848.5 1057.5 c 128,-1,603
 824 1085 824 1085 809 1088 c 1,596,597
576 1088 m 1,604,605
 566 1075 566 1075 468 979 c 1,606,607
 522 901 522 901 585 862 c 1,608,-1
 701 978 l 1,609,-1
 699 981 l 1,610,611
 640 1029 640 1029 615.5 1057 c 128,-1,612
 591 1085 591 1085 576 1088 c 1,604,605
EndSplineSet
Substitution2: "'fina' Terminal Forms in Arabic lookup 3 subtable" tehfinal
Substitution2: "'medi' Medial Forms in Arabic lookup 2 subtable" tehmedial
Substitution2: "'init' Initial Forms in Arabic lookup 1 subtable" tehinitial
Substitution2: "'isol' Isolated Forms in Arabic lookup 0 subtable" tehisolated
EndChar

StartChar: theh
Encoding: 167 1579 17
Width: 1459
Flags: W
AnchorPoint: "abovesingle" 701.833 1431.8 basechar 0
AnchorPoint: "belowsingle" 725.833 -155.2 basechar 0
LayerCount: 2
Fore
SplineSet
1261 710 m 1,0,-1
 1259 706 l 2,1,2
 1258 704 1258 704 1257 704 c 2,3,-1
 1256 701 l 1,4,-1
 1252 695 l 1,5,-1
 1248 688 l 1,6,7
 1244 677 1244 677 1238 670 c 1,8,-1
 1236 664 l 1,9,-1
 1234 660 l 1,10,-1
 1231 655 l 1,11,12
 1228 647 1228 647 1224 642 c 1,13,-1
 1222 637 l 1,14,-1
 1220 632 l 1,15,-1
 1217 627 l 1,16,-1
 1215 621 l 1,17,-1
 1214 619 l 1,18,-1
 1212 615 l 1,19,-1
 1209 608 l 1,20,-1
 1208 605 l 1,21,-1
 1201 590 l 1,22,-1
 1200 587 l 1,23,-1
 1199 584 l 1,24,-1
 1198 580 l 1,25,-1
 1196 577 l 1,26,-1
 1187 552 l 1,27,28
 1271 424 1271 424 1275 288 c 1,29,-1
 1270 285 l 1,30,-1
 1264 282 l 1,31,-1
 1261 280 l 1,32,-1
 1251 276 l 1,33,-1
 1249 274 l 1,34,-1
 1246 273 l 1,35,-1
 1244 272 l 2,36,37
 1239 269 1239 269 1235 268 c 1,38,-1
 1226 263 l 1,39,-1
 1221 261 l 1,40,-1
 1218 260 l 1,41,42
 1213 257 1213 257 1209 256 c 1,43,-1
 1207 254 l 1,44,-1
 1203 253 l 1,45,-1
 1200 251 l 1,46,-1
 1197 250 l 1,47,-1
 1195 249 l 1,48,-1
 1192 248 l 1,49,-1
 1180 242 l 1,50,-1
 1176 241 l 1,51,-1
 1172 239 l 1,52,-1
 1168 237 l 1,53,-1
 1164 236 l 1,54,-1
 1161 234 l 1,55,-1
 1148 229 l 1,56,-1
 1144 228 l 1,57,-1
 1142 226 l 1,58,-1
 1139 226 l 1,59,-1
 1124 219 l 1,60,-1
 1121 219 l 1,61,-1
 1114 216 l 2,62,63
 1109 213 1109 213 1105 213 c 1,64,-1
 1103 211 l 1,65,-1
 1100 211 l 1,66,67
 1098 210 1098 210 1097 210 c 0,68,69
 1090 206 1090 206 1085 205 c 2,70,-1
 1063 198 l 1,71,-1
 1041 190 l 1,72,73
 1031 188 1031 188 1024 185 c 1,74,-1
 1021 185 l 1,75,-1
 1018 183 l 1,76,-1
 1015 183 l 1,77,-1
 1008 180 l 1,78,-1
 1005 180 l 1,79,-1
 997 178 l 1,80,81
 990 175 990 175 985 174 c 2,82,-1
 981 173 l 1,83,-1
 977 172 l 1,84,-1
 973 171 l 1,85,-1
 969 170 l 1,86,-1
 966 169 l 1,87,-1
 963 168 l 1,88,-1
 959 168 l 1,89,-1
 951 166 l 1,90,91
 942 162 942 162 934 162 c 1,92,-1
 930 160 l 1,93,-1
 925 160 l 1,94,-1
 921 158 l 1,95,-1
 916 158 l 1,96,-1
 912 156 l 1,97,-1
 897 154 l 1,98,-1
 893 153 l 1,99,-1
 887 152 l 1,100,101
 879 149 879 149 872 149 c 1,102,-1
 859 146 l 1,103,-1
 855 146 l 1,104,-1
 853 145 l 1,105,-1
 850 145 l 1,106,-1
 847 145 l 1,107,108
 837 142 837 142 830 142 c 2,109,-1
 816 140 l 1,110,-1
 812 139 l 1,111,-1
 807 139 l 1,112,113
 801 138 801 138 796 138 c 1,114,115
 792 136 792 136 788 137 c 1,116,-1
 786 136 l 1,117,-1
 767 135 l 1,118,119
 761 133 761 133 756 134 c 1,120,-1
 753 133 l 1,121,-1
 746 133 l 1,122,-1
 743 133 l 1,123,124
 732 131 732 131 724 132 c 1,125,-1
 720 131 l 1,126,-1
 715 131 l 1,127,-1
 710 131 l 1,128,-1
 707 131 l 1,129,-1
 700 131 l 1,130,-1
 694 130 l 1,131,-1
 681 130 l 1,132,-1
 650 130 l 2,133,134
 642 130 642 130 636 131 c 1,135,-1
 633 131 l 1,136,-1
 630 131 l 2,137,138
 620 131 620 131 613 132 c 1,139,140
 605 131 605 131 598 133 c 1,141,142
 591 133 591 133 586 134 c 1,143,-1
 582 134 l 1,144,-1
 579 134 l 1,145,-1
 577 135 l 1,146,-1
 559 136 l 1,147,-1
 551 138 l 1,148,-1
 543 138 l 1,149,-1
 536 140 l 1,150,151
 525 140 525 140 518 143 c 1,152,-1
 515 143 l 1,153,-1
 512 143 l 1,154,-1
 509 144 l 1,155,-1
 496 147 l 1,156,-1
 493 147 l 1,157,158
 487 149 487 149 483 149 c 1,159,160
 478 151 478 151 474 151 c 1,161,-1
 462 155 l 1,162,-1
 459 155 l 1,163,-1
 457 156 l 1,164,165
 448 158 448 158 443 160 c 2,166,-1
 439 161 l 2,167,168
 432 163 432 163 427 165 c 2,169,-1
 423 166 l 1,170,-1
 419 168 l 1,171,172
 405 171 405 171 395 177 c 1,173,174
 392 177 392 177 391 178 c 2,175,-1
 381 182 l 1,176,-1
 378 183 l 1,177,-1
 373 185 l 1,178,-1
 370 187 l 1,179,-1
 367 188 l 1,180,-1
 365 190 l 1,181,-1
 343 200 l 1,182,-1
 342 202 l 1,183,184
 334 205 334 205 329 209 c 1,185,-1
 326 210 l 1,186,-1
 320 215 l 1,187,-1
 313 219 l 2,188,189
 311 220 311 220 311 221 c 2,190,-1
 309 222 l 2,191,192
 292 231 292 231 283 242 c 1,193,-1
 280 244 l 2,194,195
 278 245 278 245 278 246 c 2,196,-1
 275 248 l 1,197,-1
 273 249 l 1,198,-1
 271 251 l 1,199,-1
 269 253 l 1,200,-1
 267 255 l 1,201,-1
 265 257 l 1,202,-1
 264 259 l 1,203,204
 262 260 262 260 262 261 c 2,205,-1
 250 272 l 1,206,207
 159 386 159 386 187 518 c 1,208,209
 187 524 187 524 189 529 c 1,210,-1
 189 533 l 1,211,-1
 190 537 l 1,212,-1
 191 541 l 1,213,-1
 192 545 l 1,214,-1
 193 547 l 1,215,-1
 195 559 l 2,216,217
 197 565 197 565 198 569 c 2,218,-1
 199 573 l 1,219,-1
 201 577 l 1,220,221
 201 580 201 580 202 581 c 2,222,-1
 203 584 l 2,223,224
 204 588 204 588 206 591 c 1,225,-1
 206 594 l 1,226,-1
 207 597 l 1,227,-1
 213 613 l 2,228,229
 220 634 220 634 207 637 c 1,230,-1
 205 635 l 1,231,-1
 190 622 l 1,232,-1
 188 618 l 1,233,-1
 185 615 l 1,234,-1
 183 611 l 1,235,-1
 180 608 l 1,236,-1
 178 604 l 1,237,-1
 176 602 l 1,238,-1
 174 599 l 1,239,-1
 172 596 l 2,240,241
 170 592 170 592 167 589 c 1,242,243
 163 579 163 579 159 574 c 1,244,-1
 158 569 l 1,245,-1
 152 558 l 1,246,-1
 147 544 l 1,247,-1
 145 540 l 2,248,249
 142 532 142 532 139 527 c 1,250,-1
 138 522 l 1,251,-1
 136 517 l 1,252,-1
 135 514 l 1,253,-1
 134 510 l 1,254,255
 129 500 129 500 128 493 c 1,256,-1
 126 489 l 1,257,-1
 125 483 l 1,258,-1
 123 478 l 1,259,-1
 122 474 l 1,260,-1
 121 470 l 1,261,-1
 120 467 l 1,262,-1
 119 464 l 1,263,-1
 118 460 l 1,264,-1
 116 453 l 1,265,-1
 115 451 l 1,266,267
 114 442 114 442 111 435 c 1,268,269
 110 425 110 425 108 418 c 2,270,-1
 107 415 l 1,271,-1
 107 411 l 1,272,-1
 105 401 l 1,273,-1
 105 397 l 1,274,275
 103 391 103 391 103 382 c 1,276,-1
 102 380 l 1,277,-1
 101 364 l 1,278,-1
 101 361 l 1,279,280
 99 355 99 355 100 350 c 1,281,-1
 100 298 l 1,282,283
 102 291 102 291 101 286 c 1,284,285
 102 282 102 282 102 278 c 0,286,287
 104 270 104 270 104 264 c 1,288,289
 105 262 105 262 105 261 c 2,290,-1
 106 254 l 1,291,292
 109 246 109 246 109 240 c 1,293,-1
 111 236 l 1,294,-1
 112 228 l 1,295,-1
 118 212 l 1,296,-1
 119 208 l 2,297,298
 121 202 121 202 122 198 c 1,299,300
 126 192 126 192 127 187 c 2,301,-1
 128 184 l 1,302,-1
 130 182 l 1,303,-1
 131 179 l 1,304,-1
 132 177 l 1,305,-1
 133 175 l 1,306,-1
 135 169 l 1,307,308
 140 163 140 163 141 158 c 1,309,310
 143 157 143 157 143 156 c 0,311,312
 147 150 147 150 149 145 c 1,313,314
 154 140 154 140 156 136 c 2,315,-1
 157 133 l 1,316,-1
 159 132 l 1,317,-1
 160 129 l 1,318,319
 170 119 170 119 174 111 c 1,320,-1
 177 108 l 2,321,322
 182 104 182 104 185 99 c 1,323,-1
 190 95 l 1,324,-1
 193 91 l 1,325,-1
 196 89 l 1,326,-1
 199 86 l 1,327,-1
 207 78 l 2,328,329
 209 77 209 77 209 76 c 2,330,-1
 211 75 l 1,331,-1
 213 74 l 1,332,-1
 215 72 l 1,333,-1
 216 70 l 1,334,335
 225 65 225 65 230 59 c 1,336,-1
 235 57 l 1,337,-1
 237 54 l 1,338,-1
 241 52 l 2,339,340
 248 48 248 48 251 45 c 1,341,-1
 254 44 l 1,342,-1
 256 43 l 1,343,-1
 258 41 l 1,344,-1
 261 39 l 1,345,-1
 268 35 l 1,346,-1
 270 34 l 1,347,-1
 272 33 l 1,348,-1
 274 32 l 2,349,350
 281 29 281 29 286 26 c 1,351,-1
 289 25 l 1,352,-1
 291 24 l 2,353,354
 295 23 295 23 298 21 c 1,355,356
 309 18 309 18 316 14 c 1,357,-1
 322 13 l 1,358,-1
 326 11 l 1,359,-1
 329 10 l 1,360,-1
 332 9 l 1,361,-1
 336 8 l 1,362,-1
 339 6 l 1,363,364
 342 6 342 6 343 5 c 0,365,366
 359 1 359 1 368 -3 c 1,367,-1
 373 -4 l 1,368,-1
 379 -6 l 1,369,-1
 384 -7 l 2,370,371
 392 -8 392 -8 397 -10 c 2,372,-1
 411 -13 l 1,373,-1
 414 -14 l 1,374,-1
 425 -16 l 1,375,-1
 441 -20 l 1,376,-1
 444 -20 l 1,377,-1
 465 -24 l 1,378,379
 471 -24 471 -24 476 -26 c 1,380,-1
 480 -26 l 1,381,-1
 483 -26 l 1,382,-1
 485 -27 l 1,383,384
 493 -27 493 -27 499 -29 c 1,385,-1
 506 -30 l 1,386,-1
 509 -30 l 1,387,-1
 512 -30 l 1,388,-1
 528 -32 l 1,389,-1
 535 -32 l 1,390,-1
 541 -33 l 1,391,-1
 544 -33 l 1,392,-1
 546 -34 l 1,393,-1
 558 -34 l 1,394,-1
 564 -35 l 1,395,-1
 569 -35 l 1,396,-1
 572 -35 l 1,397,-1
 575 -35 l 1,398,399
 580 -36 580 -36 583 -36 c 2,400,-1
 589 -36 l 1,401,-1
 593 -36 l 1,402,-1
 596 -36 l 1,403,-1
 616 -36 l 1,404,-1
 621 -36 l 1,405,-1
 626 -36 l 1,406,-1
 631 -36 l 1,407,-1
 634 -36 l 1,408,-1
 647 -36 l 1,409,-1
 661 -36 l 1,410,-1
 666 -36 l 1,411,-1
 670 -36 l 1,412,-1
 675 -36 l 1,413,414
 688 -35 688 -35 697 -35 c 1,415,-1
 701 -34 l 1,416,-1
 712 -34 l 1,417,-1
 716 -33 l 1,418,-1
 719 -33 l 1,419,-1
 741 -31 l 1,420,-1
 747 -30 l 1,421,422
 756 -30 756 -30 763 -28 c 1,423,-1
 769 -28 l 1,424,-1
 775 -27 l 1,425,-1
 780 -26 l 1,426,-1
 786 -25 l 1,427,-1
 790 -25 l 1,428,-1
 796 -24 l 1,429,-1
 801 -23 l 1,430,-1
 804 -23 l 1,431,-1
 810 -22 l 1,432,-1
 814 -21 l 1,433,-1
 820 -20 l 1,434,-1
 824 -19 l 1,435,-1
 838 -17 l 1,436,-1
 846 -15 l 1,437,-1
 848 -14 l 1,438,-1
 851 -14 l 1,439,440
 860 -11 860 -11 867 -11 c 1,441,-1
 871 -9 l 1,442,-1
 887 -6 l 1,443,444
 895 -3 895 -3 900 -3 c 1,445,446
 906 0 906 0 910 0 c 2,447,-1
 914 1 l 1,448,-1
 916 2 l 1,449,-1
 924 4 l 1,450,-1
 932 7 l 1,451,-1
 949 11 l 1,452,453
 957 15 957 15 963 16 c 1,454,455
 969 19 969 19 974 19 c 1,456,457
 983 24 983 24 991 25 c 1,458,-1
 994 27 l 1,459,-1
 997 28 l 1,460,-1
 1007 31 l 1,461,462
 1018 37 1018 37 1027 39 c 1,463,464
 1033 42 1033 42 1037 44 c 2,465,-1
 1039 45 l 1,466,-1
 1042 45 l 1,467,468
 1048 49 1048 49 1054 51 c 2,469,-1
 1056 52 l 1,470,-1
 1078 61 l 1,471,472
 1085 66 1085 66 1090 68 c 2,473,-1
 1102 73 l 1,474,-1
 1106 76 l 1,475,-1
 1110 77 l 1,476,-1
 1114 80 l 2,477,478
 1119 83 1119 83 1123 84 c 1,479,-1
 1125 86 l 1,480,-1
 1129 87 l 1,481,-1
 1131 89 l 1,482,-1
 1134 90 l 1,483,484
 1140 95 1140 95 1146 97 c 1,485,-1
 1150 100 l 1,486,-1
 1155 102 l 1,487,488
 1163 108 1163 108 1169 111 c 2,489,-1
 1172 112 l 1,490,491
 1181 120 1181 120 1189 123 c 1,492,-1
 1192 126 l 1,493,-1
 1203 132 l 1,494,495
 1207 136 1207 136 1211 138 c 1,496,-1
 1213 140 l 1,497,-1
 1217 142 l 1,498,-1
 1223 146 l 1,499,500
 1234 156 1234 156 1241 160 c 1,501,502
 1246 168 1246 168 1250 173 c 2,503,-1
 1260 185 l 1,504,-1
 1262 188 l 1,505,-1
 1264 191 l 1,506,-1
 1265 194 l 1,507,-1
 1267 196 l 1,508,-1
 1268 198 l 1,509,-1
 1270 199 l 1,510,511
 1275 209 1275 209 1279 214 c 1,512,-1
 1281 218 l 1,513,-1
 1287 226 l 1,514,-1
 1289 230 l 1,515,-1
 1290 233 l 1,516,517
 1295 241 1295 241 1298 248 c 1,518,-1
 1300 250 l 1,519,-1
 1305 261 l 1,520,-1
 1306 264 l 1,521,522
 1313 275 1313 275 1315 284 c 1,523,-1
 1320 293 l 1,524,-1
 1321 298 l 1,525,-1
 1322 302 l 1,526,527
 1325 308 1325 308 1326 313 c 1,528,-1
 1328 316 l 1,529,-1
 1329 322 l 1,530,-1
 1330 326 l 1,531,-1
 1332 329 l 1,532,-1
 1332 333 l 1,533,-1
 1334 336 l 1,534,-1
 1334 339 l 1,535,-1
 1335 341 l 1,536,-1
 1337 350 l 1,537,-1
 1337 353 l 1,538,539
 1340 361 1340 361 1340 367 c 1,540,-1
 1343 380 l 1,541,-1
 1343 385 l 1,542,-1
 1344 388 l 1,543,-1
 1344 391 l 1,544,-1
 1346 411 l 1,545,-1
 1346 424 l 1,546,-1
 1346 428 l 1,547,-1
 1346 432 l 1,548,-1
 1346 436 l 1,549,-1
 1346 453 l 1,550,-1
 1346 456 l 1,551,-1
 1346 468 l 1,552,-1
 1345 473 l 1,553,-1
 1345 479 l 1,554,555
 1344 482 1344 482 1344 484 c 2,556,-1
 1343 490 l 1,557,-1
 1343 495 l 1,558,559
 1342 498 1342 498 1342 500 c 2,560,-1
 1341 503 l 1,561,-1
 1341 506 l 1,562,-1
 1340 508 l 1,563,-1
 1340 511 l 1,564,-1
 1338 524 l 2,565,566
 1337 526 1337 526 1337 527 c 2,567,-1
 1332 550 l 2,568,569
 1331 552 1331 552 1331 553 c 2,570,-1
 1329 557 l 1,571,-1
 1329 560 l 1,572,-1
 1328 564 l 1,573,574
 1324 571 1324 571 1323 577 c 2,575,-1
 1321 586 l 1,576,577
 1313 602 1313 602 1311 613 c 1,578,-1
 1308 618 l 1,579,-1
 1307 620 l 1,580,-1
 1303 632 l 1,581,582
 1299 637 1299 637 1298 643 c 1,583,-1
 1295 648 l 1,584,-1
 1293 653 l 1,585,586
 1288 661 1288 661 1286 668 c 1,587,-1
 1283 671 l 1,588,-1
 1279 680 l 1,589,-1
 1278 683 l 1,590,591
 1273 689 1273 689 1271 696 c 1,592,593
 1266 702 1266 702 1264 708 c 1,594,-1
 1263 709 l 1,595,-1
 1261 710 l 1,0,-1
824 1068 m 1,596,597
 814 1055 814 1055 716 959 c 1,598,599
 770 881 770 881 833 842 c 1,600,-1
 947 961 l 1,601,602
 888 1010 888 1010 863.5 1037.5 c 128,-1,603
 839 1065 839 1065 824 1068 c 1,596,597
591 1068 m 1,604,605
 581 1055 581 1055 483 959 c 1,606,607
 537 881 537 881 600 842 c 1,608,-1
 716 958 l 1,609,-1
 714 961 l 1,610,611
 655 1009 655 1009 630.5 1037 c 128,-1,612
 606 1065 606 1065 591 1068 c 1,604,605
715 1306 m 1,613,614
 705 1293 705 1293 607 1197 c 1,615,616
 661 1119 661 1119 724 1080 c 1,617,618
 835 1193 835 1193 840 1196 c 1,619,-1
 838 1199 l 1,620,621
 779 1247 779 1247 754.5 1275 c 128,-1,622
 730 1303 730 1303 715 1306 c 1,613,614
EndSplineSet
Substitution2: "'fina' Terminal Forms in Arabic lookup 3 subtable" thehfinal
Substitution2: "'medi' Medial Forms in Arabic lookup 2 subtable" thehmedial
Substitution2: "'init' Initial Forms in Arabic lookup 1 subtable" thehinitial
Substitution2: "'isol' Isolated Forms in Arabic lookup 0 subtable" thehisolated
EndChar

StartChar: jeem
Encoding: 168 1580 18
Width: 1189
Flags: W
AnchorPoint: "abovesingle" 692.518 1196 basechar 0
AnchorPoint: "belowsingle" 732.518 -1224 basechar 0
LayerCount: 2
Fore
SplineSet
134 510 m 1,1,2
 282 647 282 647 466 604 c 1,3,4
 481 603 481 603 490 600 c 1,5,-1
 496 600 l 1,6,-1
 502 598 l 1,7,-1
 518 596 l 1,8,-1
 550 588 l 1,9,-1
 560 588 l 1,10,11
 576 583 576 583 588 582 c 1,12,-1
 594 580 l 1,13,-1
 598 578 l 1,14,-1
 606 578 l 1,15,16
 616 576 616 576 622 576 c 1,17,18
 641 571 641 571 654 572 c 1,19,-1
 646 566 l 1,20,-1
 634 562 l 1,21,22
 617 549 617 549 602 544 c 1,23,-1
 594 538 l 2,24,25
 584 531 584 531 576 528 c 1,26,-1
 570 522 l 1,27,-1
 562 518 l 1,28,-1
 546 506 l 1,29,-1
 540 504 l 1,30,31
 529 494 529 494 520 490 c 1,32,33
 512 482 512 482 502 478 c 1,34,35
 486 461 486 461 474 454 c 1,36,37
 464 445 464 445 456 440 c 0,38,39
 453 437 453 437 450 436 c 1,40,-1
 446 430 l 1,41,42
 436 420 436 420 428 416 c 1,43,-1
 424 410 l 1,44,45
 413 401 413 401 408 394 c 1,46,-1
 404 390 l 1,47,-1
 392 380 l 1,48,49
 378 362 378 362 364 352 c 1,50,51
 81 12 81 12 98 -388 c 1,52,53
 101 -400 101 -400 102 -410 c 2,54,-1
 104 -438 l 1,55,56
 106 -443 106 -443 106 -448 c 1,57,-1
 108 -452 l 1,58,59
 111 -479 111 -479 118 -496 c 1,60,-1
 118 -504 l 1,61,-1
 122 -510 l 1,62,-1
 124 -524 l 1,63,64
 126 -526 126 -526 126 -528 c 2,65,-1
 128 -532 l 1,66,-1
 130 -540 l 1,67,68
 139 -559 139 -559 142 -574 c 1,69,-1
 148 -582 l 1,70,71
 151 -593 151 -593 156 -602 c 2,72,-1
 164 -616 l 1,73,-1
 182 -652 l 1,74,75
 198 -669 198 -669 204 -684 c 1,76,77
 208 -687 208 -687 210 -692 c 1,78,-1
 216 -696 l 1,79,-1
 220 -702 l 1,80,-1
 230 -714 l 1,81,-1
 234 -718 l 1,82,-1
 238 -724 l 2,83,84
 240 -726 240 -726 240 -728 c 1,85,86
 243 -730 243 -730 244 -732 c 0,87,88
 264 -748 264 -748 274 -762 c 1,89,-1
 280 -764 l 1,90,-1
 284 -770 l 1,91,92
 287 -772 287 -772 288 -774 c 1,93,-1
 296 -778 l 1,94,-1
 304 -784 l 1,95,-1
 308 -790 l 1,96,-1
 314 -792 l 1,97,-1
 320 -798 l 1,98,99
 331 -805 331 -805 338 -812 c 1,100,101
 356 -820 356 -820 366 -830 c 1,102,-1
 374 -832 l 1,103,-1
 380 -838 l 1,104,-1
 388 -840 l 1,105,-1
 406 -850 l 1,106,-1
 416 -854 l 1,107,-1
 420 -856 l 1,108,-1
 456 -874 l 1,109,110
 461 -874 461 -874 464 -876 c 2,111,-1
 470 -878 l 1,112,-1
 514 -894 l 1,113,-1
 524 -896 l 1,114,-1
 534 -898 l 1,115,-1
 544 -900 l 1,116,-1
 552 -904 l 1,117,-1
 564 -906 l 1,118,-1
 598 -912 l 1,119,-1
 604 -914 l 1,120,-1
 610 -914 l 1,121,-1
 616 -916 l 1,122,123
 627 -916 627 -916 632 -918 c 1,124,125
 651 -919 651 -919 664 -922 c 1,126,-1
 690 -922 l 1,127,-1
 698 -922 l 1,128,-1
 706 -922 l 1,129,-1
 714 -922 l 1,130,-1
 748 -922 l 1,131,-1
 754 -922 l 1,132,-1
 778 -922 l 1,133,-1
 784 -922 l 1,134,-1
 790 -922 l 1,135,-1
 796 -920 l 1,136,-1
 802 -920 l 1,137,-1
 808 -920 l 1,138,-1
 814 -920 l 1,139,-1
 834 -918 l 1,140,-1
 842 -918 l 1,141,-1
 846 -916 l 1,142,-1
 862 -916 l 1,143,144
 878 -911 878 -911 892 -912 c 1,145,-1
 898 -910 l 1,146,-1
 904 -910 l 1,147,-1
 912 -908 l 1,148,-1
 944 -902 l 1,149,-1
 952 -900 l 1,150,-1
 960 -898 l 1,151,-1
 968 -896 l 1,152,-1
 976 -896 l 1,153,-1
 984 -894 l 1,154,155
 991 -891 991 -891 998 -890 c 1,156,157
 1010 -886 1010 -886 1018 -884 c 1,158,-1
 1022 -882 l 1,159,-1
 1040 -878 l 1,160,161
 1043 -876 1043 -876 1046 -876 c 1,162,163
 1068 -866 1068 -866 1084 -862 c 1,164,-1
 1088 -860 l 1,165,-1
 1120 -848 l 1,166,-1
 1126 -846 l 1,167,168
 1135 -839 1135 -839 1144 -838 c 1,169,-1
 1150 -834 l 1,170,-1
 1160 -830 l 1,171,-1
 1164 -826 l 1,172,-1
 1170 -824 l 1,173,174
 1183 -816 1183 -816 1192 -814 c 1,175,-1
 1204 -806 l 2,176,177
 1224 -793 1224 -793 1238 -788 c 1,178,179
 1252 -775 1252 -775 1266 -770 c 1,180,-1
 1276 -762 l 1,181,-1
 1284 -756 l 1,182,-1
 1290 -752 l 1,183,-1
 1298 -748 l 1,184,-1
 1304 -742 l 1,185,-1
 1312 -738 l 1,186,-1
 1318 -732 l 1,187,-1
 1326 -728 l 1,188,-1
 1328 -724 l 1,189,190
 1341 -715 1341 -715 1348 -708 c 1,191,-1
 1354 -706 l 1,192,-1
 1356 -702 l 1,193,-1
 1360 -698 l 1,194,-1
 1366 -696 l 1,195,-1
 1368 -692 l 1,196,-1
 1372 -690 l 1,197,-1
 1392 -672 l 1,198,199
 1002 -830 1002 -830 634 -744 c 1,200,-1
 628 -740 l 1,201,-1
 622 -740 l 1,202,-1
 588 -730 l 1,203,204
 578 -725 578 -725 572 -724 c 2,205,-1
 566 -722 l 1,206,-1
 562 -720 l 1,207,-1
 558 -718 l 1,208,209
 536 -712 536 -712 522 -702 c 1,210,211
 175 -541 175 -541 212 -184 c 1,212,-1
 216 -164 l 1,213,-1
 228 -102 l 1,214,-1
 234 -86 l 1,215,-1
 234 -80 l 1,216,-1
 238 -66 l 1,217,218
 243 -56 243 -56 244 -50 c 2,219,-1
 246 -44 l 1,220,-1
 248 -38 l 1,221,222
 253 -28 253 -28 254 -22 c 1,223,-1
 256 -18 l 1,224,-1
 258 -12 l 2,225,226
 264 3 264 3 270 12 c 1,227,-1
 270 18 l 1,228,229
 562 517 562 517 1092 548 c 1,230,-1
 1098 560 l 1,231,-1
 1102 568 l 1,232,-1
 1108 576 l 1,233,234
 1113 589 1113 589 1120 596 c 1,235,-1
 1124 604 l 1,236,-1
 1128 614 l 1,237,-1
 1132 620 l 1,238,-1
 1136 626 l 1,239,-1
 1150 652 l 1,240,-1
 1154 658 l 1,241,-1
 1158 664 l 1,242,-1
 1160 670 l 1,243,-1
 1164 676 l 2,244,245
 1166 679 1166 679 1168 680 c 1,246,247
 1180 707 1180 707 1190 722 c 1,248,-1
 1192 722 l 1,249,-1
 1190 722 l 1,250,-1
 1192 724 l 1,251,-1
 1192 722 l 1,252,-1
 1192 724 l 1,253,-1
 1186 724 l 1,254,-1
 1180 724 l 1,255,-1
 1154 724 l 1,256,-1
 1110 722 l 1,257,-1
 1102 722 l 1,258,-1
 1094 722 l 1,259,-1
 1084 722 l 1,260,-1
 1078 722 l 1,261,-1
 1062 722 l 1,262,263
 1039 719 1039 719 1022 720 c 1,264,-1
 1014 720 l 1,265,-1
 978 720 l 1,266,-1
 968 720 l 1,267,-1
 962 720 l 1,268,269
 950 723 950 723 940 722 c 1,270,-1
 912 722 l 1,271,-1
 836 726 l 1,272,-1
 822 728 l 1,273,-1
 814 728 l 1,274,-1
 808 730 l 1,275,-1
 800 730 l 1,276,-1
 792 730 l 1,277,-1
 786 732 l 1,278,-1
 780 732 l 1,279,-1
 772 732 l 1,280,-1
 766 734 l 1,281,-1
 760 734 l 1,282,-1
 728 738 l 1,283,-1
 722 738 l 1,284,-1
 706 742 l 1,285,-1
 698 742 l 1,286,-1
 666 748 l 1,287,-1
 656 748 l 1,288,289
 637 753 637 753 624 754 c 1,290,-1
 616 756 l 1,291,-1
 608 756 l 1,292,-1
 598 758 l 1,293,-1
 590 760 l 1,294,-1
 584 760 l 1,295,-1
 576 762 l 1,296,-1
 570 762 l 1,297,-1
 554 766 l 1,298,-1
 546 766 l 1,299,-1
 514 772 l 1,300,-1
 508 772 l 1,301,-1
 502 772 l 1,302,303
 492 774 492 774 486 774 c 1,304,-1
 478 776 l 1,305,-1
 468 776 l 1,306,-1
 462 776 l 1,307,308
 454 778 454 778 446 778 c 1,309,-1
 438 780 l 1,310,-1
 404 780 l 1,311,-1
 398 780 l 1,312,-1
 374 780 l 1,313,0
 150 742 150 742 134 510 c 1,1,2
778 -55 m 1,314,315
 768 -68 768 -68 670 -164 c 1,316,317
 724 -242 724 -242 787 -281 c 1,318,319
 898 -168 898 -168 903 -165 c 1,320,-1
 901 -162 l 1,321,322
 842 -114 842 -114 817.5 -86 c 128,-1,323
 793 -58 793 -58 778 -55 c 1,314,315
EndSplineSet
Substitution2: "'fina' Terminal Forms in Arabic lookup 3 subtable" jeemfinal
Substitution2: "'medi' Medial Forms in Arabic lookup 2 subtable" jeemmedial
Substitution2: "'init' Initial Forms in Arabic lookup 1 subtable" jeeminitial
Substitution2: "'isol' Isolated Forms in Arabic lookup 0 subtable" jeemisolated
EndChar

StartChar: hah
Encoding: 169 1581 19
Width: 1179
Flags: W
AnchorPoint: "abovesingle" 639.518 1231.8 basechar 0
AnchorPoint: "belowsingle" 631.518 -1080.2 basechar 0
LayerCount: 2
Fore
SplineSet
129 510 m 1,1,2
 277 647 277 647 461 604 c 1,3,4
 476 603 476 603 485 600 c 1,5,-1
 491 600 l 1,6,-1
 497 598 l 1,7,-1
 513 596 l 1,8,-1
 545 588 l 1,9,-1
 555 588 l 1,10,11
 571 583 571 583 583 582 c 1,12,-1
 589 580 l 1,13,-1
 593 578 l 1,14,-1
 601 578 l 1,15,16
 611 576 611 576 617 576 c 1,17,18
 636 571 636 571 649 572 c 1,19,-1
 641 566 l 1,20,-1
 629 562 l 1,21,22
 612 549 612 549 597 544 c 1,23,-1
 589 538 l 2,24,25
 579 531 579 531 571 528 c 1,26,-1
 565 522 l 1,27,-1
 557 518 l 1,28,-1
 541 506 l 1,29,-1
 535 504 l 1,30,31
 524 494 524 494 515 490 c 1,32,33
 507 482 507 482 497 478 c 1,34,35
 481 461 481 461 469 454 c 1,36,37
 459 445 459 445 451 440 c 0,38,39
 448 437 448 437 445 436 c 1,40,-1
 441 430 l 1,41,42
 431 420 431 420 423 416 c 1,43,-1
 419 410 l 1,44,45
 408 401 408 401 403 394 c 1,46,-1
 399 390 l 1,47,-1
 387 380 l 1,48,49
 373 362 373 362 359 352 c 1,50,51
 76 12 76 12 93 -388 c 1,52,53
 96 -400 96 -400 97 -410 c 2,54,-1
 99 -438 l 1,55,56
 101 -443 101 -443 101 -448 c 1,57,-1
 103 -452 l 1,58,59
 106 -479 106 -479 113 -496 c 1,60,-1
 113 -504 l 1,61,-1
 117 -510 l 1,62,-1
 119 -524 l 1,63,64
 121 -526 121 -526 121 -528 c 2,65,-1
 123 -532 l 1,66,-1
 125 -540 l 1,67,68
 134 -559 134 -559 137 -574 c 1,69,-1
 143 -582 l 1,70,71
 146 -593 146 -593 151 -602 c 2,72,-1
 159 -616 l 1,73,-1
 177 -652 l 1,74,75
 193 -669 193 -669 199 -684 c 1,76,77
 203 -687 203 -687 205 -692 c 1,78,-1
 211 -696 l 1,79,-1
 215 -702 l 1,80,-1
 225 -714 l 1,81,-1
 229 -718 l 1,82,-1
 233 -724 l 2,83,84
 235 -726 235 -726 235 -728 c 1,85,86
 238 -730 238 -730 239 -732 c 0,87,88
 259 -748 259 -748 269 -762 c 1,89,-1
 275 -764 l 1,90,-1
 279 -770 l 1,91,92
 282 -772 282 -772 283 -774 c 1,93,-1
 291 -778 l 1,94,-1
 299 -784 l 1,95,-1
 303 -790 l 1,96,-1
 309 -792 l 1,97,-1
 315 -798 l 1,98,99
 326 -805 326 -805 333 -812 c 1,100,101
 351 -820 351 -820 361 -830 c 1,102,-1
 369 -832 l 1,103,-1
 375 -838 l 1,104,-1
 383 -840 l 1,105,-1
 401 -850 l 1,106,-1
 411 -854 l 1,107,-1
 415 -856 l 1,108,-1
 451 -874 l 1,109,110
 456 -874 456 -874 459 -876 c 2,111,-1
 465 -878 l 1,112,-1
 509 -894 l 1,113,-1
 519 -896 l 1,114,-1
 529 -898 l 1,115,-1
 539 -900 l 1,116,-1
 547 -904 l 1,117,-1
 559 -906 l 1,118,-1
 593 -912 l 1,119,-1
 599 -914 l 1,120,-1
 605 -914 l 1,121,-1
 611 -916 l 1,122,123
 622 -916 622 -916 627 -918 c 1,124,125
 646 -919 646 -919 659 -922 c 1,126,-1
 685 -922 l 1,127,-1
 693 -922 l 1,128,-1
 701 -922 l 1,129,-1
 709 -922 l 1,130,-1
 743 -922 l 1,131,-1
 749 -922 l 1,132,-1
 773 -922 l 1,133,-1
 779 -922 l 1,134,-1
 785 -922 l 1,135,-1
 791 -920 l 1,136,-1
 797 -920 l 1,137,-1
 803 -920 l 1,138,-1
 809 -920 l 1,139,-1
 829 -918 l 1,140,-1
 837 -918 l 1,141,-1
 841 -916 l 1,142,-1
 857 -916 l 1,143,144
 873 -911 873 -911 887 -912 c 1,145,-1
 893 -910 l 1,146,-1
 899 -910 l 1,147,-1
 907 -908 l 1,148,-1
 939 -902 l 1,149,-1
 947 -900 l 1,150,-1
 955 -898 l 1,151,-1
 963 -896 l 1,152,-1
 971 -896 l 1,153,-1
 979 -894 l 1,154,155
 986 -891 986 -891 993 -890 c 1,156,157
 1005 -886 1005 -886 1013 -884 c 1,158,-1
 1017 -882 l 1,159,-1
 1035 -878 l 1,160,161
 1038 -876 1038 -876 1041 -876 c 1,162,163
 1063 -866 1063 -866 1079 -862 c 1,164,-1
 1083 -860 l 1,165,-1
 1115 -848 l 1,166,-1
 1121 -846 l 1,167,168
 1130 -839 1130 -839 1139 -838 c 1,169,-1
 1145 -834 l 1,170,-1
 1155 -830 l 1,171,-1
 1159 -826 l 1,172,-1
 1165 -824 l 1,173,174
 1178 -816 1178 -816 1187 -814 c 1,175,-1
 1199 -806 l 2,176,177
 1219 -793 1219 -793 1233 -788 c 1,178,179
 1247 -775 1247 -775 1261 -770 c 1,180,-1
 1271 -762 l 1,181,-1
 1279 -756 l 1,182,-1
 1285 -752 l 1,183,-1
 1293 -748 l 1,184,-1
 1299 -742 l 1,185,-1
 1307 -738 l 1,186,-1
 1313 -732 l 1,187,-1
 1321 -728 l 1,188,-1
 1323 -724 l 1,189,190
 1336 -715 1336 -715 1343 -708 c 1,191,-1
 1349 -706 l 1,192,-1
 1351 -702 l 1,193,-1
 1355 -698 l 1,194,-1
 1361 -696 l 1,195,-1
 1363 -692 l 1,196,-1
 1367 -690 l 1,197,-1
 1387 -672 l 1,198,199
 997 -830 997 -830 629 -744 c 1,200,-1
 623 -740 l 1,201,-1
 617 -740 l 1,202,-1
 583 -730 l 1,203,204
 573 -725 573 -725 567 -724 c 2,205,-1
 561 -722 l 1,206,-1
 557 -720 l 1,207,-1
 553 -718 l 1,208,209
 531 -712 531 -712 517 -702 c 1,210,211
 170 -541 170 -541 207 -184 c 1,212,-1
 211 -164 l 1,213,-1
 223 -102 l 1,214,-1
 229 -86 l 1,215,-1
 229 -80 l 1,216,-1
 233 -66 l 1,217,218
 238 -56 238 -56 239 -50 c 2,219,-1
 241 -44 l 1,220,-1
 243 -38 l 1,221,222
 248 -28 248 -28 249 -22 c 1,223,-1
 251 -18 l 1,224,-1
 253 -12 l 2,225,226
 259 3 259 3 265 12 c 1,227,-1
 265 18 l 1,228,229
 557 517 557 517 1087 548 c 1,230,-1
 1093 560 l 1,231,-1
 1097 568 l 1,232,-1
 1103 576 l 1,233,234
 1108 589 1108 589 1115 596 c 1,235,-1
 1119 604 l 1,236,-1
 1123 614 l 1,237,-1
 1127 620 l 1,238,-1
 1131 626 l 1,239,-1
 1145 652 l 1,240,-1
 1149 658 l 1,241,-1
 1153 664 l 1,242,-1
 1155 670 l 1,243,-1
 1159 676 l 2,244,245
 1161 679 1161 679 1163 680 c 1,246,247
 1175 707 1175 707 1185 722 c 1,248,-1
 1187 722 l 1,249,-1
 1185 722 l 1,250,-1
 1187 724 l 1,251,-1
 1187 722 l 1,252,-1
 1187 724 l 1,253,-1
 1181 724 l 1,254,-1
 1175 724 l 1,255,-1
 1149 724 l 1,256,-1
 1105 722 l 1,257,-1
 1097 722 l 1,258,-1
 1089 722 l 1,259,-1
 1079 722 l 1,260,-1
 1073 722 l 1,261,-1
 1057 722 l 1,262,263
 1034 719 1034 719 1017 720 c 1,264,-1
 1009 720 l 1,265,-1
 973 720 l 1,266,-1
 963 720 l 1,267,-1
 957 720 l 1,268,269
 945 723 945 723 935 722 c 1,270,-1
 907 722 l 1,271,-1
 831 726 l 1,272,-1
 817 728 l 1,273,-1
 809 728 l 1,274,-1
 803 730 l 1,275,-1
 795 730 l 1,276,-1
 787 730 l 1,277,-1
 781 732 l 1,278,-1
 775 732 l 1,279,-1
 767 732 l 1,280,-1
 761 734 l 1,281,-1
 755 734 l 1,282,-1
 723 738 l 1,283,-1
 717 738 l 1,284,-1
 701 742 l 1,285,-1
 693 742 l 1,286,-1
 661 748 l 1,287,-1
 651 748 l 1,288,289
 632 753 632 753 619 754 c 1,290,-1
 611 756 l 1,291,-1
 603 756 l 1,292,-1
 593 758 l 1,293,-1
 585 760 l 1,294,-1
 579 760 l 1,295,-1
 571 762 l 1,296,-1
 565 762 l 1,297,-1
 549 766 l 1,298,-1
 541 766 l 1,299,-1
 509 772 l 1,300,-1
 503 772 l 1,301,-1
 497 772 l 1,302,303
 487 774 487 774 481 774 c 1,304,-1
 473 776 l 1,305,-1
 463 776 l 1,306,-1
 457 776 l 1,307,308
 449 778 449 778 441 778 c 1,309,-1
 433 780 l 1,310,-1
 399 780 l 1,311,-1
 393 780 l 1,312,-1
 369 780 l 1,313,0
 145 742 145 742 129 510 c 1,1,2
EndSplineSet
Substitution2: "'fina' Terminal Forms in Arabic lookup 3 subtable" hahfinal
Substitution2: "'medi' Medial Forms in Arabic lookup 2 subtable" hahmedial
Substitution2: "'init' Initial Forms in Arabic lookup 1 subtable" hahinitial
Substitution2: "'isol' Isolated Forms in Arabic lookup 0 subtable" hahisolated
EndChar

StartChar: khah
Encoding: 170 1582 20
Width: 1159
Flags: W
AnchorPoint: "abovesingle" 680 1650 basechar 0
AnchorPoint: "belowsingle" 695 -1255 basechar 0
LayerCount: 2
Fore
SplineSet
139 510 m 1,1,2
 287 647 287 647 471 604 c 1,3,4
 486 603 486 603 495 600 c 1,5,-1
 501 600 l 1,6,-1
 507 598 l 1,7,-1
 523 596 l 1,8,-1
 555 588 l 1,9,-1
 565 588 l 1,10,11
 581 583 581 583 593 582 c 1,12,-1
 599 580 l 1,13,-1
 603 578 l 1,14,-1
 611 578 l 1,15,16
 621 576 621 576 627 576 c 1,17,18
 646 571 646 571 659 572 c 1,19,-1
 651 566 l 1,20,-1
 639 562 l 1,21,22
 622 549 622 549 607 544 c 1,23,-1
 599 538 l 2,24,25
 589 531 589 531 581 528 c 1,26,-1
 575 522 l 1,27,-1
 567 518 l 1,28,-1
 551 506 l 1,29,-1
 545 504 l 1,30,31
 534 494 534 494 525 490 c 1,32,33
 517 482 517 482 507 478 c 1,34,35
 491 461 491 461 479 454 c 1,36,37
 469 445 469 445 461 440 c 0,38,39
 458 437 458 437 455 436 c 1,40,-1
 451 430 l 1,41,42
 441 420 441 420 433 416 c 1,43,-1
 429 410 l 1,44,45
 418 401 418 401 413 394 c 1,46,-1
 409 390 l 1,47,-1
 397 380 l 1,48,49
 383 362 383 362 369 352 c 1,50,51
 86 12 86 12 103 -388 c 1,52,53
 106 -400 106 -400 107 -410 c 2,54,-1
 109 -438 l 1,55,56
 111 -443 111 -443 111 -448 c 1,57,-1
 113 -452 l 1,58,59
 116 -479 116 -479 123 -496 c 1,60,-1
 123 -504 l 1,61,-1
 127 -510 l 1,62,-1
 129 -524 l 1,63,64
 131 -526 131 -526 131 -528 c 2,65,-1
 133 -532 l 1,66,-1
 135 -540 l 1,67,68
 144 -559 144 -559 147 -574 c 1,69,-1
 153 -582 l 1,70,71
 156 -593 156 -593 161 -602 c 2,72,-1
 169 -616 l 1,73,-1
 187 -652 l 1,74,75
 203 -669 203 -669 209 -684 c 1,76,77
 213 -687 213 -687 215 -692 c 1,78,-1
 221 -696 l 1,79,-1
 225 -702 l 1,80,-1
 235 -714 l 1,81,-1
 239 -718 l 1,82,-1
 243 -724 l 2,83,84
 245 -726 245 -726 245 -728 c 1,85,86
 248 -730 248 -730 249 -732 c 0,87,88
 269 -748 269 -748 279 -762 c 1,89,-1
 285 -764 l 1,90,-1
 289 -770 l 1,91,92
 292 -772 292 -772 293 -774 c 1,93,-1
 301 -778 l 1,94,-1
 309 -784 l 1,95,-1
 313 -790 l 1,96,-1
 319 -792 l 1,97,-1
 325 -798 l 1,98,99
 336 -805 336 -805 343 -812 c 1,100,101
 361 -820 361 -820 371 -830 c 1,102,-1
 379 -832 l 1,103,-1
 385 -838 l 1,104,-1
 393 -840 l 1,105,-1
 411 -850 l 1,106,-1
 421 -854 l 1,107,-1
 425 -856 l 1,108,-1
 461 -874 l 1,109,110
 466 -874 466 -874 469 -876 c 2,111,-1
 475 -878 l 1,112,-1
 519 -894 l 1,113,-1
 529 -896 l 1,114,-1
 539 -898 l 1,115,-1
 549 -900 l 1,116,-1
 557 -904 l 1,117,-1
 569 -906 l 1,118,-1
 603 -912 l 1,119,-1
 609 -914 l 1,120,-1
 615 -914 l 1,121,-1
 621 -916 l 1,122,123
 632 -916 632 -916 637 -918 c 1,124,125
 656 -919 656 -919 669 -922 c 1,126,-1
 695 -922 l 1,127,-1
 703 -922 l 1,128,-1
 711 -922 l 1,129,-1
 719 -922 l 1,130,-1
 753 -922 l 1,131,-1
 759 -922 l 1,132,-1
 783 -922 l 1,133,-1
 789 -922 l 1,134,-1
 795 -922 l 1,135,-1
 801 -920 l 1,136,-1
 807 -920 l 1,137,-1
 813 -920 l 1,138,-1
 819 -920 l 1,139,-1
 839 -918 l 1,140,-1
 847 -918 l 1,141,-1
 851 -916 l 1,142,-1
 867 -916 l 1,143,144
 883 -911 883 -911 897 -912 c 1,145,-1
 903 -910 l 1,146,-1
 909 -910 l 1,147,-1
 917 -908 l 1,148,-1
 949 -902 l 1,149,-1
 957 -900 l 1,150,-1
 965 -898 l 1,151,-1
 973 -896 l 1,152,-1
 981 -896 l 1,153,-1
 989 -894 l 1,154,155
 996 -891 996 -891 1003 -890 c 1,156,157
 1015 -886 1015 -886 1023 -884 c 1,158,-1
 1027 -882 l 1,159,-1
 1045 -878 l 1,160,161
 1048 -876 1048 -876 1051 -876 c 1,162,163
 1073 -866 1073 -866 1089 -862 c 1,164,-1
 1093 -860 l 1,165,-1
 1125 -848 l 1,166,-1
 1131 -846 l 1,167,168
 1140 -839 1140 -839 1149 -838 c 1,169,-1
 1155 -834 l 1,170,-1
 1165 -830 l 1,171,-1
 1169 -826 l 1,172,-1
 1175 -824 l 1,173,174
 1188 -816 1188 -816 1197 -814 c 1,175,-1
 1209 -806 l 2,176,177
 1229 -793 1229 -793 1243 -788 c 1,178,179
 1257 -775 1257 -775 1271 -770 c 1,180,-1
 1281 -762 l 1,181,-1
 1289 -756 l 1,182,-1
 1295 -752 l 1,183,-1
 1303 -748 l 1,184,-1
 1309 -742 l 1,185,-1
 1317 -738 l 1,186,-1
 1323 -732 l 1,187,-1
 1331 -728 l 1,188,-1
 1333 -724 l 1,189,190
 1346 -715 1346 -715 1353 -708 c 1,191,-1
 1359 -706 l 1,192,-1
 1361 -702 l 1,193,-1
 1365 -698 l 1,194,-1
 1371 -696 l 1,195,-1
 1373 -692 l 1,196,-1
 1377 -690 l 1,197,-1
 1397 -672 l 1,198,199
 1007 -830 1007 -830 639 -744 c 1,200,-1
 633 -740 l 1,201,-1
 627 -740 l 1,202,-1
 593 -730 l 1,203,204
 583 -725 583 -725 577 -724 c 2,205,-1
 571 -722 l 1,206,-1
 567 -720 l 1,207,-1
 563 -718 l 1,208,209
 541 -712 541 -712 527 -702 c 1,210,211
 180 -541 180 -541 217 -184 c 1,212,-1
 221 -164 l 1,213,-1
 233 -102 l 1,214,-1
 239 -86 l 1,215,-1
 239 -80 l 1,216,-1
 243 -66 l 1,217,218
 248 -56 248 -56 249 -50 c 2,219,-1
 251 -44 l 1,220,-1
 253 -38 l 1,221,222
 258 -28 258 -28 259 -22 c 1,223,-1
 261 -18 l 1,224,-1
 263 -12 l 2,225,226
 269 3 269 3 275 12 c 1,227,-1
 275 18 l 1,228,229
 567 517 567 517 1097 548 c 1,230,-1
 1103 560 l 1,231,-1
 1107 568 l 1,232,-1
 1113 576 l 1,233,234
 1118 589 1118 589 1125 596 c 1,235,-1
 1129 604 l 1,236,-1
 1133 614 l 1,237,-1
 1137 620 l 1,238,-1
 1141 626 l 1,239,-1
 1155 652 l 1,240,-1
 1159 658 l 1,241,-1
 1163 664 l 1,242,-1
 1165 670 l 1,243,-1
 1169 676 l 2,244,245
 1171 679 1171 679 1173 680 c 1,246,247
 1185 707 1185 707 1195 722 c 1,248,-1
 1197 722 l 1,249,-1
 1195 722 l 1,250,-1
 1197 724 l 1,251,-1
 1197 722 l 1,252,-1
 1197 724 l 1,253,-1
 1191 724 l 1,254,-1
 1185 724 l 1,255,-1
 1159 724 l 1,256,-1
 1115 722 l 1,257,-1
 1107 722 l 1,258,-1
 1099 722 l 1,259,-1
 1089 722 l 1,260,-1
 1083 722 l 1,261,-1
 1067 722 l 1,262,263
 1044 719 1044 719 1027 720 c 1,264,-1
 1019 720 l 1,265,-1
 983 720 l 1,266,-1
 973 720 l 1,267,-1
 967 720 l 1,268,269
 955 723 955 723 945 722 c 1,270,-1
 917 722 l 1,271,-1
 841 726 l 1,272,-1
 827 728 l 1,273,-1
 819 728 l 1,274,-1
 813 730 l 1,275,-1
 805 730 l 1,276,-1
 797 730 l 1,277,-1
 791 732 l 1,278,-1
 785 732 l 1,279,-1
 777 732 l 1,280,-1
 771 734 l 1,281,-1
 765 734 l 1,282,-1
 733 738 l 1,283,-1
 727 738 l 1,284,-1
 711 742 l 1,285,-1
 703 742 l 1,286,-1
 671 748 l 1,287,-1
 661 748 l 1,288,289
 642 753 642 753 629 754 c 1,290,-1
 621 756 l 1,291,-1
 613 756 l 1,292,-1
 603 758 l 1,293,-1
 595 760 l 1,294,-1
 589 760 l 1,295,-1
 581 762 l 1,296,-1
 575 762 l 1,297,-1
 559 766 l 1,298,-1
 551 766 l 1,299,-1
 519 772 l 1,300,-1
 513 772 l 1,301,-1
 507 772 l 1,302,303
 497 774 497 774 491 774 c 1,304,-1
 483 776 l 1,305,-1
 473 776 l 1,306,-1
 467 776 l 1,307,308
 459 778 459 778 451 778 c 1,309,-1
 443 780 l 1,310,-1
 409 780 l 1,311,-1
 403 780 l 1,312,-1
 379 780 l 1,313,0
 155 742 155 742 139 510 c 1,1,2
677 1399 m 1,314,315
 667 1386 667 1386 569 1290 c 1,316,317
 623 1212 623 1212 686 1173 c 1,318,319
 797 1286 797 1286 802 1289 c 1,320,-1
 800 1292 l 1,321,322
 741 1340 741 1340 716.5 1368 c 128,-1,323
 692 1396 692 1396 677 1399 c 1,314,315
EndSplineSet
Substitution2: "'fina' Terminal Forms in Arabic lookup 3 subtable" khahfinal
Substitution2: "'medi' Medial Forms in Arabic lookup 2 subtable" khahmedial
Substitution2: "'init' Initial Forms in Arabic lookup 1 subtable" khahinitial
Substitution2: "'isol' Isolated Forms in Arabic lookup 0 subtable" khahisolated
EndChar

StartChar: dal
Encoding: 171 1583 21
Width: 754
Flags: W
AnchorPoint: "abovesingle" 376 1008 basechar 0
AnchorPoint: "belowsingle" 370 -246 basechar 0
LayerCount: 2
Fore
SplineSet
389 722 m 1,0,-1
 388 719 l 1,1,-1
 387 717 l 1,2,-1
 380 702 l 1,3,-1
 372 683 l 1,4,-1
 369 677 l 1,5,-1
 368 675 l 2,6,7
 365 668 365 668 362 663 c 2,8,-1
 360 658 l 1,9,-1
 358 654 l 1,10,-1
 357 650 l 1,11,-1
 355 648 l 1,12,-1
 355 645 l 1,13,-1
 346 627 l 1,14,-1
 345 624 l 1,15,-1
 344 621 l 1,16,-1
 343 619 l 2,17,18
 340 614 340 614 339 610 c 2,19,-1
 338 607 l 1,20,-1
 336 605 l 1,21,-1
 335 601 l 1,22,-1
 334 598 l 1,23,-1
 332 596 l 1,24,-1
 331 593 l 1,25,-1
 330 589 l 1,26,-1
 328 587 l 1,27,28
 325 577 325 577 322 572 c 1,29,30
 324 571 324 571 324 570 c 2,31,-1
 326 569 l 1,32,-1
 327 567 l 1,33,34
 337 560 337 560 342 554 c 2,35,-1
 351 544 l 1,36,-1
 354 542 l 1,37,-1
 356 539 l 1,38,-1
 359 538 l 1,39,-1
 361 535 l 1,40,-1
 363 534 l 1,41,-1
 365 531 l 1,42,43
 373 525 373 525 376 519 c 1,44,45
 381 516 381 516 383 512 c 1,46,47
 385 511 385 511 385 510 c 2,48,-1
 397 499 l 1,49,-1
 400 496 l 1,50,-1
 402 492 l 1,51,-1
 405 490 l 1,52,-1
 407 487 l 1,53,-1
 410 485 l 1,54,-1
 412 483 l 1,55,-1
 413 480 l 1,56,57
 415 479 415 479 415 478 c 0,58,59
 424 470 424 470 429 462 c 1,60,61
 437 456 437 456 441 448 c 1,62,63
 446 444 446 444 449 439 c 1,64,-1
 452 436 l 1,65,-1
 455 433 l 1,66,-1
 456 430 l 1,67,68
 462 425 462 425 464 420 c 1,69,70
 469 415 469 415 471 411 c 1,71,-1
 474 408 l 1,72,-1
 476 405 l 1,73,-1
 478 401 l 1,74,75
 480 400 480 400 480 399 c 0,76,77
 486 393 486 393 488 387 c 1,78,79
 497 378 497 378 501 368 c 1,80,81
 503 367 503 367 503 366 c 2,82,-1
 505 364 l 1,83,-1
 511 353 l 1,84,-1
 513 351 l 1,85,-1
 514 348 l 1,86,-1
 516 346 l 1,87,-1
 517 344 l 1,88,-1
 518 341 l 2,89,90
 519 340 519 340 519 339 c 0,91,92
 525 332 525 332 528 324 c 1,93,94
 532 319 532 319 533 314 c 1,95,-1
 535 312 l 1,96,-1
 539 302 l 1,97,98
 545 294 545 294 546 287 c 1,99,100
 550 283 550 283 551 278 c 2,101,-1
 552 275 l 1,102,-1
 553 272 l 2,103,104
 555 268 555 268 556 264 c 2,105,-1
 559 257 l 2,106,107
 564 246 564 246 565 238 c 1,108,-1
 561 236 l 1,109,-1
 557 234 l 1,110,-1
 553 232 l 1,111,-1
 551 231 l 1,112,-1
 539 227 l 1,113,-1
 537 225 l 1,114,115
 532 224 532 224 529 222 c 0,116,117
 520 218 520 218 513 216 c 1,118,-1
 510 214 l 1,119,-1
 506 213 l 1,120,121
 500 210 500 210 495 209 c 1,122,123
 489 206 489 206 484 205 c 1,124,125
 475 200 475 200 467 199 c 1,126,127
 459 195 459 195 453 193 c 1,128,-1
 446 192 l 1,129,-1
 440 189 l 1,130,-1
 437 189 l 1,131,-1
 430 186 l 1,132,-1
 427 186 l 1,133,134
 421 183 421 183 416 183 c 1,135,136
 413 181 413 181 410 181 c 1,137,138
 403 178 403 178 398 178 c 1,139,-1
 381 173 l 1,140,-1
 378 173 l 1,141,-1
 362 169 l 1,142,-1
 359 169 l 1,143,-1
 354 168 l 2,144,145
 348 166 348 166 343 166 c 1,146,-1
 329 163 l 1,147,-1
 325 163 l 1,148,-1
 323 162 l 1,149,150
 314 161 314 161 307 160 c 1,151,-1
 302 160 l 1,152,153
 296 159 296 159 291 159 c 1,154,-1
 287 158 l 1,155,-1
 284 158 l 1,156,-1
 280 158 l 1,157,-1
 277 157 l 1,158,-1
 273 157 l 1,159,-1
 266 157 l 1,160,161
 255 156 255 156 248 156 c 2,162,-1
 235 156 l 1,163,-1
 221 156 l 2,164,165
 215 156 215 156 210 157 c 1,166,167
 201 157 201 157 194 158 c 1,168,169
 182 158 182 158 174 160 c 1,170,-1
 170 154 l 1,171,-1
 169 151 l 1,172,-1
 167 149 l 1,173,-1
 165 144 l 1,174,-1
 163 142 l 1,175,-1
 162 139 l 1,176,177
 156 129 156 129 153 122 c 1,178,-1
 151 121 l 1,179,180
 149 115 149 115 146 111 c 1,181,-1
 145 108 l 1,182,-1
 142 100 l 1,183,-1
 140 98 l 1,184,-1
 139 95 l 1,185,-1
 138 92 l 1,186,-1
 137 89 l 1,187,-1
 136 87 l 2,188,189
 132 80 132 80 131 75 c 2,190,-1
 130 72 l 1,191,-1
 128 69 l 1,192,193
 125 59 125 59 122 52 c 2,194,-1
 121 49 l 1,195,-1
 120 45 l 1,196,-1
 117 34 l 1,197,-1
 116 30 l 1,198,-1
 115 27 l 1,199,-1
 114 24 l 1,200,-1
 112 13 l 1,201,202
 108 -1 108 -1 108 -10 c 1,203,-1
 111 -10 l 1,204,-1
 115 -10 l 1,205,-1
 119 -10 l 1,206,-1
 123 -10 l 1,207,-1
 127 -10 l 1,208,-1
 144 -10 l 1,209,-1
 152 -10 l 1,210,-1
 159 -10 l 1,211,-1
 163 -10 l 1,212,-1
 167 -10 l 1,213,-1
 184 -10 l 1,214,-1
 192 -10 l 1,215,-1
 199 -10 l 1,216,-1
 206 -10 l 1,217,218
 209 -9 209 -9 212 -9 c 2,219,-1
 224 -9 l 1,220,-1
 230 -8 l 1,221,-1
 238 -8 l 1,222,-1
 241 -8 l 1,223,224
 245 -6 245 -6 249 -7 c 1,225,-1
 253 -7 l 1,226,227
 255 -6 255 -6 256 -6 c 2,228,-1
 261 -6 l 1,229,-1
 264 -5 l 1,230,-1
 275 -5 l 1,231,232
 284 -2 284 -2 291 -3 c 1,233,-1
 294 -2 l 1,234,-1
 298 -2 l 1,235,-1
 302 -1 l 1,236,-1
 312 0 l 2,237,238
 317 1 317 1 321 1 c 1,239,240
 331 4 331 4 338 4 c 1,241,242
 351 8 351 8 360 8 c 1,243,244
 367 11 367 11 373 11 c 1,245,-1
 402 18 l 1,246,247
 408 21 408 21 413 21 c 1,248,-1
 421 24 l 1,249,-1
 424 24 l 1,250,251
 434 29 434 29 442 30 c 2,252,-1
 446 31 l 1,253,254
 462 39 462 39 473 41 c 0,255,256
 474 42 474 42 475 42 c 2,257,-1
 487 48 l 1,258,-1
 490 48 l 1,259,260
 501 55 501 55 510 57 c 1,261,-1
 514 60 l 1,262,-1
 518 61 l 2,263,264
 519 62 519 62 520 62 c 2,265,-1
 529 68 l 1,266,267
 538 72 538 72 544 76 c 1,268,-1
 547 77 l 1,269,-1
 551 79 l 1,270,271
 554 82 554 82 557 84 c 1,272,-1
 561 85 l 1,273,274
 562 87 562 87 564 87 c 1,275,276
 565 89 565 89 567 89 c 1,277,-1
 570 91 l 1,278,-1
 572 93 l 1,279,-1
 575 95 l 1,280,-1
 577 96 l 1,281,-1
 579 97 l 2,282,283
 580 98 580 98 581 98 c 0,284,285
 587 105 587 105 593 108 c 1,286,-1
 594 111 l 1,287,-1
 596 113 l 1,288,-1
 598 116 l 1,289,-1
 599 119 l 1,290,-1
 601 121 l 1,291,-1
 602 123 l 2,292,293
 607 132 607 132 611 137 c 1,294,-1
 612 141 l 1,295,-1
 614 143 l 1,296,-1
 623 161 l 1,297,-1
 624 164 l 1,298,-1
 626 166 l 1,299,-1
 627 169 l 1,300,301
 635 186 635 186 638 198 c 1,302,-1
 641 203 l 1,303,-1
 642 210 l 1,304,-1
 645 216 l 1,305,-1
 646 221 l 1,306,-1
 646 224 l 1,307,-1
 647 227 l 1,308,-1
 648 229 l 1,309,-1
 650 238 l 1,310,-1
 651 246 l 1,311,-1
 654 262 l 1,312,-1
 654 266 l 1,313,-1
 655 269 l 1,314,-1
 655 272 l 1,315,-1
 655 275 l 1,316,-1
 655 278 l 1,317,-1
 655 291 l 1,318,-1
 655 295 l 1,319,-1
 655 305 l 1,320,-1
 655 308 l 1,321,-1
 655 311 l 1,322,-1
 655 314 l 1,323,-1
 654 321 l 1,324,-1
 652 343 l 2,325,326
 651 344 651 344 651 346 c 2,327,-1
 650 349 l 1,328,-1
 649 357 l 1,329,330
 644 366 644 366 643 373 c 1,331,332
 640 378 640 378 639 384 c 1,333,334
 631 397 631 397 629 407 c 1,335,336
 624 414 624 414 623 420 c 0,337,338
 622 421 622 421 622 422 c 0,339,340
 617 429 617 429 615 434 c 2,341,-1
 614 436 l 1,342,-1
 612 442 l 1,343,344
 606 450 606 450 604 457 c 1,345,346
 602 458 602 458 602 460 c 1,347,-1
 599 464 l 1,348,-1
 597 469 l 1,349,-1
 594 473 l 1,350,-1
 592 476 l 1,351,-1
 591 480 l 1,352,353
 589 481 589 481 589 483 c 1,354,-1
 586 486 l 1,355,-1
 569 515 l 1,356,-1
 566 518 l 1,357,-1
 560 529 l 1,358,359
 558 530 558 530 558 532 c 1,360,361
 556 533 556 533 556 534 c 2,362,-1
 554 537 l 1,363,-1
 552 539 l 1,364,-1
 551 541 l 1,365,-1
 549 543 l 1,366,-1
 548 545 l 1,367,-1
 547 547 l 1,368,369
 539 556 539 556 536 563 c 1,370,-1
 533 567 l 1,371,-1
 530 571 l 1,372,-1
 527 575 l 1,373,-1
 524 579 l 1,374,-1
 521 582 l 1,375,-1
 519 584 l 1,376,-1
 518 587 l 1,377,378
 516 588 516 588 516 589 c 2,379,-1
 515 591 l 1,380,381
 506 601 506 601 501 608 c 1,382,383
 494 615 494 615 491 621 c 1,384,385
 489 622 489 622 489 623 c 2,386,-1
 487 625 l 1,387,-1
 485 627 l 1,388,-1
 484 629 l 2,389,390
 483 630 483 630 483 631 c 0,391,392
 475 637 475 637 472 644 c 1,393,394
 463 652 463 652 458 659 c 2,395,-1
 454 664 l 1,396,-1
 451 667 l 1,397,-1
 443 676 l 1,398,-1
 440 680 l 1,399,-1
 436 683 l 1,400,-1
 433 687 l 2,401,402
 428 692 428 692 425 696 c 1,403,-1
 422 698 l 1,404,-1
 420 700 l 1,405,406
 414 708 414 708 409 712 c 1,407,-1
 408 714 l 1,408,409
 406 715 406 715 406 716 c 0,410,411
 404 717 404 717 404 718 c 2,412,-1
 392 729 l 1,413,-1
 389 722 l 1,0,-1
EndSplineSet
Substitution2: "'fina' Terminal Forms in Arabic lookup 3 subtable" dalfinal
Substitution2: "'isol' Isolated Forms in Arabic lookup 0 subtable" dalisolated
EndChar

StartChar: thal
Encoding: 172 1584 22
Width: 709
Flags: W
AnchorPoint: "belowsingle" 370 -246 basechar 0
AnchorPoint: "abovesingle" 337 1554 basechar 0
LayerCount: 2
Fore
SplineSet
335 722 m 1,0,-1
 334 719 l 1,1,-1
 333 717 l 1,2,-1
 326 702 l 1,3,-1
 318 683 l 1,4,-1
 315 677 l 1,5,-1
 314 675 l 2,6,7
 311 668 311 668 308 663 c 2,8,-1
 306 658 l 1,9,-1
 304 654 l 1,10,-1
 303 650 l 1,11,-1
 301 648 l 1,12,-1
 301 645 l 1,13,-1
 292 627 l 1,14,-1
 291 624 l 1,15,-1
 290 621 l 1,16,-1
 289 619 l 2,17,18
 286 614 286 614 285 610 c 2,19,-1
 284 607 l 1,20,-1
 282 605 l 1,21,-1
 281 601 l 1,22,-1
 280 598 l 1,23,-1
 278 596 l 1,24,-1
 277 593 l 1,25,-1
 276 589 l 1,26,-1
 274 587 l 1,27,28
 271 577 271 577 268 572 c 1,29,30
 270 571 270 571 270 570 c 2,31,-1
 272 569 l 1,32,-1
 273 567 l 1,33,34
 283 560 283 560 288 554 c 2,35,-1
 297 544 l 1,36,-1
 300 542 l 1,37,-1
 302 539 l 1,38,-1
 305 538 l 1,39,-1
 307 535 l 1,40,-1
 309 534 l 1,41,-1
 311 531 l 1,42,43
 319 525 319 525 322 519 c 1,44,45
 327 516 327 516 329 512 c 1,46,47
 331 511 331 511 331 510 c 2,48,-1
 343 499 l 1,49,-1
 346 496 l 1,50,-1
 348 492 l 1,51,-1
 351 490 l 1,52,-1
 353 487 l 1,53,-1
 356 485 l 1,54,-1
 358 483 l 1,55,-1
 359 480 l 1,56,57
 361 479 361 479 361 478 c 0,58,59
 370 470 370 470 375 462 c 1,60,61
 383 456 383 456 387 448 c 1,62,63
 392 444 392 444 395 439 c 1,64,-1
 398 436 l 1,65,-1
 401 433 l 1,66,-1
 402 430 l 1,67,68
 408 425 408 425 410 420 c 1,69,70
 415 415 415 415 417 411 c 1,71,-1
 420 408 l 1,72,-1
 422 405 l 1,73,-1
 424 401 l 1,74,75
 426 400 426 400 426 399 c 0,76,77
 432 393 432 393 434 387 c 1,78,79
 443 378 443 378 447 368 c 1,80,81
 449 367 449 367 449 366 c 2,82,-1
 451 364 l 1,83,-1
 457 353 l 1,84,-1
 459 351 l 1,85,-1
 460 348 l 1,86,-1
 462 346 l 1,87,-1
 463 344 l 1,88,-1
 464 341 l 2,89,90
 465 340 465 340 465 339 c 0,91,92
 471 332 471 332 474 324 c 1,93,94
 478 319 478 319 479 314 c 1,95,-1
 481 312 l 1,96,-1
 485 302 l 1,97,98
 491 294 491 294 492 287 c 1,99,100
 496 283 496 283 497 278 c 2,101,-1
 498 275 l 1,102,-1
 499 272 l 2,103,104
 501 268 501 268 502 264 c 2,105,-1
 505 257 l 2,106,107
 510 246 510 246 511 238 c 1,108,-1
 507 236 l 1,109,-1
 503 234 l 1,110,-1
 499 232 l 1,111,-1
 497 231 l 1,112,-1
 485 227 l 1,113,-1
 483 225 l 1,114,115
 478 224 478 224 475 222 c 0,116,117
 466 218 466 218 459 216 c 1,118,-1
 456 214 l 1,119,-1
 452 213 l 1,120,121
 446 210 446 210 441 209 c 1,122,123
 435 206 435 206 430 205 c 1,124,125
 421 200 421 200 413 199 c 1,126,127
 405 195 405 195 399 193 c 1,128,-1
 392 192 l 1,129,-1
 386 189 l 1,130,-1
 383 189 l 1,131,-1
 376 186 l 1,132,-1
 373 186 l 1,133,134
 367 183 367 183 362 183 c 1,135,136
 359 181 359 181 356 181 c 1,137,138
 349 178 349 178 344 178 c 1,139,-1
 327 173 l 1,140,-1
 324 173 l 1,141,-1
 308 169 l 1,142,-1
 305 169 l 1,143,-1
 300 168 l 2,144,145
 294 166 294 166 289 166 c 1,146,-1
 275 163 l 1,147,-1
 271 163 l 1,148,-1
 269 162 l 1,149,150
 260 161 260 161 253 160 c 1,151,-1
 248 160 l 1,152,153
 242 159 242 159 237 159 c 1,154,-1
 233 158 l 1,155,-1
 230 158 l 1,156,-1
 226 158 l 1,157,-1
 223 157 l 1,158,-1
 219 157 l 1,159,-1
 212 157 l 1,160,161
 201 156 201 156 194 156 c 2,162,-1
 181 156 l 1,163,-1
 167 156 l 2,164,165
 161 156 161 156 156 157 c 1,166,167
 147 157 147 157 140 158 c 1,168,169
 128 158 128 158 120 160 c 1,170,-1
 116 154 l 1,171,-1
 115 151 l 1,172,-1
 113 149 l 1,173,-1
 111 144 l 1,174,-1
 109 142 l 1,175,-1
 108 139 l 1,176,177
 102 129 102 129 99 122 c 1,178,-1
 97 121 l 1,179,180
 95 115 95 115 92 111 c 1,181,-1
 91 108 l 1,182,-1
 88 100 l 1,183,-1
 86 98 l 1,184,-1
 85 95 l 1,185,-1
 84 92 l 1,186,-1
 83 89 l 1,187,-1
 82 87 l 2,188,189
 78 80 78 80 77 75 c 2,190,-1
 76 72 l 1,191,-1
 74 69 l 1,192,193
 71 59 71 59 68 52 c 2,194,-1
 67 49 l 1,195,-1
 66 45 l 1,196,-1
 63 34 l 1,197,-1
 62 30 l 1,198,-1
 61 27 l 1,199,-1
 60 24 l 1,200,-1
 58 13 l 1,201,202
 54 -1 54 -1 54 -10 c 1,203,-1
 57 -10 l 1,204,-1
 61 -10 l 1,205,-1
 65 -10 l 1,206,-1
 69 -10 l 1,207,-1
 73 -10 l 1,208,-1
 90 -10 l 1,209,-1
 98 -10 l 1,210,-1
 105 -10 l 1,211,-1
 109 -10 l 1,212,-1
 113 -10 l 1,213,-1
 130 -10 l 1,214,-1
 138 -10 l 1,215,-1
 145 -10 l 1,216,-1
 152 -10 l 1,217,218
 155 -9 155 -9 158 -9 c 2,219,-1
 170 -9 l 1,220,-1
 176 -8 l 1,221,-1
 184 -8 l 1,222,-1
 187 -8 l 1,223,224
 191 -6 191 -6 195 -7 c 1,225,-1
 199 -7 l 1,226,227
 200 -6 200 -6 202 -6 c 2,228,-1
 207 -6 l 1,229,-1
 210 -5 l 1,230,-1
 221 -5 l 1,231,232
 230 -2 230 -2 237 -3 c 1,233,-1
 240 -2 l 1,234,-1
 244 -2 l 1,235,-1
 248 -1 l 1,236,-1
 258 0 l 2,237,238
 263 1 263 1 267 1 c 1,239,240
 277 4 277 4 284 4 c 1,241,242
 297 8 297 8 306 8 c 1,243,244
 313 11 313 11 319 11 c 1,245,-1
 348 18 l 1,246,247
 354 21 354 21 359 21 c 1,248,-1
 367 24 l 1,249,-1
 370 24 l 1,250,251
 380 29 380 29 388 30 c 2,252,-1
 392 31 l 1,253,254
 408 39 408 39 419 41 c 0,255,256
 420 42 420 42 421 42 c 2,257,-1
 433 48 l 1,258,-1
 436 48 l 1,259,260
 447 55 447 55 456 57 c 1,261,-1
 460 60 l 1,262,-1
 464 61 l 2,263,264
 465 62 465 62 466 62 c 2,265,-1
 475 68 l 1,266,267
 484 72 484 72 490 76 c 1,268,-1
 493 77 l 1,269,-1
 497 79 l 1,270,271
 500 82 500 82 503 84 c 1,272,-1
 507 85 l 1,273,274
 508 87 508 87 510 87 c 1,275,276
 511 89 511 89 513 89 c 1,277,-1
 516 91 l 1,278,-1
 518 93 l 1,279,-1
 521 95 l 1,280,-1
 523 96 l 1,281,-1
 525 97 l 2,282,283
 526 98 526 98 527 98 c 0,284,285
 533 105 533 105 539 108 c 1,286,-1
 540 111 l 1,287,-1
 542 113 l 1,288,-1
 544 116 l 1,289,-1
 545 119 l 1,290,-1
 547 121 l 1,291,-1
 548 123 l 2,292,293
 553 132 553 132 557 137 c 1,294,-1
 558 141 l 1,295,-1
 560 143 l 1,296,-1
 569 161 l 1,297,-1
 570 164 l 1,298,-1
 572 166 l 1,299,-1
 573 169 l 1,300,301
 581 186 581 186 584 198 c 1,302,-1
 587 203 l 1,303,-1
 588 210 l 1,304,-1
 591 216 l 1,305,-1
 592 221 l 1,306,-1
 592 224 l 1,307,-1
 593 227 l 1,308,-1
 594 229 l 1,309,-1
 596 238 l 1,310,-1
 597 246 l 1,311,-1
 600 262 l 1,312,-1
 600 266 l 1,313,-1
 601 269 l 1,314,-1
 601 272 l 1,315,-1
 601 275 l 1,316,-1
 601 278 l 1,317,-1
 601 291 l 1,318,-1
 601 295 l 1,319,-1
 601 305 l 1,320,-1
 601 308 l 1,321,-1
 601 311 l 1,322,-1
 601 314 l 1,323,-1
 600 321 l 1,324,-1
 598 343 l 2,325,326
 597 344 597 344 597 346 c 2,327,-1
 596 349 l 1,328,-1
 595 357 l 1,329,330
 590 366 590 366 589 373 c 1,331,332
 586 378 586 378 585 384 c 1,333,334
 577 397 577 397 575 407 c 1,335,336
 570 414 570 414 569 420 c 0,337,338
 568 421 568 421 568 422 c 0,339,340
 563 429 563 429 561 434 c 2,341,-1
 560 436 l 1,342,-1
 558 442 l 1,343,344
 552 450 552 450 550 457 c 1,345,346
 548 458 548 458 548 460 c 1,347,-1
 545 464 l 1,348,-1
 543 469 l 1,349,-1
 540 473 l 1,350,-1
 538 476 l 1,351,-1
 537 480 l 1,352,353
 535 481 535 481 535 483 c 1,354,-1
 532 486 l 1,355,-1
 515 515 l 1,356,-1
 512 518 l 1,357,-1
 506 529 l 1,358,359
 504 530 504 530 504 532 c 1,360,361
 502 533 502 533 502 534 c 2,362,-1
 500 537 l 1,363,-1
 498 539 l 1,364,-1
 497 541 l 1,365,-1
 495 543 l 1,366,-1
 494 545 l 1,367,-1
 493 547 l 1,368,369
 485 556 485 556 482 563 c 1,370,-1
 479 567 l 1,371,-1
 476 571 l 1,372,-1
 473 575 l 1,373,-1
 470 579 l 1,374,-1
 467 582 l 1,375,-1
 465 584 l 1,376,-1
 464 587 l 1,377,378
 462 588 462 588 462 589 c 2,379,-1
 461 591 l 1,380,381
 452 601 452 601 447 608 c 1,382,383
 440 615 440 615 437 621 c 1,384,385
 435 622 435 622 435 623 c 2,386,-1
 433 625 l 1,387,-1
 431 627 l 1,388,-1
 430 629 l 2,389,390
 429 630 429 630 429 631 c 0,391,392
 421 637 421 637 418 644 c 1,393,394
 409 652 409 652 404 659 c 2,395,-1
 400 664 l 1,396,-1
 397 667 l 1,397,-1
 389 676 l 1,398,-1
 386 680 l 1,399,-1
 382 683 l 1,400,-1
 379 687 l 2,401,402
 374 692 374 692 371 696 c 1,403,-1
 368 698 l 1,404,-1
 366 700 l 1,405,406
 360 708 360 708 355 712 c 1,407,-1
 354 714 l 1,408,409
 352 715 352 715 352 716 c 0,410,411
 350 717 350 717 350 718 c 2,412,-1
 338 729 l 1,413,-1
 335 722 l 1,0,-1
352 1385 m 1,414,415
 342 1372 342 1372 244 1276 c 1,416,417
 298 1198 298 1198 361 1159 c 1,418,419
 472 1272 472 1272 477 1275 c 1,420,-1
 475 1278 l 1,421,422
 416 1326 416 1326 391.5 1354 c 128,-1,423
 367 1382 367 1382 352 1385 c 1,414,415
EndSplineSet
Substitution2: "'fina' Terminal Forms in Arabic lookup 3 subtable" thalfinal
Substitution2: "'isol' Isolated Forms in Arabic lookup 0 subtable" thalisolated
EndChar

StartChar: reh
Encoding: 173 1585 23
Width: 884
Flags: W
AnchorPoint: "abovesingle" 331 1140 basechar 0
AnchorPoint: "belowsingle" 364 -660 basechar 0
LayerCount: 2
Fore
SplineSet
654 244 m 1,0,-1
 651 244 l 1,1,-1
 648 243 l 1,2,-1
 644 243 l 1,3,-1
 636 241 l 1,4,-1
 616 236 l 1,5,6
 612 233 612 233 608 233 c 1,7,8
 599 229 599 229 592 227 c 1,9,-1
 589 225 l 1,10,-1
 586 224 l 1,11,-1
 583 222 l 1,12,-1
 580 221 l 1,13,-1
 578 220 l 1,14,-1
 572 218 l 1,15,-1
 569 217 l 1,16,17
 560 212 560 212 552 210 c 1,18,-1
 548 208 l 1,19,-1
 545 206 l 2,20,21
 538 202 538 202 534 201 c 1,22,23
 530 198 530 198 526 197 c 1,24,-1
 524 195 l 1,25,-1
 521 193 l 1,26,-1
 518 192 l 1,27,-1
 515 191 l 1,28,-1
 514 189 l 1,29,-1
 493 178 l 1,30,-1
 489 174 l 1,31,-1
 485 172 l 1,32,-1
 481 169 l 1,33,-1
 478 167 l 1,34,-1
 475 166 l 1,35,-1
 474 164 l 1,36,-1
 468 160 l 1,37,-1
 459 155 l 1,38,39
 457 152 457 152 455 151 c 2,40,-1
 450 148 l 1,41,-1
 446 144 l 1,42,-1
 442 142 l 1,43,-1
 439 139 l 1,44,-1
 436 136 l 1,45,46
 429 131 429 131 425 127 c 1,47,-1
 422 125 l 1,48,49
 417 120 417 120 413 118 c 1,50,51
 404 107 404 107 395 102 c 1,52,53
 394 100 394 100 393 100 c 0,54,55
 383 87 383 87 374 81 c 1,56,-1
 371 77 l 1,57,-1
 367 74 l 1,58,-1
 364 70 l 1,59,-1
 362 69 l 1,60,-1
 361 67 l 1,61,-1
 359 66 l 1,62,63
 354 59 354 59 349 56 c 1,64,-1
 346 53 l 1,65,-1
 343 49 l 1,66,-1
 337 41 l 1,67,-1
 335 39 l 1,68,-1
 332 37 l 1,69,-1
 329 34 l 1,70,-1
 327 30 l 1,71,-1
 324 28 l 1,72,-1
 319 22 l 2,73,74
 316 18 316 18 313 15 c 0,75,76
 308 8 308 8 303 4 c 1,77,-1
 301 1 l 2,78,79
 300 -1 300 -1 299 -1 c 2,80,-1
 297 -5 l 1,81,-1
 294 -7 l 1,82,-1
 293 -9 l 1,83,-1
 280 -25 l 1,84,-1
 278 -27 l 1,85,-1
 276 -30 l 1,86,-1
 260 -51 l 1,87,-1
 257 -53 l 1,88,-1
 253 -59 l 1,89,-1
 237 -80 l 1,90,-1
 235 -82 l 1,91,-1
 233 -85 l 1,92,-1
 223 -98 l 2,93,94
 221 -102 221 -102 218 -104 c 1,95,-1
 214 -110 l 1,96,-1
 210 -116 l 1,97,-1
 208 -119 l 1,98,-1
 206 -120 l 1,99,-1
 192 -139 l 1,100,-1
 180 -156 l 1,101,102
 176 -159 176 -159 175 -162 c 1,103,-1
 173 -164 l 1,104,-1
 172 -166 l 1,105,-1
 167 -171 l 1,106,107
 165 -176 165 -176 161 -179 c 1,108,-1
 158 -185 l 1,109,-1
 153 -190 l 1,110,-1
 149 -195 l 1,111,-1
 148 -197 l 1,112,113
 142 -206 142 -206 137 -211 c 0,114,115
 136 -213 136 -213 135 -213 c 2,116,-1
 134 -215 l 1,117,-1
 133 -217 l 1,118,-1
 131 -219 l 1,119,-1
 130 -221 l 1,120,-1
 128 -224 l 1,121,-1
 114 -240 l 1,122,-1
 112 -244 l 1,123,-1
 103 -255 l 1,124,-1
 100 -258 l 1,125,-1
 98 -261 l 2,126,127
 95 -267 95 -267 91 -270 c 1,128,-1
 89 -273 l 1,129,-1
 86 -275 l 1,130,131
 82 -282 82 -282 79 -285 c 1,132,-1
 77 -286 l 1,133,-1
 76 -288 l 1,134,-1
 75 -290 l 1,135,-1
 73 -292 l 1,136,-1
 63 -305 l 1,137,-1
 53 -315 l 1,138,139
 15 -365 15 -365 -37 -387 c 1,140,141
 -43 -391 -43 -391 -48 -393 c 1,142,-1
 -51 -393 l 1,143,144
 -52 -394 -52 -394 -53 -394 c 2,145,-1
 -59 -397 l 1,146,-1
 -62 -397 l 1,147,148
 -63 -398 -63 -398 -64 -398 c 2,149,-1
 -72 -400 l 1,150,151
 -89 -407 -89 -407 -104 -406 c 1,152,-1
 -107 -406 l 1,153,154
 -114 -407 -114 -407 -119 -407 c 2,155,-1
 -126 -406 l 1,156,-1
 -138 -405 l 1,157,-1
 -146 -403 l 1,158,-1
 -149 -403 l 1,159,-1
 -152 -401 l 1,160,161
 -170 -397 -170 -397 -182 -390 c 1,162,-1
 -184 -388 l 1,163,-1
 -195 -382 l 1,164,-1
 -197 -379 l 1,165,-1
 -200 -378 l 1,166,-1
 -203 -376 l 1,167,-1
 -205 -373 l 1,168,-1
 -208 -372 l 1,169,-1
 -210 -369 l 1,170,-1
 -213 -367 l 1,171,-1
 -215 -364 l 1,172,-1
 -218 -362 l 1,173,-1
 -220 -360 l 1,174,-1
 -222 -358 l 1,175,-1
 -223 -356 l 1,176,-1
 -226 -354 l 1,177,-1
 -227 -352 l 1,178,-1
 -236 -342 l 1,179,-1
 -246 -327 l 2,180,181
 -250 -320 -250 -320 -252 -315 c 1,182,183
 -254 -314 -254 -314 -254 -313 c 2,184,-1
 -255 -310 l 1,185,-1
 -257 -308 l 1,186,-1
 -261 -298 l 1,187,-1
 -263 -296 l 1,188,-1
 -264 -292 l 1,189,-1
 -265 -289 l 2,190,191
 -266 -288 -266 -288 -266 -286 c 1,192,-1
 -268 -284 l 1,193,-1
 -272 -274 l 1,194,-1
 -273 -270 l 1,195,196
 -279 -256 -279 -256 -280 -246 c 1,197,198
 -283 -239 -283 -239 -284 -233 c 1,199,-1
 -285 -231 l 1,200,-1
 -285 -227 l 1,201,202
 -288 -217 -288 -217 -289 -209 c 1,203,-1
 -290 -207 l 1,204,-1
 -292 -187 l 1,205,206
 -295 -178 -295 -178 -294 -170 c 1,207,208
 -295 -169 -295 -169 -295 -168 c 2,209,-1
 -295 -164 l 1,210,-1
 -297 -139 l 1,211,-1
 -297 -135 l 1,212,-1
 -297 -132 l 1,213,-1
 -297 -129 l 1,214,-1
 -297 -126 l 1,215,-1
 -297 -122 l 1,216,-1
 -297 -119 l 1,217,-1
 -297 -112 l 1,218,-1
 -297 -109 l 1,219,-1
 -297 -106 l 2,220,221
 -297 -97 -297 -97 -296 -90 c 1,222,-1
 -296 -79 l 1,223,-1
 -296 -76 l 1,224,-1
 -294 -60 l 2,225,226
 -294 -52 -294 -52 -293 -47 c 1,227,-1
 -293 -42 l 1,228,-1
 -292 -39 l 1,229,-1
 -292 -35 l 1,230,-1
 -291 -32 l 1,231,-1
 -291 -28 l 1,232,-1
 -290 -26 l 1,233,-1
 -290 -23 l 1,234,-1
 -290 -20 l 1,235,236
 -287 -10 -287 -10 -287 -3 c 1,237,-1
 -284 6 l 1,238,-1
 -284 11 l 1,239,-1
 -283 16 l 1,240,-1
 -282 20 l 1,241,-1
 -281 23 l 1,242,-1
 -281 26 l 1,243,-1
 -278 43 l 1,244,-1
 -278 46 l 1,245,-1
 -276 58 l 2,246,247
 -273 80 -273 80 -283 83 c 1,248,-1
 -288 77 l 1,249,-1
 -290 74 l 1,250,-1
 -292 71 l 1,251,-1
 -293 69 l 1,252,-1
 -294 67 l 1,253,-1
 -295 65 l 1,254,-1
 -296 63 l 2,255,256
 -299 56 -299 56 -302 51 c 1,257,258
 -392 -185 -392 -185 -338 -400 c 1,259,-1
 -336 -404 l 1,260,-1
 -335 -406 l 1,261,-1
 -333 -415 l 1,262,-1
 -331 -418 l 1,263,-1
 -329 -426 l 1,264,265
 -324 -435 -324 -435 -322 -442 c 1,266,-1
 -320 -445 l 1,267,-1
 -318 -449 l 1,268,-1
 -317 -451 l 1,269,-1
 -315 -457 l 1,270,-1
 -313 -459 l 1,271,-1
 -312 -462 l 1,272,-1
 -311 -464 l 2,273,274
 -305 -474 -305 -474 -302 -481 c 1,275,276
 -300 -482 -300 -482 -300 -483 c 2,277,-1
 -298 -485 l 1,278,-1
 -292 -496 l 1,279,-1
 -289 -498 l 1,280,-1
 -288 -501 l 1,281,282
 -286 -502 -286 -502 -286 -504 c 1,283,-1
 -283 -507 l 2,284,285
 -279 -511 -279 -511 -277 -515 c 1,286,-1
 -274 -517 l 1,287,-1
 -272 -519 l 2,288,289
 -261 -531 -261 -531 -253 -537 c 1,290,-1
 -252 -539 l 1,291,292
 -246 -543 -246 -543 -242 -547 c 1,293,-1
 -239 -549 l 2,294,295
 -234 -552 -234 -552 -231 -555 c 1,296,-1
 -227 -556 l 1,297,298
 -223 -559 -223 -559 -219 -561 c 2,299,-1
 -216 -563 l 1,300,-1
 -214 -564 l 2,301,302
 -207 -567 -207 -567 -202 -570 c 1,303,-1
 -195 -572 l 1,304,-1
 -193 -573 l 1,305,306
 -188 -574 -188 -574 -184 -576 c 1,307,-1
 -181 -576 l 1,308,-1
 -173 -579 l 1,309,-1
 -163 -580 l 1,310,-1
 -160 -581 l 1,311,-1
 -156 -581 l 1,312,-1
 -153 -582 l 1,313,-1
 -149 -582 l 1,314,-1
 -146 -582 l 1,315,-1
 -141 -582 l 1,316,-1
 -138 -582 l 1,317,-1
 -134 -582 l 1,318,-1
 -131 -582 l 1,319,-1
 -111 -582 l 1,320,-1
 -107 -581 l 1,321,-1
 -103 -580 l 1,322,-1
 -88 -578 l 1,323,-1
 -84 -577 l 1,324,325
 -78 -574 -78 -574 -73 -574 c 1,326,327
 -72 -573 -72 -573 -70 -573 c 2,328,-1
 -63 -570 l 1,329,-1
 -55 -568 l 1,330,331
 -50 -565 -50 -565 -45 -564 c 1,332,-1
 -41 -562 l 1,333,-1
 -37 -560 l 1,334,-1
 -33 -558 l 2,335,336
 -28 -555 -28 -555 -24 -554 c 1,337,338
 -18 -549 -18 -549 -13 -548 c 1,339,340
 -12 -546 -12 -546 -11 -546 c 2,341,-1
 -8 -544 l 1,342,-1
 -5 -543 l 1,343,-1
 -3 -541 l 1,344,-1
 0 -540 l 1,345,346
 12 -529 12 -529 22 -525 c 1,347,-1
 24 -522 l 1,348,-1
 27 -521 l 1,349,350
 32 -516 32 -516 37 -513 c 1,351,-1
 38 -511 l 1,352,353
 43 -508 43 -508 45 -505 c 1,354,-1
 48 -503 l 1,355,-1
 51 -500 l 1,356,-1
 54 -498 l 1,357,-1
 57 -495 l 2,358,359
 61 -491 61 -491 64 -488 c 2,360,-1
 66 -486 l 1,361,-1
 75 -478 l 1,362,-1
 76 -476 l 1,363,364
 88 -465 88 -465 94 -457 c 1,365,-1
 96 -456 l 1,366,-1
 109 -441 l 1,367,-1
 112 -437 l 1,368,-1
 115 -434 l 1,369,-1
 118 -431 l 1,370,-1
 119 -428 l 1,371,-1
 122 -425 l 2,372,373
 123 -423 123 -423 124 -423 c 2,374,-1
 126 -419 l 1,375,-1
 131 -414 l 1,376,-1
 133 -411 l 1,377,-1
 134 -409 l 1,378,-1
 136 -406 l 1,379,-1
 146 -393 l 1,380,-1
 155 -380 l 1,381,-1
 159 -375 l 1,382,-1
 166 -363 l 1,383,-1
 169 -359 l 1,384,-1
 171 -356 l 1,385,-1
 174 -352 l 1,386,-1
 176 -349 l 2,387,388
 179 -343 179 -343 183 -339 c 1,389,390
 185 -335 185 -335 187 -333 c 2,391,-1
 188 -331 l 1,392,-1
 192 -324 l 1,393,-1
 193 -322 l 1,394,-1
 201 -311 l 1,395,-1
 205 -304 l 1,396,-1
 206 -302 l 1,397,398
 210 -297 210 -297 211 -294 c 1,399,-1
 214 -291 l 1,400,-1
 216 -287 l 1,401,-1
 219 -284 l 1,402,-1
 220 -281 l 1,403,-1
 222 -278 l 1,404,-1
 228 -270 l 1,405,-1
 230 -267 l 1,406,-1
 231 -264 l 1,407,-1
 233 -262 l 1,408,-1
 237 -257 l 1,409,410
 242 -246 242 -246 249 -239 c 1,411,412
 252 -232 252 -232 256 -229 c 1,413,414
 261 -218 261 -218 268 -212 c 1,415,-1
 269 -209 l 1,416,-1
 272 -206 l 1,417,418
 274 -202 274 -202 276 -200 c 1,419,-1
 277 -197 l 1,420,-1
 279 -195 l 1,421,-1
 280 -193 l 1,422,-1
 282 -191 l 1,423,-1
 292 -178 l 1,424,-1
 294 -174 l 1,425,-1
 297 -170 l 1,426,-1
 303 -163 l 1,427,428
 311 -151 311 -151 318 -144 c 1,429,-1
 320 -140 l 1,430,-1
 322 -138 l 1,431,-1
 324 -135 l 1,432,-1
 325 -133 l 1,433,-1
 327 -132 l 1,434,-1
 337 -118 l 1,435,-1
 342 -114 l 1,436,-1
 345 -110 l 1,437,438
 353 -97 353 -97 362 -90 c 1,439,-1
 364 -86 l 1,440,-1
 369 -82 l 1,441,-1
 370 -79 l 1,442,-1
 372 -78 l 1,443,-1
 379 -69 l 1,444,-1
 383 -65 l 1,445,-1
 388 -61 l 1,446,-1
 391 -57 l 1,447,-1
 395 -52 l 1,448,-1
 398 -50 l 1,449,-1
 402 -46 l 2,450,451
 403 -44 403 -44 404 -44 c 0,452,453
 407 -39 407 -39 410 -37 c 2,454,-1
 412 -35 l 1,455,-1
 414 -33 l 1,456,-1
 416 -31 l 1,457,-1
 418 -29 l 1,458,-1
 420 -28 l 1,459,460
 421 -26 421 -26 422 -26 c 2,461,-1
 433 -14 l 1,462,-1
 444 -5 l 1,463,-1
 454 4 l 1,464,-1
 456 5 l 1,465,-1
 463 12 l 1,466,-1
 466 14 l 1,467,468
 475 22 475 22 482 25 c 1,469,-1
 484 28 l 1,470,-1
 487 29 l 1,471,472
 488 31 488 31 489 31 c 2,473,-1
 497 37 l 1,474,-1
 499 38 l 1,475,-1
 502 39 l 1,476,-1
 503 41 l 1,477,-1
 505 42 l 1,478,-1
 508 43 l 1,479,480
 514 48 514 48 519 51 c 2,481,-1
 526 54 l 1,482,-1
 532 58 l 1,483,484
 540 62 540 62 545 63 c 1,485,-1
 547 65 l 1,486,-1
 561 70 l 2,487,488
 562 71 562 71 563 71 c 2,489,-1
 579 77 l 1,490,-1
 583 77 l 1,491,492
 595 82 595 82 605 82 c 1,493,-1
 607 83 l 1,494,-1
 616 84 l 1,495,496
 719 86 719 86 785 -2 c 1,497,498
 793 -5 793 -5 801 -3 c 1,499,-1
 812 10 l 1,500,501
 814 15 814 15 816 18 c 1,502,-1
 816 21 l 1,503,-1
 818 24 l 1,504,-1
 818 27 l 1,505,-1
 819 30 l 1,506,-1
 821 33 l 1,507,-1
 821 37 l 1,508,-1
 822 40 l 1,509,-1
 823 42 l 1,510,-1
 824 44 l 1,511,512
 824 52 824 52 827 59 c 1,513,-1
 827 63 l 1,514,-1
 828 66 l 1,515,-1
 829 73 l 1,516,-1
 830 84 l 1,517,-1
 830 88 l 1,518,-1
 831 92 l 1,519,-1
 831 96 l 1,520,-1
 831 100 l 1,521,522
 833 106 833 106 832 110 c 1,523,-1
 832 115 l 1,524,-1
 832 126 l 1,525,-1
 832 130 l 1,526,-1
 832 133 l 1,527,-1
 832 136 l 1,528,-1
 832 139 l 1,529,-1
 832 143 l 1,530,-1
 832 146 l 1,531,-1
 832 153 l 1,532,-1
 831 165 l 1,533,-1
 830 175 l 1,534,-1
 829 176 l 1,535,-1
 825 179 l 1,536,-1
 823 182 l 1,537,-1
 818 186 l 1,538,-1
 812 193 l 1,539,-1
 808 195 l 1,540,-1
 806 197 l 1,541,-1
 804 200 l 1,542,543
 794 205 794 205 788 212 c 1,544,545
 724 251 724 251 658 245 c 1,546,-1
 654 244 l 1,0,-1
EndSplineSet
Substitution2: "'fina' Terminal Forms in Arabic lookup 3 subtable" rehfinal
Substitution2: "'isol' Isolated Forms in Arabic lookup 0 subtable" rehisolated
EndChar

StartChar: zain
Encoding: 174 1586 24
Width: 882
Flags: W
AnchorPoint: "abovesingle" 338.042 1364.7 basechar 0
AnchorPoint: "belowsingle" 290.042 -683.3 basechar 0
LayerCount: 2
Fore
SplineSet
659 244 m 1,0,-1
 656 244 l 1,1,-1
 653 243 l 1,2,-1
 649 243 l 1,3,-1
 641 241 l 1,4,-1
 621 236 l 1,5,6
 617 233 617 233 613 233 c 1,7,8
 604 229 604 229 597 227 c 1,9,-1
 594 225 l 1,10,-1
 591 224 l 1,11,-1
 588 222 l 1,12,-1
 585 221 l 1,13,-1
 583 220 l 1,14,-1
 577 218 l 1,15,-1
 574 217 l 1,16,17
 565 212 565 212 557 210 c 1,18,-1
 553 208 l 1,19,-1
 550 206 l 2,20,21
 543 202 543 202 539 201 c 1,22,23
 535 198 535 198 531 197 c 1,24,-1
 529 195 l 1,25,-1
 526 193 l 1,26,-1
 523 192 l 1,27,-1
 520 191 l 1,28,-1
 519 189 l 1,29,-1
 498 178 l 1,30,-1
 494 174 l 1,31,-1
 490 172 l 1,32,-1
 486 169 l 1,33,-1
 483 167 l 1,34,-1
 480 166 l 1,35,-1
 479 164 l 1,36,-1
 473 160 l 1,37,-1
 464 155 l 1,38,39
 462 152 462 152 460 151 c 2,40,-1
 455 148 l 1,41,-1
 451 144 l 1,42,-1
 447 142 l 1,43,-1
 444 139 l 1,44,-1
 441 136 l 1,45,46
 434 131 434 131 430 127 c 1,47,-1
 427 125 l 1,48,49
 422 120 422 120 418 118 c 1,50,51
 409 107 409 107 400 102 c 1,52,53
 399 100 399 100 398 100 c 0,54,55
 388 87 388 87 379 81 c 1,56,-1
 376 77 l 1,57,-1
 372 74 l 1,58,-1
 369 70 l 1,59,-1
 367 69 l 1,60,-1
 366 67 l 1,61,-1
 364 66 l 1,62,63
 359 59 359 59 354 56 c 1,64,-1
 351 53 l 1,65,-1
 348 49 l 1,66,-1
 342 41 l 1,67,-1
 340 39 l 1,68,-1
 337 37 l 1,69,-1
 334 34 l 1,70,-1
 332 30 l 1,71,-1
 329 28 l 1,72,-1
 324 22 l 2,73,74
 321 18 321 18 318 15 c 0,75,76
 313 8 313 8 308 4 c 1,77,-1
 306 1 l 2,78,79
 305 -1 305 -1 304 -1 c 2,80,-1
 302 -5 l 1,81,-1
 299 -7 l 1,82,-1
 298 -9 l 1,83,-1
 285 -25 l 1,84,-1
 283 -27 l 1,85,-1
 281 -30 l 1,86,-1
 265 -51 l 1,87,-1
 262 -53 l 1,88,-1
 258 -59 l 1,89,-1
 242 -80 l 1,90,-1
 240 -82 l 1,91,-1
 238 -85 l 1,92,-1
 228 -98 l 2,93,94
 226 -102 226 -102 223 -104 c 1,95,-1
 219 -110 l 1,96,-1
 215 -116 l 1,97,-1
 213 -119 l 1,98,-1
 211 -120 l 1,99,-1
 197 -139 l 1,100,-1
 185 -156 l 1,101,102
 181 -159 181 -159 180 -162 c 1,103,-1
 178 -164 l 1,104,-1
 177 -166 l 1,105,-1
 172 -171 l 1,106,107
 170 -176 170 -176 166 -179 c 1,108,-1
 163 -185 l 1,109,-1
 158 -190 l 1,110,-1
 154 -195 l 1,111,-1
 153 -197 l 1,112,113
 147 -206 147 -206 142 -211 c 0,114,115
 141 -213 141 -213 140 -213 c 2,116,-1
 139 -215 l 1,117,-1
 138 -217 l 1,118,-1
 136 -219 l 1,119,-1
 135 -221 l 1,120,-1
 133 -224 l 1,121,-1
 119 -240 l 1,122,-1
 117 -244 l 1,123,-1
 108 -255 l 1,124,-1
 105 -258 l 1,125,-1
 103 -261 l 2,126,127
 100 -267 100 -267 96 -270 c 1,128,-1
 94 -273 l 1,129,-1
 91 -275 l 1,130,131
 87 -282 87 -282 84 -285 c 1,132,-1
 82 -286 l 1,133,-1
 81 -288 l 1,134,-1
 80 -290 l 1,135,-1
 78 -292 l 1,136,-1
 68 -305 l 1,137,-1
 58 -315 l 1,138,139
 20 -365 20 -365 -32 -387 c 1,140,141
 -38 -391 -38 -391 -43 -393 c 1,142,-1
 -46 -393 l 1,143,144
 -47 -394 -47 -394 -48 -394 c 2,145,-1
 -54 -397 l 1,146,-1
 -57 -397 l 1,147,148
 -58 -398 -58 -398 -59 -398 c 2,149,-1
 -67 -400 l 1,150,151
 -84 -407 -84 -407 -99 -406 c 1,152,-1
 -102 -406 l 1,153,154
 -109 -407 -109 -407 -114 -407 c 2,155,-1
 -121 -406 l 1,156,-1
 -133 -405 l 1,157,-1
 -141 -403 l 1,158,-1
 -144 -403 l 1,159,-1
 -147 -401 l 1,160,161
 -165 -397 -165 -397 -177 -390 c 1,162,-1
 -179 -388 l 1,163,-1
 -190 -382 l 1,164,-1
 -192 -379 l 1,165,-1
 -195 -378 l 1,166,-1
 -198 -376 l 1,167,-1
 -200 -373 l 1,168,-1
 -203 -372 l 1,169,-1
 -205 -369 l 1,170,-1
 -208 -367 l 1,171,-1
 -210 -364 l 1,172,-1
 -213 -362 l 1,173,-1
 -215 -360 l 1,174,-1
 -217 -358 l 1,175,-1
 -218 -356 l 1,176,-1
 -221 -354 l 1,177,-1
 -222 -352 l 1,178,-1
 -231 -342 l 1,179,-1
 -241 -327 l 2,180,181
 -245 -320 -245 -320 -247 -315 c 1,182,183
 -249 -314 -249 -314 -249 -313 c 2,184,-1
 -250 -310 l 1,185,-1
 -252 -308 l 1,186,-1
 -256 -298 l 1,187,-1
 -258 -296 l 1,188,-1
 -259 -292 l 1,189,-1
 -260 -289 l 2,190,191
 -261 -288 -261 -288 -261 -286 c 1,192,-1
 -263 -284 l 1,193,-1
 -267 -274 l 1,194,-1
 -268 -270 l 1,195,196
 -274 -256 -274 -256 -275 -246 c 1,197,198
 -278 -239 -278 -239 -279 -233 c 1,199,-1
 -280 -231 l 1,200,-1
 -280 -227 l 1,201,202
 -283 -217 -283 -217 -284 -209 c 1,203,-1
 -285 -207 l 1,204,-1
 -287 -187 l 1,205,206
 -290 -178 -290 -178 -289 -170 c 1,207,208
 -290 -169 -290 -169 -290 -168 c 2,209,-1
 -290 -164 l 1,210,-1
 -292 -139 l 1,211,-1
 -292 -135 l 1,212,-1
 -292 -132 l 1,213,-1
 -292 -129 l 1,214,-1
 -292 -126 l 1,215,-1
 -292 -122 l 1,216,-1
 -292 -119 l 1,217,-1
 -292 -112 l 1,218,-1
 -292 -109 l 1,219,-1
 -292 -106 l 2,220,221
 -292 -97 -292 -97 -291 -90 c 1,222,-1
 -291 -79 l 1,223,-1
 -291 -76 l 1,224,-1
 -289 -60 l 2,225,226
 -289 -52 -289 -52 -288 -47 c 1,227,-1
 -288 -42 l 1,228,-1
 -287 -39 l 1,229,-1
 -287 -35 l 1,230,-1
 -286 -32 l 1,231,-1
 -286 -28 l 1,232,-1
 -285 -26 l 1,233,-1
 -285 -23 l 1,234,-1
 -285 -20 l 1,235,236
 -282 -10 -282 -10 -282 -3 c 1,237,-1
 -279 6 l 1,238,-1
 -279 11 l 1,239,-1
 -278 16 l 1,240,-1
 -277 20 l 1,241,-1
 -276 23 l 1,242,-1
 -276 26 l 1,243,-1
 -273 43 l 1,244,-1
 -273 46 l 1,245,-1
 -271 58 l 2,246,247
 -268 80 -268 80 -278 83 c 1,248,-1
 -283 77 l 1,249,-1
 -285 74 l 1,250,-1
 -287 71 l 1,251,-1
 -288 69 l 1,252,-1
 -289 67 l 1,253,-1
 -290 65 l 1,254,-1
 -291 63 l 2,255,256
 -294 56 -294 56 -297 51 c 1,257,258
 -387 -185 -387 -185 -333 -400 c 1,259,-1
 -331 -404 l 1,260,-1
 -330 -406 l 1,261,-1
 -328 -415 l 1,262,-1
 -326 -418 l 1,263,-1
 -324 -426 l 1,264,265
 -319 -435 -319 -435 -317 -442 c 1,266,-1
 -315 -445 l 1,267,-1
 -313 -449 l 1,268,-1
 -312 -451 l 1,269,-1
 -310 -457 l 1,270,-1
 -308 -459 l 1,271,-1
 -307 -462 l 1,272,-1
 -306 -464 l 2,273,274
 -300 -474 -300 -474 -297 -481 c 1,275,276
 -295 -482 -295 -482 -295 -483 c 2,277,-1
 -293 -485 l 1,278,-1
 -287 -496 l 1,279,-1
 -284 -498 l 1,280,-1
 -283 -501 l 1,281,282
 -281 -502 -281 -502 -281 -504 c 1,283,-1
 -278 -507 l 2,284,285
 -274 -511 -274 -511 -272 -515 c 1,286,-1
 -269 -517 l 1,287,-1
 -267 -519 l 2,288,289
 -256 -531 -256 -531 -248 -537 c 1,290,-1
 -247 -539 l 1,291,292
 -241 -543 -241 -543 -237 -547 c 1,293,-1
 -234 -549 l 2,294,295
 -229 -552 -229 -552 -226 -555 c 1,296,-1
 -222 -556 l 1,297,298
 -218 -559 -218 -559 -214 -561 c 2,299,-1
 -211 -563 l 1,300,-1
 -209 -564 l 2,301,302
 -202 -567 -202 -567 -197 -570 c 1,303,-1
 -190 -572 l 1,304,-1
 -188 -573 l 1,305,306
 -183 -574 -183 -574 -179 -576 c 1,307,-1
 -176 -576 l 1,308,-1
 -168 -579 l 1,309,-1
 -158 -580 l 1,310,-1
 -155 -581 l 1,311,-1
 -151 -581 l 1,312,-1
 -148 -582 l 1,313,-1
 -144 -582 l 1,314,-1
 -141 -582 l 1,315,-1
 -136 -582 l 1,316,-1
 -133 -582 l 1,317,-1
 -129 -582 l 1,318,-1
 -126 -582 l 1,319,-1
 -106 -582 l 1,320,-1
 -102 -581 l 1,321,-1
 -98 -580 l 1,322,-1
 -83 -578 l 1,323,-1
 -79 -577 l 1,324,325
 -73 -574 -73 -574 -68 -574 c 1,326,327
 -67 -573 -67 -573 -65 -573 c 2,328,-1
 -58 -570 l 1,329,-1
 -50 -568 l 1,330,331
 -45 -565 -45 -565 -40 -564 c 1,332,-1
 -36 -562 l 1,333,-1
 -32 -560 l 1,334,-1
 -28 -558 l 2,335,336
 -23 -555 -23 -555 -19 -554 c 1,337,338
 -13 -549 -13 -549 -8 -548 c 1,339,340
 -7 -546 -7 -546 -6 -546 c 2,341,-1
 -3 -544 l 1,342,-1
 0 -543 l 1,343,-1
 2 -541 l 1,344,-1
 5 -540 l 1,345,346
 17 -529 17 -529 27 -525 c 1,347,-1
 29 -522 l 1,348,-1
 32 -521 l 1,349,350
 37 -516 37 -516 42 -513 c 1,351,-1
 43 -511 l 1,352,353
 48 -508 48 -508 50 -505 c 1,354,-1
 53 -503 l 1,355,-1
 56 -500 l 1,356,-1
 59 -498 l 1,357,-1
 62 -495 l 2,358,359
 66 -491 66 -491 69 -488 c 2,360,-1
 71 -486 l 1,361,-1
 80 -478 l 1,362,-1
 81 -476 l 1,363,364
 93 -465 93 -465 99 -457 c 1,365,-1
 101 -456 l 1,366,-1
 114 -441 l 1,367,-1
 117 -437 l 1,368,-1
 120 -434 l 1,369,-1
 123 -431 l 1,370,-1
 124 -428 l 1,371,-1
 127 -425 l 2,372,373
 128 -423 128 -423 129 -423 c 2,374,-1
 131 -419 l 1,375,-1
 136 -414 l 1,376,-1
 138 -411 l 1,377,-1
 139 -409 l 1,378,-1
 141 -406 l 1,379,-1
 151 -393 l 1,380,-1
 160 -380 l 1,381,-1
 164 -375 l 1,382,-1
 171 -363 l 1,383,-1
 174 -359 l 1,384,-1
 176 -356 l 1,385,-1
 179 -352 l 1,386,-1
 181 -349 l 2,387,388
 184 -343 184 -343 188 -339 c 1,389,390
 190 -335 190 -335 192 -333 c 2,391,-1
 193 -331 l 1,392,-1
 197 -324 l 1,393,-1
 198 -322 l 1,394,-1
 206 -311 l 1,395,-1
 210 -304 l 1,396,-1
 211 -302 l 1,397,398
 215 -297 215 -297 216 -294 c 1,399,-1
 219 -291 l 1,400,-1
 221 -287 l 1,401,-1
 224 -284 l 1,402,-1
 225 -281 l 1,403,-1
 227 -278 l 1,404,-1
 233 -270 l 1,405,-1
 235 -267 l 1,406,-1
 236 -264 l 1,407,-1
 238 -262 l 1,408,-1
 242 -257 l 1,409,410
 247 -246 247 -246 254 -239 c 1,411,412
 257 -232 257 -232 261 -229 c 1,413,414
 266 -218 266 -218 273 -212 c 1,415,-1
 274 -209 l 1,416,-1
 277 -206 l 1,417,418
 279 -202 279 -202 281 -200 c 1,419,-1
 282 -197 l 1,420,-1
 284 -195 l 1,421,-1
 285 -193 l 1,422,-1
 287 -191 l 1,423,-1
 297 -178 l 1,424,-1
 299 -174 l 1,425,-1
 302 -170 l 1,426,-1
 308 -163 l 1,427,428
 316 -151 316 -151 323 -144 c 1,429,-1
 325 -140 l 1,430,-1
 327 -138 l 1,431,-1
 329 -135 l 1,432,-1
 330 -133 l 1,433,-1
 332 -132 l 1,434,-1
 342 -118 l 1,435,-1
 347 -114 l 1,436,-1
 350 -110 l 1,437,438
 358 -97 358 -97 367 -90 c 1,439,-1
 369 -86 l 1,440,-1
 374 -82 l 1,441,-1
 375 -79 l 1,442,-1
 377 -78 l 1,443,-1
 384 -69 l 1,444,-1
 388 -65 l 1,445,-1
 393 -61 l 1,446,-1
 396 -57 l 1,447,-1
 400 -52 l 1,448,-1
 403 -50 l 1,449,-1
 407 -46 l 2,450,451
 408 -44 408 -44 409 -44 c 0,452,453
 412 -39 412 -39 415 -37 c 2,454,-1
 417 -35 l 1,455,-1
 419 -33 l 1,456,-1
 421 -31 l 1,457,-1
 423 -29 l 1,458,-1
 425 -28 l 1,459,460
 426 -26 426 -26 427 -26 c 2,461,-1
 438 -14 l 1,462,-1
 449 -5 l 1,463,-1
 459 4 l 1,464,-1
 461 5 l 1,465,-1
 468 12 l 1,466,-1
 471 14 l 1,467,468
 480 22 480 22 487 25 c 1,469,-1
 489 28 l 1,470,-1
 492 29 l 1,471,472
 493 31 493 31 494 31 c 2,473,-1
 502 37 l 1,474,-1
 504 38 l 1,475,-1
 507 39 l 1,476,-1
 508 41 l 1,477,-1
 510 42 l 1,478,-1
 513 43 l 1,479,480
 519 48 519 48 524 51 c 2,481,-1
 531 54 l 1,482,-1
 537 58 l 1,483,484
 545 62 545 62 550 63 c 1,485,-1
 552 65 l 1,486,-1
 566 70 l 2,487,488
 567 71 567 71 568 71 c 2,489,-1
 584 77 l 1,490,-1
 588 77 l 1,491,492
 600 82 600 82 610 82 c 1,493,-1
 612 83 l 1,494,-1
 621 84 l 1,495,496
 724 86 724 86 790 -2 c 1,497,498
 798 -5 798 -5 806 -3 c 1,499,-1
 817 10 l 1,500,501
 819 15 819 15 821 18 c 1,502,-1
 821 21 l 1,503,-1
 823 24 l 1,504,-1
 823 27 l 1,505,-1
 824 30 l 1,506,-1
 826 33 l 1,507,-1
 826 37 l 1,508,-1
 827 40 l 1,509,-1
 828 42 l 1,510,-1
 829 44 l 1,511,512
 829 52 829 52 832 59 c 1,513,-1
 832 63 l 1,514,-1
 833 66 l 1,515,-1
 834 73 l 1,516,-1
 835 84 l 1,517,-1
 835 88 l 1,518,-1
 836 92 l 1,519,-1
 836 96 l 1,520,-1
 836 100 l 1,521,522
 838 106 838 106 837 110 c 1,523,-1
 837 115 l 1,524,-1
 837 126 l 1,525,-1
 837 130 l 1,526,-1
 837 133 l 1,527,-1
 837 136 l 1,528,-1
 837 139 l 1,529,-1
 837 143 l 1,530,-1
 837 146 l 1,531,-1
 837 153 l 1,532,-1
 836 165 l 1,533,-1
 835 175 l 1,534,-1
 834 176 l 1,535,-1
 830 179 l 1,536,-1
 828 182 l 1,537,-1
 823 186 l 1,538,-1
 817 193 l 1,539,-1
 813 195 l 1,540,-1
 811 197 l 1,541,-1
 809 200 l 1,542,543
 799 205 799 205 793 212 c 1,544,545
 729 251 729 251 663 245 c 1,546,-1
 659 244 l 1,0,-1
639 1071 m 1,547,548
 629 1058 629 1058 531 962 c 1,549,550
 585 884 585 884 648 845 c 1,551,552
 759 958 759 958 764 961 c 1,553,-1
 762 964 l 1,554,555
 703 1012 703 1012 678.5 1040 c 128,-1,556
 654 1068 654 1068 639 1071 c 1,547,548
EndSplineSet
Substitution2: "'fina' Terminal Forms in Arabic lookup 3 subtable" zainfinal
Substitution2: "'isol' Isolated Forms in Arabic lookup 0 subtable" zainisolated
EndChar

StartChar: seen
Encoding: 175 1587 25
Width: 1684
Flags: W
AnchorPoint: "abovesingle" 1018 870 basechar 0
AnchorPoint: "belowsingle" 919.512 -628.485 basechar 0
LayerCount: 2
Fore
SplineSet
1493 384 m 1,0,-1
 1485 372 l 2,1,2
 1481 365 1481 365 1477 364 c 1,3,-1
 1473 352 l 1,4,-1
 1465 340 l 1,5,-1
 1421 256 l 1,6,-1
 1433 228 l 1,7,8
 1449 183 1449 183 1453 152 c 1,9,10
 1295 138 1295 138 1233 276 c 1,11,12
 1181 101 1181 101 1029 100 c 1,13,14
 894 148 894 148 869 296 c 1,15,-1
 861 280 l 1,16,-1
 853 264 l 1,17,-1
 845 256 l 1,18,-1
 841 244 l 1,19,-1
 829 216 l 1,20,-1
 785 116 l 1,21,22
 796 100 796 100 797 84 c 1,23,-1
 805 76 l 1,24,-1
 809 68 l 1,25,-1
 825 20 l 1,26,27
 836 5 836 5 837 -12 c 1,28,29
 842 -16 842 -16 841 -20 c 1,30,31
 868 -89 868 -89 873 -140 c 1,32,33
 883 -178 883 -178 885 -204 c 1,34,35
 742 -318 742 -318 581 -344 c 1,36,37
 348 -375 348 -375 205 -228 c 1,38,39
 52 -35 52 -35 197 208 c 1,40,41
 202 231 202 231 185 236 c 1,42,43
 -100 -131 -100 -131 153 -412 c 1,44,45
 168 -419 168 -419 177 -428 c 1,46,-1
 185 -432 l 1,47,48
 227 -459 227 -459 257 -468 c 1,49,50
 542 -572 542 -572 761 -412 c 1,51,52
 949 -277 949 -277 961 -68 c 1,53,54
 1126 -68 1126 -68 1185 84 c 1,55,56
 1347 -88 1347 -88 1497 48 c 1,57,58
 1504 66 1504 66 1517 76 c 1,59,60
 1525 103 1525 103 1537 120 c 1,61,-1
 1541 188 l 1,62,-1
 1541 200 l 1,63,-1
 1541 248 l 1,64,-1
 1537 264 l 1,65,-1
 1537 280 l 1,66,-1
 1533 296 l 1,67,-1
 1529 304 l 1,68,-1
 1529 316 l 1,69,-1
 1521 348 l 1,70,71
 1507 373 1507 373 1505 396 c 1,72,-1
 1497 396 l 1,73,-1
 1505 396 l 1,74,-1
 1497 396 l 1,75,-1
 1493 384 l 1,0,-1
EndSplineSet
Substitution2: "'fina' Terminal Forms in Arabic lookup 3 subtable" seenfinal
Substitution2: "'medi' Medial Forms in Arabic lookup 2 subtable" seenmedial
Substitution2: "'init' Initial Forms in Arabic lookup 1 subtable" seeninitial
Substitution2: "'isol' Isolated Forms in Arabic lookup 0 subtable" seenisolated
EndChar

StartChar: sheen
Encoding: 176 1588 26
Width: 1699
Flags: W
AnchorPoint: "abovesingle" 1047.51 1427.83 basechar 0
AnchorPoint: "belowsingle" 947.512 -636.167 basechar 0
LayerCount: 2
Fore
SplineSet
1513 384 m 1,0,-1
 1505 372 l 2,1,2
 1501 365 1501 365 1497 364 c 1,3,-1
 1493 352 l 1,4,-1
 1485 340 l 1,5,-1
 1441 256 l 1,6,-1
 1453 228 l 1,7,8
 1469 183 1469 183 1473 152 c 1,9,10
 1315 138 1315 138 1253 276 c 1,11,12
 1201 101 1201 101 1049 100 c 1,13,14
 914 148 914 148 889 296 c 1,15,-1
 881 280 l 1,16,-1
 873 264 l 1,17,-1
 865 256 l 1,18,-1
 861 244 l 1,19,-1
 849 216 l 1,20,-1
 805 116 l 1,21,22
 816 100 816 100 817 84 c 1,23,-1
 825 76 l 1,24,-1
 829 68 l 1,25,-1
 845 20 l 1,26,27
 856 5 856 5 857 -12 c 1,28,29
 862 -16 862 -16 861 -20 c 1,30,31
 888 -89 888 -89 893 -140 c 1,32,33
 903 -178 903 -178 905 -204 c 1,34,35
 762 -318 762 -318 601 -344 c 1,36,37
 368 -375 368 -375 225 -228 c 1,38,39
 72 -35 72 -35 217 208 c 1,40,41
 222 231 222 231 205 236 c 1,42,43
 -80 -131 -80 -131 173 -412 c 1,44,45
 188 -419 188 -419 197 -428 c 1,46,-1
 205 -432 l 1,47,48
 247 -459 247 -459 277 -468 c 1,49,50
 562 -572 562 -572 781 -412 c 1,51,52
 969 -277 969 -277 981 -68 c 1,53,54
 1146 -68 1146 -68 1205 84 c 1,55,56
 1367 -88 1367 -88 1517 48 c 1,57,58
 1524 66 1524 66 1537 76 c 1,59,60
 1545 103 1545 103 1557 120 c 1,61,-1
 1561 188 l 1,62,-1
 1561 200 l 1,63,-1
 1561 248 l 1,64,-1
 1557 264 l 1,65,-1
 1557 280 l 1,66,-1
 1553 296 l 1,67,-1
 1549 304 l 1,68,-1
 1549 316 l 1,69,-1
 1541 348 l 1,70,71
 1527 373 1527 373 1525 396 c 1,72,-1
 1517 396 l 1,73,-1
 1525 396 l 1,74,-1
 1517 396 l 1,75,-1
 1513 384 l 1,0,-1
1305 925 m 1,76,77
 1295 912 1295 912 1197 816 c 1,78,79
 1251 738 1251 738 1314 699 c 1,80,-1
 1428 818 l 1,81,82
 1369 867 1369 867 1344.5 894.5 c 128,-1,83
 1320 922 1320 922 1305 925 c 1,76,77
1072 925 m 1,84,85
 1062 912 1062 912 964 816 c 1,86,87
 1018 738 1018 738 1081 699 c 1,88,-1
 1197 815 l 1,89,-1
 1195 818 l 1,90,91
 1136 866 1136 866 1111.5 894 c 128,-1,92
 1087 922 1087 922 1072 925 c 1,84,85
1196 1163 m 1,93,94
 1186 1150 1186 1150 1088 1054 c 1,95,96
 1142 976 1142 976 1205 937 c 1,97,98
 1316 1050 1316 1050 1321 1053 c 1,99,-1
 1319 1056 l 1,100,101
 1260 1104 1260 1104 1235.5 1132 c 128,-1,102
 1211 1160 1211 1160 1196 1163 c 1,93,94
EndSplineSet
Substitution2: "'fina' Terminal Forms in Arabic lookup 3 subtable" sheenfinal
Substitution2: "'medi' Medial Forms in Arabic lookup 2 subtable" sheenmedial
Substitution2: "'init' Initial Forms in Arabic lookup 1 subtable" sheeninitial
Substitution2: "'isol' Isolated Forms in Arabic lookup 0 subtable" sheenisolated
EndChar

StartChar: sad
Encoding: 177 1589 27
Width: 1925
Flags: W
AnchorPoint: "abovesingle" 1078.54 1371.33 basechar 0
AnchorPoint: "belowsingle" 967.544 -731.671 basechar 0
LayerCount: 2
Fore
SplineSet
1552 556 m 1,1,-1
 1516 548 l 1,2,3
 1504 539 1504 539 1492 536 c 1,4,5
 1467 516 1467 516 1444 508 c 1,6,7
 1405 467 1405 467 1372 448 c 1,8,9
 1368 441 1368 441 1364 440 c 1,10,11
 1335 403 1335 403 1308 384 c 1,12,-1
 1300 372 l 1,13,-1
 1292 360 l 1,14,-1
 1280 348 l 1,15,-1
 1268 336 l 1,16,-1
 1256 320 l 1,17,-1
 1224 284 l 1,18,19
 1212 264 1212 264 1200 252 c 2,20,-1
 1188 240 l 1,21,-1
 1180 224 l 1,22,-1
 1152 188 l 1,23,-1
 1148 180 l 1,24,-1
 1140 176 l 1,25,26
 1126 148 1126 148 1112 132 c 1,27,28
 926 154 926 154 868 352 c 1,29,-1
 864 336 l 1,30,-1
 856 324 l 1,31,-1
 848 316 l 1,32,-1
 844 304 l 1,33,-1
 832 276 l 1,34,-1
 788 176 l 1,35,-1
 792 160 l 1,36,37
 823 109 823 109 832 68 c 1,38,39
 836 62 836 62 836 56 c 1,40,41
 841 52 841 52 840 48 c 1,42,-1
 864 -16 l 1,43,-1
 868 -40 l 1,44,-1
 872 -64 l 1,45,-1
 880 -96 l 1,46,-1
 888 -144 l 1,47,48
 601 -377 601 -377 288 -240 c 1,49,50
 15 -50 15 -50 196 264 c 1,51,52
 200 285 200 285 188 296 c 1,53,54
 -77 -19 -77 -19 116 -320 c 1,55,-1
 144 -340 l 1,56,57
 148 -346 148 -346 152 -348 c 1,58,-1
 156 -356 l 1,59,60
 186 -374 186 -374 204 -392 c 1,61,62
 561 -543 561 -543 824 -312 c 1,63,64
 961 -174 961 -174 960 0 c 1,65,66
 1257 -53 1257 -53 1500 48 c 1,67,68
 1779 135 1779 135 1768 400 c 1,69,-1
 1760 432 l 1,70,71
 1756 438 1756 438 1756 444 c 1,72,-1
 1740 468 l 1,73,-1
 1728 492 l 1,74,-1
 1716 504 l 1,75,-1
 1704 516 l 1,76,77
 1683 527 1683 527 1668 540 c 1,78,79
 1609 563 1609 563 1560 560 c 1,80,0
 1556 555 1556 555 1552 556 c 1,1,-1
1668 228 m 1,82,-1
 1612 208 l 1,83,84
 1597 197 1597 197 1580 196 c 1,85,86
 1576 191 1576 191 1572 192 c 1,87,-1
 1560 188 l 1,88,-1
 1552 184 l 1,89,-1
 1540 180 l 2,90,91
 1485 161 1485 161 1448 156 c 1,92,-1
 1436 152 l 1,93,-1
 1424 148 l 1,94,-1
 1412 148 l 1,95,-1
 1396 144 l 1,96,-1
 1384 144 l 1,97,98
 1378 140 1378 140 1372 140 c 1,99,-1
 1360 136 l 1,100,-1
 1348 136 l 1,101,-1
 1332 136 l 1,102,103
 1277 127 1277 127 1240 128 c 1,104,-1
 1192 132 l 1,105,106
 1199 147 1199 147 1208 156 c 1,107,108
 1224 192 1224 192 1248 212 c 1,109,-1
 1252 220 l 1,110,111
 1292 279 1292 279 1332 308 c 1,112,113
 1364 345 1364 345 1392 364 c 1,114,-1
 1420 376 l 1,115,116
 1456 402 1456 402 1492 408 c 1,117,81
 1652 405 1652 405 1668 228 c 1,82,-1
EndSplineSet
Substitution2: "'fina' Terminal Forms in Arabic lookup 3 subtable" sadfinal
Substitution2: "'medi' Medial Forms in Arabic lookup 2 subtable" sadmedial
Substitution2: "'init' Initial Forms in Arabic lookup 1 subtable" sadinitial
Substitution2: "'isol' Isolated Forms in Arabic lookup 0 subtable" sadisolated
EndChar

StartChar: dad
Encoding: 178 1590 28
Width: 1915
Flags: W
AnchorPoint: "belowsingle" 967.544 -731.671 basechar 0
AnchorPoint: "abovesingle" 1078.54 1371.33 basechar 0
LayerCount: 2
Fore
SplineSet
1552 556 m 1,1,-1
 1516 548 l 1,2,3
 1504 539 1504 539 1492 536 c 1,4,5
 1467 516 1467 516 1444 508 c 1,6,7
 1405 467 1405 467 1372 448 c 1,8,9
 1368 441 1368 441 1364 440 c 1,10,11
 1335 403 1335 403 1308 384 c 1,12,-1
 1300 372 l 1,13,-1
 1292 360 l 1,14,-1
 1280 348 l 1,15,-1
 1268 336 l 1,16,-1
 1256 320 l 1,17,-1
 1224 284 l 1,18,19
 1212 264 1212 264 1200 252 c 2,20,-1
 1188 240 l 1,21,-1
 1180 224 l 1,22,-1
 1152 188 l 1,23,-1
 1148 180 l 1,24,-1
 1140 176 l 1,25,26
 1126 148 1126 148 1112 132 c 1,27,28
 926 154 926 154 868 352 c 1,29,-1
 864 336 l 1,30,-1
 856 324 l 1,31,-1
 848 316 l 1,32,-1
 844 304 l 1,33,-1
 832 276 l 1,34,-1
 788 176 l 1,35,-1
 792 160 l 1,36,37
 823 109 823 109 832 68 c 1,38,39
 836 62 836 62 836 56 c 1,40,41
 841 52 841 52 840 48 c 1,42,-1
 864 -16 l 1,43,-1
 868 -40 l 1,44,-1
 872 -64 l 1,45,-1
 880 -96 l 1,46,-1
 888 -144 l 1,47,48
 601 -377 601 -377 288 -240 c 1,49,50
 15 -50 15 -50 196 264 c 1,51,52
 200 285 200 285 188 296 c 1,53,54
 -77 -19 -77 -19 116 -320 c 1,55,-1
 144 -340 l 1,56,57
 148 -346 148 -346 152 -348 c 1,58,-1
 156 -356 l 1,59,60
 186 -374 186 -374 204 -392 c 1,61,62
 561 -543 561 -543 824 -312 c 1,63,64
 961 -174 961 -174 960 0 c 1,65,66
 1257 -53 1257 -53 1500 48 c 1,67,68
 1779 135 1779 135 1768 400 c 1,69,-1
 1760 432 l 1,70,71
 1756 438 1756 438 1756 444 c 1,72,-1
 1740 468 l 1,73,-1
 1728 492 l 1,74,-1
 1716 504 l 1,75,-1
 1704 516 l 1,76,77
 1683 527 1683 527 1668 540 c 1,78,79
 1609 563 1609 563 1560 560 c 1,80,0
 1556 555 1556 555 1552 556 c 1,1,-1
1668 228 m 1,82,-1
 1612 208 l 1,83,84
 1597 197 1597 197 1580 196 c 1,85,86
 1576 191 1576 191 1572 192 c 1,87,-1
 1560 188 l 1,88,-1
 1552 184 l 1,89,-1
 1540 180 l 2,90,91
 1485 161 1485 161 1448 156 c 1,92,-1
 1436 152 l 1,93,-1
 1424 148 l 1,94,-1
 1412 148 l 1,95,-1
 1396 144 l 1,96,-1
 1384 144 l 1,97,98
 1378 140 1378 140 1372 140 c 1,99,-1
 1360 136 l 1,100,-1
 1348 136 l 1,101,-1
 1332 136 l 1,102,103
 1277 127 1277 127 1240 128 c 1,104,-1
 1192 132 l 1,105,106
 1199 147 1199 147 1208 156 c 1,107,108
 1224 192 1224 192 1248 212 c 1,109,-1
 1252 220 l 1,110,111
 1292 279 1292 279 1332 308 c 1,112,113
 1364 345 1364 345 1392 364 c 1,114,-1
 1420 376 l 1,115,116
 1456 402 1456 402 1492 408 c 1,117,81
 1652 405 1652 405 1668 228 c 1,82,-1
1442 1328 m 1,118,119
 1432 1315 1432 1315 1334 1219 c 1,120,121
 1388 1141 1388 1141 1451 1102 c 1,122,123
 1562 1215 1562 1215 1567 1218 c 1,124,-1
 1565 1221 l 1,125,126
 1506 1269 1506 1269 1481.5 1297 c 128,-1,127
 1457 1325 1457 1325 1442 1328 c 1,118,119
EndSplineSet
Substitution2: "'fina' Terminal Forms in Arabic lookup 3 subtable" dadfinal
Substitution2: "'medi' Medial Forms in Arabic lookup 2 subtable" dadmedial
Substitution2: "'init' Initial Forms in Arabic lookup 1 subtable" dadinitial
Substitution2: "'isol' Isolated Forms in Arabic lookup 0 subtable" dadisolated
EndChar

StartChar: tah
Encoding: 179 1591 29
Width: 1359
Flags: W
AnchorPoint: "belowsingle" 967.544 -731.671 basechar 0
AnchorPoint: "abovesingle" 538.544 1533.33 basechar 0
LayerCount: 2
Fore
SplineSet
471 1444 m 0,1,2
 470 1442 470 1442 469 1442 c 0,3,4
 465 1433 465 1433 459 1428 c 1,5,-1
 456 1423 l 1,6,-1
 452 1418 l 1,7,-1
 448 1413 l 1,8,9
 443 1404 443 1404 439 1399 c 2,10,-1
 436 1395 l 1,11,-1
 434 1394 l 1,12,-1
 433 1391 l 1,13,14
 427 1383 427 1383 424 1378 c 1,15,-1
 420 1374 l 1,16,17
 417 1369 417 1369 414 1366 c 1,18,-1
 412 1362 l 1,19,-1
 409 1359 l 1,20,-1
 407 1355 l 1,21,-1
 405 1353 l 1,22,-1
 403 1350 l 1,23,-1
 399 1344 l 2,24,25
 393 1336 393 1336 389 1332 c 1,26,27
 385 1325 385 1325 381 1321 c 1,28,-1
 382 1312 l 1,29,-1
 385 1290 l 2,30,31
 386 1288 386 1288 386 1283 c 1,32,-1
 388 1275 l 1,33,-1
 388 1271 l 1,34,-1
 390 1264 l 1,35,36
 391 1253 391 1253 393 1246 c 1,37,-1
 394 1238 l 1,38,-1
 395 1235 l 1,39,-1
 395 1229 l 1,40,41
 397 1223 397 1223 397 1219 c 1,42,-1
 398 1216 l 1,43,-1
 398 1211 l 1,44,45
 402 1193 402 1193 403 1181 c 1,46,-1
 405 1173 l 1,47,-1
 406 1163 l 1,48,49
 408 1155 408 1155 408 1150 c 1,50,51
 409 1148 409 1148 409 1147 c 2,52,-1
 409 1144 l 1,53,-1
 411 1136 l 1,54,-1
 411 1132 l 1,55,56
 414 1123 414 1123 414 1115 c 1,57,58
 418 1100 418 1100 418 1090 c 1,59,-1
 420 1082 l 1,60,-1
 423 1066 l 2,61,62
 423 1061 423 1061 424 1054 c 0,63,64
 425 1051 425 1051 425 1049 c 2,65,-1
 426 1046 l 1,66,-1
 427 1039 l 1,67,-1
 427 1036 l 1,68,-1
 431 1017 l 1,69,70
 431 1012 431 1012 432 1009 c 2,71,-1
 433 1001 l 1,72,-1
 434 993 l 1,73,74
 437 984 437 984 437 976 c 1,75,-1
 438 971 l 1,76,-1
 439 968 l 1,77,-1
 440 961 l 1,78,-1
 440 958 l 1,79,-1
 444 939 l 1,80,81
 444 934 444 934 445 927 c 1,82,83
 448 918 448 918 448 910 c 1,84,-1
 449 908 l 1,85,-1
 449 905 l 1,86,-1
 452 889 l 1,87,-1
 454 874 l 1,88,-1
 455 871 l 1,89,-1
 456 864 l 1,90,-1
 456 861 l 1,91,-1
 460 842 l 1,92,-1
 461 831 l 1,93,94
 464 820 464 820 464 812 c 1,95,96
 466 806 466 806 466 802 c 2,97,-1
 473 764 l 1,98,-1
 475 748 l 1,99,-1
 476 746 l 1,100,-1
 476 740 l 1,101,102
 479 730 479 730 479 723 c 1,103,-1
 480 721 l 1,104,-1
 480 715 l 1,105,106
 483 706 483 706 483 698 c 1,107,-1
 484 694 l 1,108,-1
 487 678 l 1,109,-1
 488 670 l 1,110,-1
 489 666 l 1,111,-1
 489 661 l 1,112,113
 490 658 490 658 490 655 c 0,114,115
 491 652 491 652 491 650 c 2,116,-1
 492 645 l 1,117,-1
 493 638 l 1,118,-1
 496 624 l 1,119,-1
 497 616 l 1,120,-1
 498 613 l 1,121,-1
 498 609 l 1,122,-1
 499 603 l 1,123,-1
 500 597 l 2,124,125
 503 585 503 585 503 577 c 1,126,127
 504 576 504 576 504 575 c 2,128,-1
 506 558 l 1,129,-1
 508 552 l 1,130,-1
 508 546 l 1,131,132
 509 543 509 543 509 540 c 0,133,134
 510 537 510 537 510 535 c 2,135,-1
 511 530 l 1,136,-1
 512 524 l 2,137,138
 515 512 515 512 515 504 c 1,139,140
 518 495 518 495 518 488 c 1,141,-1
 519 483 l 1,142,-1
 520 480 l 1,143,-1
 520 474 l 1,144,145
 523 465 523 465 523 457 c 1,146,147
 525 451 525 451 525 446 c 1,148,-1
 526 443 l 1,149,-1
 528 402 l 1,150,-1
 529 399 l 1,151,-1
 529 385 l 1,152,153
 528 379 528 379 528 374 c 2,154,-1
 528 360 l 1,155,-1
 527 356 l 1,156,-1
 527 348 l 1,157,-1
 526 343 l 1,158,-1
 525 334 l 1,159,-1
 524 327 l 1,160,-1
 524 324 l 1,161,-1
 523 318 l 1,162,-1
 522 313 l 1,163,-1
 521 310 l 1,164,-1
 520 307 l 1,165,-1
 519 301 l 1,166,-1
 519 298 l 1,167,-1
 517 290 l 1,168,-1
 515 283 l 1,169,170
 487 199 487 199 424 150 c 1,171,-1
 420 149 l 1,172,-1
 416 148 l 1,173,-1
 412 147 l 1,174,-1
 407 146 l 2,175,176
 405 145 405 145 404 145 c 2,177,-1
 402 144 l 1,178,-1
 395 143 l 1,179,180
 388 140 388 140 382 140 c 1,181,-1
 378 139 l 1,182,-1
 375 138 l 1,183,-1
 368 137 l 1,184,-1
 365 136 l 1,185,-1
 346 132 l 1,186,-1
 340 131 l 1,187,-1
 334 130 l 1,188,-1
 331 130 l 1,189,-1
 327 129 l 2,190,191
 317 126 317 126 310 126 c 1,192,-1
 307 125 l 1,193,194
 296 124 296 124 289 122 c 2,195,-1
 282 121 l 1,196,-1
 251 117 l 1,197,-1
 244 116 l 1,198,-1
 238 115 l 1,199,-1
 232 115 l 1,200,201
 229 114 229 114 227 114 c 2,202,-1
 224 113 l 1,203,204
 217 113 217 113 212 112 c 1,205,-1
 207 112 l 1,206,-1
 204 111 l 1,207,208
 193 111 193 111 186 109 c 1,209,-1
 179 109 l 1,210,-1
 172 108 l 1,211,-1
 167 108 l 1,212,-1
 144 105 l 1,213,-1
 137 105 l 1,214,-1
 131 104 l 1,215,-1
 126 104 l 1,216,-1
 120 103 l 1,217,218
 110 103 110 103 103 102 c 1,219,-1
 96 102 l 1,220,-1
 91 101 l 1,221,-1
 86 101 l 1,222,223
 78 100 78 100 72 100 c 2,224,-1
 67 100 l 1,225,-1
 63 99 l 1,226,-1
 60 99 l 1,227,-1
 55 99 l 1,228,-1
 52 98 l 1,229,-1
 49 98 l 1,230,-1
 41 98 l 1,231,-1
 25 96 l 1,232,-1
 28 95 l 2,233,234
 33 93 33 93 36 92 c 2,235,-1
 43 89 l 1,236,-1
 61 82 l 1,237,-1
 63 81 l 2,238,239
 68 78 68 78 72 77 c 2,240,-1
 79 74 l 2,241,242
 85 71 85 71 89 70 c 1,243,-1
 100 64 l 1,244,-1
 114 59 l 1,245,-1
 117 57 l 1,246,-1
 121 55 l 1,247,-1
 134 50 l 1,248,-1
 137 49 l 1,249,-1
 153 42 l 1,250,-1
 157 40 l 1,251,-1
 161 39 l 1,252,-1
 165 37 l 1,253,-1
 167 36 l 1,254,-1
 179 32 l 1,255,-1
 183 31 l 1,256,-1
 187 29 l 1,257,-1
 190 28 l 1,258,-1
 194 27 l 1,259,-1
 197 26 l 1,260,-1
 207 23 l 1,261,-1
 211 22 l 1,262,-1
 213 21 l 1,263,-1
 229 17 l 1,264,-1
 232 17 l 1,265,-1
 248 15 l 1,266,-1
 256 14 l 1,267,-1
 270 13 l 1,268,-1
 276 12 l 1,269,-1
 282 12 l 1,270,-1
 285 11 l 1,271,-1
 302 10 l 1,272,-1
 306 10 l 1,273,-1
 309 9 l 1,274,-1
 313 9 l 1,275,-1
 317 9 l 2,276,277
 322 9 322 9 325 8 c 1,278,-1
 333 8 l 2,279,280
 342 8 342 8 349 7 c 1,281,-1
 352 7 l 1,282,-1
 355 7 l 1,283,-1
 368 7 l 1,284,-1
 374 7 l 1,285,-1
 380 7 l 1,286,-1
 385 7 l 1,287,-1
 391 7 l 1,288,-1
 394 7 l 1,289,-1
 414 7 l 1,290,-1
 427 7 l 1,291,-1
 433 7 l 1,292,-1
 436 7 l 1,293,-1
 449 7 l 1,294,-1
 463 7 l 1,295,-1
 466 7 l 1,296,-1
 470 7 l 1,297,-1
 473 8 l 1,298,-1
 493 8 l 1,299,-1
 499 9 l 1,300,-1
 503 9 l 1,301,-1
 509 9 l 1,302,-1
 516 10 l 1,303,-1
 527 10 l 1,304,305
 533 12 533 12 538 11 c 1,306,-1
 542 12 l 1,307,-1
 545 12 l 1,308,-1
 548 12 l 1,309,-1
 551 12 l 1,310,-1
 553 13 l 1,311,-1
 557 13 l 1,312,-1
 565 13 l 1,313,314
 566 14 566 14 567 14 c 2,315,-1
 580 15 l 1,316,-1
 584 15 l 1,317,-1
 588 16 l 1,318,-1
 592 16 l 1,319,-1
 596 17 l 1,320,-1
 601 17 l 1,321,-1
 605 18 l 1,322,-1
 622 19 l 1,323,324
 632 21 632 21 639 22 c 1,325,-1
 643 22 l 1,326,-1
 651 23 l 1,327,-1
 653 24 l 1,328,-1
 656 24 l 1,329,-1
 672 26 l 2,330,331
 680 28 680 28 685 28 c 1,332,333
 691 30 691 30 696 30 c 1,334,-1
 710 33 l 1,335,-1
 715 33 l 1,336,-1
 719 34 l 1,337,-1
 725 35 l 1,338,-1
 729 36 l 1,339,-1
 732 36 l 1,340,341
 738 38 738 38 743 38 c 1,342,-1
 751 40 l 1,343,-1
 753 41 l 1,344,-1
 756 41 l 1,345,346
 765 44 765 44 772 44 c 1,347,-1
 778 46 l 1,348,349
 788 48 788 48 795 50 c 0,350,351
 801 51 801 51 805 52 c 2,352,-1
 814 54 l 1,353,-1
 816 55 l 1,354,-1
 832 58 l 1,355,356
 836 60 836 60 839 60 c 2,357,-1
 855 65 l 1,358,-1
 859 66 l 1,359,-1
 865 67 l 1,360,361
 873 70 873 70 880 71 c 1,362,-1
 884 73 l 1,363,-1
 890 74 l 1,364,-1
 894 76 l 1,365,-1
 900 77 l 1,366,-1
 903 79 l 1,367,-1
 906 79 l 1,368,-1
 909 81 l 1,369,-1
 913 82 l 1,370,-1
 918 83 l 2,371,372
 919 84 919 84 920 84 c 2,373,-1
 924 85 l 1,374,-1
 931 87 l 1,375,376
 940 92 940 92 948 93 c 1,377,-1
 953 96 l 1,378,-1
 956 96 l 1,379,380
 963 100 963 100 969 101 c 0,381,382
 971 102 971 102 972 102 c 0,383,384
 981 107 981 107 988 109 c 1,385,-1
 992 111 l 1,386,-1
 1002 114 l 1,387,388
 1010 119 1010 119 1016 121 c 2,389,-1
 1018 122 l 1,390,-1
 1022 123 l 2,391,392
 1023 124 1023 124 1025 124 c 1,393,-1
 1027 126 l 1,394,-1
 1033 128 l 1,395,396
 1039 132 1039 132 1044 133 c 1,397,398
 1051 138 1051 138 1058 140 c 1,399,-1
 1062 142 l 1,400,-1
 1063 144 l 1,401,-1
 1082 153 l 1,402,403
 1093 161 1093 161 1102 165 c 1,404,-1
 1106 168 l 2,405,406
 1113 173 1113 173 1118 175 c 1,407,-1
 1122 178 l 1,408,-1
 1125 180 l 1,409,-1
 1129 183 l 1,410,-1
 1132 185 l 1,411,-1
 1135 188 l 1,412,-1
 1142 192 l 1,413,-1
 1143 194 l 1,414,-1
 1149 197 l 1,415,416
 1155 204 1155 204 1162 208 c 1,417,418
 1251 316 1251 316 1245 440 c 0,419,420
 1244 441 1244 441 1244 442 c 0,421,422
 1235 505 1235 505 1201 550 c 1,423,424
 1126 634 1126 634 1024 640 c 1,425,-1
 1021 640 l 1,426,-1
 1014 641 l 1,427,-1
 1008 641 l 1,428,-1
 998 641 l 1,429,-1
 995 641 l 1,430,-1
 991 641 l 1,431,-1
 986 641 l 1,432,-1
 983 641 l 1,433,-1
 979 640 l 1,434,-1
 976 640 l 1,435,-1
 971 640 l 1,436,437
 961 638 961 638 954 638 c 1,438,439
 946 635 946 635 940 635 c 1,440,-1
 937 633 l 1,441,-1
 933 633 l 1,442,-1
 930 631 l 1,443,-1
 926 631 l 1,444,-1
 923 629 l 1,445,-1
 920 629 l 1,446,447
 916 626 916 626 912 626 c 1,448,-1
 900 621 l 2,449,450
 887 615 887 615 878 612 c 1,451,-1
 875 609 l 1,452,-1
 869 607 l 1,453,454
 865 604 865 604 861 603 c 1,455,456
 860 601 860 601 859 601 c 2,457,-1
 856 600 l 1,458,-1
 854 598 l 1,459,-1
 847 594 l 1,460,-1
 844 593 l 1,461,462
 839 588 839 588 833 586 c 1,463,-1
 827 582 l 1,464,-1
 826 580 l 1,465,-1
 823 578 l 1,466,-1
 805 566 l 1,467,-1
 802 562 l 1,468,-1
 798 560 l 2,469,470
 797 559 797 559 796 559 c 0,471,472
 788 550 788 550 781 546 c 1,473,-1
 778 543 l 1,474,-1
 775 541 l 1,475,476
 774 539 774 539 773 539 c 2,477,-1
 771 537 l 1,478,-1
 765 532 l 1,479,-1
 764 530 l 1,480,-1
 761 529 l 1,481,482
 755 520 755 520 747 516 c 1,483,-1
 743 512 l 2,484,485
 742 510 742 510 741 510 c 0,486,487
 738 505 738 505 735 503 c 2,488,-1
 726 495 l 1,489,-1
 723 492 l 1,490,-1
 720 488 l 1,491,-1
 711 480 l 1,492,493
 708 475 708 475 705 472 c 1,494,-1
 703 471 l 1,495,496
 702 469 702 469 701 469 c 2,497,-1
 699 466 l 1,498,-1
 697 464 l 1,499,-1
 695 462 l 2,500,501
 691 458 691 458 689 455 c 1,502,503
 683 450 683 450 680 445 c 1,504,-1
 675 440 l 1,505,-1
 673 438 l 1,506,-1
 670 435 l 2,507,508
 669 433 669 433 668 433 c 0,509,510
 665 428 665 428 662 426 c 1,511,-1
 660 423 l 1,512,-1
 658 421 l 1,513,-1
 656 420 l 1,514,515
 655 418 655 418 654 418 c 0,516,517
 648 408 648 408 640 402 c 1,518,-1
 636 396 l 1,519,-1
 632 392 l 1,520,521
 626 384 626 384 621 380 c 1,522,-1
 619 376 l 1,523,-1
 615 373 l 1,524,525
 612 368 612 368 609 366 c 1,526,-1
 601 355 l 1,527,-1
 598 352 l 1,528,-1
 596 351 l 1,529,530
 592 343 592 343 586 339 c 1,531,532
 583 334 583 334 580 332 c 1,533,534
 577 327 577 327 574 325 c 1,535,-1
 573 322 l 1,536,-1
 571 321 l 1,537,538
 570 319 570 319 569 319 c 0,539,540
 566 314 566 314 563 312 c 1,541,-1
 555 301 l 1,542,543
 554 303 554 303 555 304 c 2,544,-1
 556 306 l 1,545,-1
 557 309 l 1,546,-1
 558 311 l 1,547,-1
 560 313 l 1,548,549
 563 323 563 323 567 330 c 2,550,-1
 569 334 l 1,551,-1
 571 340 l 1,552,-1
 573 343 l 1,553,-1
 574 346 l 1,554,-1
 577 354 l 1,555,-1
 582 366 l 1,556,-1
 590 388 l 1,557,-1
 593 398 l 1,558,-1
 594 401 l 1,559,-1
 598 415 l 1,560,-1
 599 418 l 1,561,-1
 600 421 l 1,562,-1
 601 424 l 1,563,-1
 601 427 l 1,564,-1
 602 430 l 1,565,-1
 608 453 l 1,566,-1
 608 457 l 1,567,-1
 611 474 l 1,568,-1
 612 477 l 1,569,-1
 612 481 l 1,570,571
 613 485 613 485 613 489 c 0,572,573
 614 493 614 493 614 497 c 1,574,575
 616 504 616 504 615 509 c 1,576,-1
 616 509 l 1,577,-1
 615 509 l 1,578,-1
 616 509 l 1,579,-1
 616 513 l 1,580,-1
 616 517 l 2,581,582
 616 525 616 525 617 529 c 1,583,-1
 617 539 l 1,584,-1
 617 552 l 1,585,-1
 617 555 l 1,586,-1
 616 571 l 1,587,-1
 614 596 l 1,588,-1
 612 604 l 1,589,590
 612 612 612 612 610 617 c 1,591,-1
 610 621 l 1,592,-1
 609 625 l 1,593,-1
 609 628 l 1,594,595
 608 630 608 630 608 631 c 2,596,-1
 607 634 l 1,597,-1
 607 638 l 1,598,-1
 603 661 l 1,599,-1
 602 669 l 1,600,-1
 601 673 l 1,601,-1
 601 678 l 1,602,603
 598 688 598 688 598 695 c 2,604,-1
 597 703 l 2,605,606
 596 704 596 704 596 705 c 2,607,-1
 596 708 l 1,608,609
 594 716 594 716 594 721 c 2,610,-1
 593 728 l 1,611,-1
 591 736 l 1,612,-1
 590 740 l 1,613,-1
 590 747 l 1,614,615
 589 750 589 750 589 753 c 0,616,617
 588 756 588 756 588 758 c 2,618,-1
 587 764 l 1,619,-1
 586 768 l 1,620,-1
 586 771 l 1,621,-1
 585 775 l 1,622,-1
 583 789 l 1,623,-1
 582 793 l 1,624,-1
 581 797 l 1,625,-1
 581 801 l 1,626,-1
 580 803 l 1,627,-1
 580 806 l 1,628,-1
 580 809 l 1,629,630
 577 818 577 818 577 826 c 1,631,-1
 575 834 l 1,632,-1
 575 840 l 1,633,-1
 574 844 l 1,634,-1
 573 849 l 1,635,-1
 572 852 l 1,636,-1
 572 856 l 1,637,-1
 571 859 l 1,638,-1
 569 876 l 1,639,640
 567 880 567 880 568 884 c 1,641,-1
 566 891 l 1,642,-1
 566 894 l 1,643,-1
 565 897 l 1,644,-1
 564 909 l 1,645,-1
 562 915 l 1,646,647
 562 920 562 920 561 923 c 2,648,-1
 560 931 l 1,649,-1
 559 939 l 1,650,-1
 557 947 l 1,651,-1
 556 957 l 1,652,653
 554 963 554 963 554 968 c 2,654,-1
 553 973 l 1,655,-1
 553 976 l 1,656,-1
 552 980 l 1,657,-1
 552 983 l 1,658,659
 549 996 549 996 548 1005 c 2,660,-1
 547 1013 l 1,661,-1
 546 1015 l 1,662,-1
 546 1019 l 1,663,-1
 543 1036 l 1,664,-1
 543 1039 l 1,665,-1
 541 1047 l 1,666,-1
 541 1051 l 1,667,-1
 540 1054 l 1,668,-1
 540 1058 l 1,669,-1
 538 1066 l 1,670,-1
 538 1069 l 1,671,672
 536 1073 536 1073 537 1077 c 1,673,674
 535 1083 535 1083 535 1089 c 1,675,676
 532 1102 532 1102 531 1111 c 1,677,-1
 531 1114 l 1,678,679
 530 1116 530 1116 530 1117 c 2,680,-1
 529 1120 l 1,681,-1
 529 1124 l 1,682,-1
 525 1147 l 1,683,-1
 524 1154 l 1,684,-1
 523 1161 l 1,685,-1
 523 1164 l 1,686,687
 520 1173 520 1173 520 1181 c 2,688,-1
 519 1189 l 1,689,-1
 517 1196 l 1,690,-1
 516 1203 l 2,691,692
 515 1214 515 1214 513 1221 c 2,693,-1
 512 1228 l 1,694,-1
 511 1235 l 1,695,-1
 511 1239 l 1,696,697
 510 1240 510 1240 510 1241 c 2,698,-1
 510 1244 l 1,699,700
 507 1256 507 1256 507 1264 c 1,701,-1
 505 1271 l 1,702,-1
 505 1276 l 1,703,704
 504 1278 504 1278 504 1279 c 2,705,-1
 502 1293 l 1,706,-1
 500 1301 l 1,707,-1
 500 1304 l 1,708,-1
 500 1307 l 1,709,710
 497 1314 497 1314 498 1320 c 1,711,712
 496 1326 496 1326 496 1331 c 1,713,-1
 495 1333 l 1,714,-1
 493 1350 l 1,715,-1
 492 1356 l 2,716,717
 490 1364 490 1364 490 1369 c 1,718,719
 488 1375 488 1375 488 1380 c 1,720,-1
 485 1394 l 1,721,-1
 485 1399 l 1,722,723
 483 1407 483 1407 483 1413 c 1,724,725
 482 1414 482 1414 482 1416 c 2,726,-1
 482 1419 l 1,727,728
 481 1420 481 1420 481 1422 c 2,729,-1
 481 1425 l 1,730,731
 477 1440 477 1440 477 1450 c 1,732,-1
 475 1450 l 1,733,-1
 477 1450 l 1,734,-1
 475 1450 l 1,735,0
 473 1446 473 1446 471 1444 c 0,1,2
1132 290 m 1,737,-1
 1119 286 l 2,738,739
 1117 285 1117 285 1116 285 c 0,740,741
 1112 282 1112 282 1108 282 c 1,742,743
 1099 278 1099 278 1092 276 c 2,744,-1
 1088 275 l 1,745,746
 1085 273 1085 273 1082 273 c 1,747,748
 1079 271 1079 271 1077 271 c 2,749,-1
 1072 269 l 1,750,-1
 1067 268 l 1,751,-1
 1060 265 l 1,752,-1
 1055 264 l 1,753,754
 1052 262 1052 262 1049 262 c 1,755,756
 1047 261 1047 261 1046 261 c 0,757,758
 1042 258 1042 258 1038 258 c 1,759,760
 1030 255 1030 255 1026 254 c 2,761,-1
 1009 248 l 1,762,-1
 1006 247 l 1,763,-1
 1002 247 l 1,764,-1
 999 245 l 1,765,-1
 995 244 l 1,766,-1
 992 243 l 1,767,-1
 988 242 l 1,768,-1
 985 241 l 1,769,-1
 982 240 l 1,770,-1
 979 240 l 1,771,-1
 963 234 l 1,772,-1
 958 233 l 1,773,-1
 956 232 l 1,774,-1
 944 229 l 1,775,-1
 936 227 l 2,776,777
 927 224 927 224 920 223 c 1,778,779
 912 220 912 220 906 219 c 2,780,-1
 902 218 l 1,781,782
 896 215 896 215 891 215 c 1,783,-1
 887 214 l 1,784,-1
 883 213 l 1,785,-1
 879 212 l 1,786,787
 874 209 874 209 871 209 c 0,788,789
 861 207 861 207 854 205 c 2,790,-1
 840 202 l 1,791,792
 832 199 832 199 827 199 c 1,793,-1
 822 197 l 1,794,-1
 819 197 l 1,795,-1
 806 194 l 1,796,-1
 803 193 l 1,797,-1
 799 192 l 1,798,-1
 796 192 l 1,799,-1
 791 191 l 2,800,801
 789 190 789 190 788 190 c 0,802,803
 782 188 782 188 777 188 c 1,804,805
 767 185 767 185 761 184 c 2,806,-1
 755 183 l 1,807,-1
 751 182 l 1,808,-1
 734 179 l 1,809,-1
 731 178 l 1,810,-1
 727 178 l 1,811,-1
 723 177 l 1,812,-1
 720 176 l 1,813,-1
 717 176 l 1,814,815
 715 175 715 175 714 175 c 2,816,-1
 712 174 l 1,817,-1
 709 174 l 1,818,819
 694 171 694 171 684 170 c 0,820,821
 683 169 683 169 682 169 c 2,822,-1
 679 169 l 1,823,-1
 675 168 l 1,824,-1
 673 167 l 1,825,-1
 670 167 l 1,826,-1
 667 167 l 1,827,828
 657 164 657 164 650 164 c 1,829,-1
 647 163 l 1,830,-1
 642 163 l 1,831,-1
 638 162 l 1,832,-1
 612 158 l 1,833,-1
 595 155 l 1,834,-1
 591 155 l 1,835,-1
 585 154 l 1,836,-1
 580 154 l 1,837,838
 574 152 574 152 569 152 c 2,839,-1
 565 152 l 1,840,-1
 557 150 l 1,841,-1
 540 149 l 1,842,843
 532 147 532 147 526 147 c 2,844,-1
 520 146 l 1,845,-1
 514 146 l 1,846,-1
 517 151 l 2,847,848
 519 155 519 155 522 157 c 1,849,-1
 525 162 l 1,850,-1
 527 165 l 1,851,-1
 529 166 l 1,852,853
 533 173 533 173 537 176 c 1,854,-1
 539 179 l 1,855,-1
 541 183 l 1,856,-1
 550 193 l 1,857,-1
 552 196 l 2,858,859
 555 201 555 201 558 203 c 1,860,-1
 559 206 l 1,861,862
 563 210 563 210 565 214 c 1,863,-1
 567 216 l 1,864,865
 575 228 575 228 582 234 c 1,866,-1
 584 238 l 1,867,-1
 587 242 l 1,868,-1
 589 245 l 1,869,-1
 591 246 l 1,870,871
 594 251 594 251 597 254 c 1,872,873
 600 259 600 259 603 262 c 0,874,875
 608 269 608 269 613 273 c 1,876,877
 622 287 622 287 631 295 c 1,878,-1
 633 299 l 1,879,-1
 637 302 l 1,880,-1
 644 312 l 1,881,-1
 647 315 l 1,882,-1
 649 317 l 2,883,884
 654 323 654 323 658 326 c 1,885,-1
 659 329 l 1,886,-1
 662 331 l 1,887,888
 663 333 663 333 664 333 c 0,889,890
 665 335 665 335 666 335 c 0,891,892
 667 337 667 337 668 337 c 0,893,894
 674 345 674 345 679 349 c 1,895,896
 687 359 687 359 694 364 c 1,897,898
 699 370 699 370 703 374 c 1,899,-1
 705 375 l 1,900,901
 709 380 709 380 712 383 c 2,902,-1
 715 385 l 1,903,-1
 717 387 l 2,904,905
 722 392 722 392 727 395 c 1,906,907
 732 402 732 402 739 405 c 1,908,-1
 741 408 l 1,909,-1
 745 410 l 1,910,-1
 747 413 l 1,911,-1
 759 421 l 1,912,913
 767 429 767 429 774 433 c 2,914,-1
 777 435 l 1,915,-1
 781 438 l 1,916,-1
 784 440 l 1,917,-1
 788 443 l 1,918,-1
 792 445 l 2,919,920
 796 448 796 448 800 450 c 2,921,-1
 804 453 l 1,922,-1
 807 454 l 1,923,-1
 810 457 l 1,924,-1
 814 459 l 1,925,-1
 821 463 l 2,926,927
 832 469 832 469 839 473 c 1,928,-1
 843 474 l 2,929,930
 849 476 849 476 854 476 c 1,931,-1
 858 477 l 1,932,-1
 862 478 l 1,933,-1
 865 479 l 1,934,-1
 876 480 l 1,935,-1
 880 481 l 1,936,-1
 883 481 l 1,937,-1
 891 483 l 1,938,-1
 895 483 l 1,939,-1
 912 485 l 1,940,736
 1098 488 1098 488 1132 290 c 1,737,-1
EndSplineSet
Substitution2: "'fina' Terminal Forms in Arabic lookup 3 subtable" tahfinal
Substitution2: "'medi' Medial Forms in Arabic lookup 2 subtable" tahmedial
Substitution2: "'init' Initial Forms in Arabic lookup 1 subtable" tahinitial
Substitution2: "'isol' Isolated Forms in Arabic lookup 0 subtable" tahisolated
EndChar

